%TF.GenerationSoftware,KiCad,Pcbnew,9.0.1*%
%TF.CreationDate,2025-08-25T18:36:21+03:00*%
%TF.ProjectId,Adapter,41646170-7465-4722-9e6b-696361645f70,rev?*%
%TF.SameCoordinates,Original*%
%TF.FileFunction,Profile,NP*%
%FSLAX46Y46*%
G04 Gerber Fmt 4.6, Leading zero omitted, Abs format (unit mm)*
G04 Created by KiCad (PCBNEW 9.0.1) date 2025-08-25 18:36:21*
%MOMM*%
%LPD*%
G01*
G04 APERTURE LIST*
%ADD10C,0.100000*%
%ADD11C,0.150000*%
%ADD12C,0.300000*%
%ADD13C,0.400000*%
%TA.AperFunction,Profile*%
%ADD14C,0.500000*%
%TD*%
%TA.AperFunction,Profile*%
%ADD15C,0.100000*%
%TD*%
G04 APERTURE END LIST*
D10*
D11*
X299989000Y-253002200D02*
X407989000Y-253002200D01*
X407989000Y-285002200D01*
X299989000Y-285002200D01*
X299989000Y-253002200D01*
D10*
D11*
X10000000Y-10000000D02*
X409989000Y-10000000D01*
X409989000Y-287002200D01*
X10000000Y-287002200D01*
X10000000Y-10000000D01*
D10*
D11*
X12000000Y-12000000D02*
X407989000Y-12000000D01*
X407989000Y-285002200D01*
X12000000Y-285002200D01*
X12000000Y-12000000D01*
D10*
D11*
X60000000Y-12000000D02*
X60000000Y-10000000D01*
D10*
D11*
X110000000Y-12000000D02*
X110000000Y-10000000D01*
D10*
D11*
X160000000Y-12000000D02*
X160000000Y-10000000D01*
D10*
D11*
X210000000Y-12000000D02*
X210000000Y-10000000D01*
D10*
D11*
X260000000Y-12000000D02*
X260000000Y-10000000D01*
D10*
D11*
X310000000Y-12000000D02*
X310000000Y-10000000D01*
D10*
D11*
X360000000Y-12000000D02*
X360000000Y-10000000D01*
D10*
D11*
X36089160Y-11593604D02*
X35346303Y-11593604D01*
X35717731Y-11593604D02*
X35717731Y-10293604D01*
X35717731Y-10293604D02*
X35593922Y-10479319D01*
X35593922Y-10479319D02*
X35470112Y-10603128D01*
X35470112Y-10603128D02*
X35346303Y-10665033D01*
D10*
D11*
X85346303Y-10417414D02*
X85408207Y-10355509D01*
X85408207Y-10355509D02*
X85532017Y-10293604D01*
X85532017Y-10293604D02*
X85841541Y-10293604D01*
X85841541Y-10293604D02*
X85965350Y-10355509D01*
X85965350Y-10355509D02*
X86027255Y-10417414D01*
X86027255Y-10417414D02*
X86089160Y-10541223D01*
X86089160Y-10541223D02*
X86089160Y-10665033D01*
X86089160Y-10665033D02*
X86027255Y-10850747D01*
X86027255Y-10850747D02*
X85284398Y-11593604D01*
X85284398Y-11593604D02*
X86089160Y-11593604D01*
D10*
D11*
X135284398Y-10293604D02*
X136089160Y-10293604D01*
X136089160Y-10293604D02*
X135655826Y-10788842D01*
X135655826Y-10788842D02*
X135841541Y-10788842D01*
X135841541Y-10788842D02*
X135965350Y-10850747D01*
X135965350Y-10850747D02*
X136027255Y-10912652D01*
X136027255Y-10912652D02*
X136089160Y-11036461D01*
X136089160Y-11036461D02*
X136089160Y-11345985D01*
X136089160Y-11345985D02*
X136027255Y-11469795D01*
X136027255Y-11469795D02*
X135965350Y-11531700D01*
X135965350Y-11531700D02*
X135841541Y-11593604D01*
X135841541Y-11593604D02*
X135470112Y-11593604D01*
X135470112Y-11593604D02*
X135346303Y-11531700D01*
X135346303Y-11531700D02*
X135284398Y-11469795D01*
D10*
D11*
X185965350Y-10726938D02*
X185965350Y-11593604D01*
X185655826Y-10231700D02*
X185346303Y-11160271D01*
X185346303Y-11160271D02*
X186151064Y-11160271D01*
D10*
D11*
X236027255Y-10293604D02*
X235408207Y-10293604D01*
X235408207Y-10293604D02*
X235346303Y-10912652D01*
X235346303Y-10912652D02*
X235408207Y-10850747D01*
X235408207Y-10850747D02*
X235532017Y-10788842D01*
X235532017Y-10788842D02*
X235841541Y-10788842D01*
X235841541Y-10788842D02*
X235965350Y-10850747D01*
X235965350Y-10850747D02*
X236027255Y-10912652D01*
X236027255Y-10912652D02*
X236089160Y-11036461D01*
X236089160Y-11036461D02*
X236089160Y-11345985D01*
X236089160Y-11345985D02*
X236027255Y-11469795D01*
X236027255Y-11469795D02*
X235965350Y-11531700D01*
X235965350Y-11531700D02*
X235841541Y-11593604D01*
X235841541Y-11593604D02*
X235532017Y-11593604D01*
X235532017Y-11593604D02*
X235408207Y-11531700D01*
X235408207Y-11531700D02*
X235346303Y-11469795D01*
D10*
D11*
X285965350Y-10293604D02*
X285717731Y-10293604D01*
X285717731Y-10293604D02*
X285593922Y-10355509D01*
X285593922Y-10355509D02*
X285532017Y-10417414D01*
X285532017Y-10417414D02*
X285408207Y-10603128D01*
X285408207Y-10603128D02*
X285346303Y-10850747D01*
X285346303Y-10850747D02*
X285346303Y-11345985D01*
X285346303Y-11345985D02*
X285408207Y-11469795D01*
X285408207Y-11469795D02*
X285470112Y-11531700D01*
X285470112Y-11531700D02*
X285593922Y-11593604D01*
X285593922Y-11593604D02*
X285841541Y-11593604D01*
X285841541Y-11593604D02*
X285965350Y-11531700D01*
X285965350Y-11531700D02*
X286027255Y-11469795D01*
X286027255Y-11469795D02*
X286089160Y-11345985D01*
X286089160Y-11345985D02*
X286089160Y-11036461D01*
X286089160Y-11036461D02*
X286027255Y-10912652D01*
X286027255Y-10912652D02*
X285965350Y-10850747D01*
X285965350Y-10850747D02*
X285841541Y-10788842D01*
X285841541Y-10788842D02*
X285593922Y-10788842D01*
X285593922Y-10788842D02*
X285470112Y-10850747D01*
X285470112Y-10850747D02*
X285408207Y-10912652D01*
X285408207Y-10912652D02*
X285346303Y-11036461D01*
D10*
D11*
X335284398Y-10293604D02*
X336151064Y-10293604D01*
X336151064Y-10293604D02*
X335593922Y-11593604D01*
D10*
D11*
X385593922Y-10850747D02*
X385470112Y-10788842D01*
X385470112Y-10788842D02*
X385408207Y-10726938D01*
X385408207Y-10726938D02*
X385346303Y-10603128D01*
X385346303Y-10603128D02*
X385346303Y-10541223D01*
X385346303Y-10541223D02*
X385408207Y-10417414D01*
X385408207Y-10417414D02*
X385470112Y-10355509D01*
X385470112Y-10355509D02*
X385593922Y-10293604D01*
X385593922Y-10293604D02*
X385841541Y-10293604D01*
X385841541Y-10293604D02*
X385965350Y-10355509D01*
X385965350Y-10355509D02*
X386027255Y-10417414D01*
X386027255Y-10417414D02*
X386089160Y-10541223D01*
X386089160Y-10541223D02*
X386089160Y-10603128D01*
X386089160Y-10603128D02*
X386027255Y-10726938D01*
X386027255Y-10726938D02*
X385965350Y-10788842D01*
X385965350Y-10788842D02*
X385841541Y-10850747D01*
X385841541Y-10850747D02*
X385593922Y-10850747D01*
X385593922Y-10850747D02*
X385470112Y-10912652D01*
X385470112Y-10912652D02*
X385408207Y-10974557D01*
X385408207Y-10974557D02*
X385346303Y-11098366D01*
X385346303Y-11098366D02*
X385346303Y-11345985D01*
X385346303Y-11345985D02*
X385408207Y-11469795D01*
X385408207Y-11469795D02*
X385470112Y-11531700D01*
X385470112Y-11531700D02*
X385593922Y-11593604D01*
X385593922Y-11593604D02*
X385841541Y-11593604D01*
X385841541Y-11593604D02*
X385965350Y-11531700D01*
X385965350Y-11531700D02*
X386027255Y-11469795D01*
X386027255Y-11469795D02*
X386089160Y-11345985D01*
X386089160Y-11345985D02*
X386089160Y-11098366D01*
X386089160Y-11098366D02*
X386027255Y-10974557D01*
X386027255Y-10974557D02*
X385965350Y-10912652D01*
X385965350Y-10912652D02*
X385841541Y-10850747D01*
D10*
D11*
X60000000Y-285002200D02*
X60000000Y-287002200D01*
D10*
D11*
X110000000Y-285002200D02*
X110000000Y-287002200D01*
D10*
D11*
X160000000Y-285002200D02*
X160000000Y-287002200D01*
D10*
D11*
X210000000Y-285002200D02*
X210000000Y-287002200D01*
D10*
D11*
X260000000Y-285002200D02*
X260000000Y-287002200D01*
D10*
D11*
X310000000Y-285002200D02*
X310000000Y-287002200D01*
D10*
D11*
X360000000Y-285002200D02*
X360000000Y-287002200D01*
D10*
D11*
X36089160Y-286595804D02*
X35346303Y-286595804D01*
X35717731Y-286595804D02*
X35717731Y-285295804D01*
X35717731Y-285295804D02*
X35593922Y-285481519D01*
X35593922Y-285481519D02*
X35470112Y-285605328D01*
X35470112Y-285605328D02*
X35346303Y-285667233D01*
D10*
D11*
X85346303Y-285419614D02*
X85408207Y-285357709D01*
X85408207Y-285357709D02*
X85532017Y-285295804D01*
X85532017Y-285295804D02*
X85841541Y-285295804D01*
X85841541Y-285295804D02*
X85965350Y-285357709D01*
X85965350Y-285357709D02*
X86027255Y-285419614D01*
X86027255Y-285419614D02*
X86089160Y-285543423D01*
X86089160Y-285543423D02*
X86089160Y-285667233D01*
X86089160Y-285667233D02*
X86027255Y-285852947D01*
X86027255Y-285852947D02*
X85284398Y-286595804D01*
X85284398Y-286595804D02*
X86089160Y-286595804D01*
D10*
D11*
X135284398Y-285295804D02*
X136089160Y-285295804D01*
X136089160Y-285295804D02*
X135655826Y-285791042D01*
X135655826Y-285791042D02*
X135841541Y-285791042D01*
X135841541Y-285791042D02*
X135965350Y-285852947D01*
X135965350Y-285852947D02*
X136027255Y-285914852D01*
X136027255Y-285914852D02*
X136089160Y-286038661D01*
X136089160Y-286038661D02*
X136089160Y-286348185D01*
X136089160Y-286348185D02*
X136027255Y-286471995D01*
X136027255Y-286471995D02*
X135965350Y-286533900D01*
X135965350Y-286533900D02*
X135841541Y-286595804D01*
X135841541Y-286595804D02*
X135470112Y-286595804D01*
X135470112Y-286595804D02*
X135346303Y-286533900D01*
X135346303Y-286533900D02*
X135284398Y-286471995D01*
D10*
D11*
X185965350Y-285729138D02*
X185965350Y-286595804D01*
X185655826Y-285233900D02*
X185346303Y-286162471D01*
X185346303Y-286162471D02*
X186151064Y-286162471D01*
D10*
D11*
X236027255Y-285295804D02*
X235408207Y-285295804D01*
X235408207Y-285295804D02*
X235346303Y-285914852D01*
X235346303Y-285914852D02*
X235408207Y-285852947D01*
X235408207Y-285852947D02*
X235532017Y-285791042D01*
X235532017Y-285791042D02*
X235841541Y-285791042D01*
X235841541Y-285791042D02*
X235965350Y-285852947D01*
X235965350Y-285852947D02*
X236027255Y-285914852D01*
X236027255Y-285914852D02*
X236089160Y-286038661D01*
X236089160Y-286038661D02*
X236089160Y-286348185D01*
X236089160Y-286348185D02*
X236027255Y-286471995D01*
X236027255Y-286471995D02*
X235965350Y-286533900D01*
X235965350Y-286533900D02*
X235841541Y-286595804D01*
X235841541Y-286595804D02*
X235532017Y-286595804D01*
X235532017Y-286595804D02*
X235408207Y-286533900D01*
X235408207Y-286533900D02*
X235346303Y-286471995D01*
D10*
D11*
X285965350Y-285295804D02*
X285717731Y-285295804D01*
X285717731Y-285295804D02*
X285593922Y-285357709D01*
X285593922Y-285357709D02*
X285532017Y-285419614D01*
X285532017Y-285419614D02*
X285408207Y-285605328D01*
X285408207Y-285605328D02*
X285346303Y-285852947D01*
X285346303Y-285852947D02*
X285346303Y-286348185D01*
X285346303Y-286348185D02*
X285408207Y-286471995D01*
X285408207Y-286471995D02*
X285470112Y-286533900D01*
X285470112Y-286533900D02*
X285593922Y-286595804D01*
X285593922Y-286595804D02*
X285841541Y-286595804D01*
X285841541Y-286595804D02*
X285965350Y-286533900D01*
X285965350Y-286533900D02*
X286027255Y-286471995D01*
X286027255Y-286471995D02*
X286089160Y-286348185D01*
X286089160Y-286348185D02*
X286089160Y-286038661D01*
X286089160Y-286038661D02*
X286027255Y-285914852D01*
X286027255Y-285914852D02*
X285965350Y-285852947D01*
X285965350Y-285852947D02*
X285841541Y-285791042D01*
X285841541Y-285791042D02*
X285593922Y-285791042D01*
X285593922Y-285791042D02*
X285470112Y-285852947D01*
X285470112Y-285852947D02*
X285408207Y-285914852D01*
X285408207Y-285914852D02*
X285346303Y-286038661D01*
D10*
D11*
X335284398Y-285295804D02*
X336151064Y-285295804D01*
X336151064Y-285295804D02*
X335593922Y-286595804D01*
D10*
D11*
X385593922Y-285852947D02*
X385470112Y-285791042D01*
X385470112Y-285791042D02*
X385408207Y-285729138D01*
X385408207Y-285729138D02*
X385346303Y-285605328D01*
X385346303Y-285605328D02*
X385346303Y-285543423D01*
X385346303Y-285543423D02*
X385408207Y-285419614D01*
X385408207Y-285419614D02*
X385470112Y-285357709D01*
X385470112Y-285357709D02*
X385593922Y-285295804D01*
X385593922Y-285295804D02*
X385841541Y-285295804D01*
X385841541Y-285295804D02*
X385965350Y-285357709D01*
X385965350Y-285357709D02*
X386027255Y-285419614D01*
X386027255Y-285419614D02*
X386089160Y-285543423D01*
X386089160Y-285543423D02*
X386089160Y-285605328D01*
X386089160Y-285605328D02*
X386027255Y-285729138D01*
X386027255Y-285729138D02*
X385965350Y-285791042D01*
X385965350Y-285791042D02*
X385841541Y-285852947D01*
X385841541Y-285852947D02*
X385593922Y-285852947D01*
X385593922Y-285852947D02*
X385470112Y-285914852D01*
X385470112Y-285914852D02*
X385408207Y-285976757D01*
X385408207Y-285976757D02*
X385346303Y-286100566D01*
X385346303Y-286100566D02*
X385346303Y-286348185D01*
X385346303Y-286348185D02*
X385408207Y-286471995D01*
X385408207Y-286471995D02*
X385470112Y-286533900D01*
X385470112Y-286533900D02*
X385593922Y-286595804D01*
X385593922Y-286595804D02*
X385841541Y-286595804D01*
X385841541Y-286595804D02*
X385965350Y-286533900D01*
X385965350Y-286533900D02*
X386027255Y-286471995D01*
X386027255Y-286471995D02*
X386089160Y-286348185D01*
X386089160Y-286348185D02*
X386089160Y-286100566D01*
X386089160Y-286100566D02*
X386027255Y-285976757D01*
X386027255Y-285976757D02*
X385965350Y-285914852D01*
X385965350Y-285914852D02*
X385841541Y-285852947D01*
D10*
D11*
X10000000Y-60000000D02*
X12000000Y-60000000D01*
D10*
D11*
X10000000Y-110000000D02*
X12000000Y-110000000D01*
D10*
D11*
X10000000Y-160000000D02*
X12000000Y-160000000D01*
D10*
D11*
X10000000Y-210000000D02*
X12000000Y-210000000D01*
D10*
D11*
X10000000Y-260000000D02*
X12000000Y-260000000D01*
D10*
D11*
X10690476Y-35222176D02*
X11309523Y-35222176D01*
X10566666Y-35593604D02*
X10999999Y-34293604D01*
X10999999Y-34293604D02*
X11433333Y-35593604D01*
D10*
D11*
X11092857Y-84912652D02*
X11278571Y-84974557D01*
X11278571Y-84974557D02*
X11340476Y-85036461D01*
X11340476Y-85036461D02*
X11402380Y-85160271D01*
X11402380Y-85160271D02*
X11402380Y-85345985D01*
X11402380Y-85345985D02*
X11340476Y-85469795D01*
X11340476Y-85469795D02*
X11278571Y-85531700D01*
X11278571Y-85531700D02*
X11154761Y-85593604D01*
X11154761Y-85593604D02*
X10659523Y-85593604D01*
X10659523Y-85593604D02*
X10659523Y-84293604D01*
X10659523Y-84293604D02*
X11092857Y-84293604D01*
X11092857Y-84293604D02*
X11216666Y-84355509D01*
X11216666Y-84355509D02*
X11278571Y-84417414D01*
X11278571Y-84417414D02*
X11340476Y-84541223D01*
X11340476Y-84541223D02*
X11340476Y-84665033D01*
X11340476Y-84665033D02*
X11278571Y-84788842D01*
X11278571Y-84788842D02*
X11216666Y-84850747D01*
X11216666Y-84850747D02*
X11092857Y-84912652D01*
X11092857Y-84912652D02*
X10659523Y-84912652D01*
D10*
D11*
X11402380Y-135469795D02*
X11340476Y-135531700D01*
X11340476Y-135531700D02*
X11154761Y-135593604D01*
X11154761Y-135593604D02*
X11030952Y-135593604D01*
X11030952Y-135593604D02*
X10845238Y-135531700D01*
X10845238Y-135531700D02*
X10721428Y-135407890D01*
X10721428Y-135407890D02*
X10659523Y-135284080D01*
X10659523Y-135284080D02*
X10597619Y-135036461D01*
X10597619Y-135036461D02*
X10597619Y-134850747D01*
X10597619Y-134850747D02*
X10659523Y-134603128D01*
X10659523Y-134603128D02*
X10721428Y-134479319D01*
X10721428Y-134479319D02*
X10845238Y-134355509D01*
X10845238Y-134355509D02*
X11030952Y-134293604D01*
X11030952Y-134293604D02*
X11154761Y-134293604D01*
X11154761Y-134293604D02*
X11340476Y-134355509D01*
X11340476Y-134355509D02*
X11402380Y-134417414D01*
D10*
D11*
X10659523Y-185593604D02*
X10659523Y-184293604D01*
X10659523Y-184293604D02*
X10969047Y-184293604D01*
X10969047Y-184293604D02*
X11154761Y-184355509D01*
X11154761Y-184355509D02*
X11278571Y-184479319D01*
X11278571Y-184479319D02*
X11340476Y-184603128D01*
X11340476Y-184603128D02*
X11402380Y-184850747D01*
X11402380Y-184850747D02*
X11402380Y-185036461D01*
X11402380Y-185036461D02*
X11340476Y-185284080D01*
X11340476Y-185284080D02*
X11278571Y-185407890D01*
X11278571Y-185407890D02*
X11154761Y-185531700D01*
X11154761Y-185531700D02*
X10969047Y-185593604D01*
X10969047Y-185593604D02*
X10659523Y-185593604D01*
D10*
D11*
X10721428Y-234912652D02*
X11154762Y-234912652D01*
X11340476Y-235593604D02*
X10721428Y-235593604D01*
X10721428Y-235593604D02*
X10721428Y-234293604D01*
X10721428Y-234293604D02*
X11340476Y-234293604D01*
D10*
D11*
X11185714Y-284912652D02*
X10752380Y-284912652D01*
X10752380Y-285593604D02*
X10752380Y-284293604D01*
X10752380Y-284293604D02*
X11371428Y-284293604D01*
D10*
D11*
X409989000Y-60000000D02*
X407989000Y-60000000D01*
D10*
D11*
X409989000Y-110000000D02*
X407989000Y-110000000D01*
D10*
D11*
X409989000Y-160000000D02*
X407989000Y-160000000D01*
D10*
D11*
X409989000Y-210000000D02*
X407989000Y-210000000D01*
D10*
D11*
X409989000Y-260000000D02*
X407989000Y-260000000D01*
D10*
D11*
X408679476Y-35222176D02*
X409298523Y-35222176D01*
X408555666Y-35593604D02*
X408988999Y-34293604D01*
X408988999Y-34293604D02*
X409422333Y-35593604D01*
D10*
D11*
X409081857Y-84912652D02*
X409267571Y-84974557D01*
X409267571Y-84974557D02*
X409329476Y-85036461D01*
X409329476Y-85036461D02*
X409391380Y-85160271D01*
X409391380Y-85160271D02*
X409391380Y-85345985D01*
X409391380Y-85345985D02*
X409329476Y-85469795D01*
X409329476Y-85469795D02*
X409267571Y-85531700D01*
X409267571Y-85531700D02*
X409143761Y-85593604D01*
X409143761Y-85593604D02*
X408648523Y-85593604D01*
X408648523Y-85593604D02*
X408648523Y-84293604D01*
X408648523Y-84293604D02*
X409081857Y-84293604D01*
X409081857Y-84293604D02*
X409205666Y-84355509D01*
X409205666Y-84355509D02*
X409267571Y-84417414D01*
X409267571Y-84417414D02*
X409329476Y-84541223D01*
X409329476Y-84541223D02*
X409329476Y-84665033D01*
X409329476Y-84665033D02*
X409267571Y-84788842D01*
X409267571Y-84788842D02*
X409205666Y-84850747D01*
X409205666Y-84850747D02*
X409081857Y-84912652D01*
X409081857Y-84912652D02*
X408648523Y-84912652D01*
D10*
D11*
X409391380Y-135469795D02*
X409329476Y-135531700D01*
X409329476Y-135531700D02*
X409143761Y-135593604D01*
X409143761Y-135593604D02*
X409019952Y-135593604D01*
X409019952Y-135593604D02*
X408834238Y-135531700D01*
X408834238Y-135531700D02*
X408710428Y-135407890D01*
X408710428Y-135407890D02*
X408648523Y-135284080D01*
X408648523Y-135284080D02*
X408586619Y-135036461D01*
X408586619Y-135036461D02*
X408586619Y-134850747D01*
X408586619Y-134850747D02*
X408648523Y-134603128D01*
X408648523Y-134603128D02*
X408710428Y-134479319D01*
X408710428Y-134479319D02*
X408834238Y-134355509D01*
X408834238Y-134355509D02*
X409019952Y-134293604D01*
X409019952Y-134293604D02*
X409143761Y-134293604D01*
X409143761Y-134293604D02*
X409329476Y-134355509D01*
X409329476Y-134355509D02*
X409391380Y-134417414D01*
D10*
D11*
X408648523Y-185593604D02*
X408648523Y-184293604D01*
X408648523Y-184293604D02*
X408958047Y-184293604D01*
X408958047Y-184293604D02*
X409143761Y-184355509D01*
X409143761Y-184355509D02*
X409267571Y-184479319D01*
X409267571Y-184479319D02*
X409329476Y-184603128D01*
X409329476Y-184603128D02*
X409391380Y-184850747D01*
X409391380Y-184850747D02*
X409391380Y-185036461D01*
X409391380Y-185036461D02*
X409329476Y-185284080D01*
X409329476Y-185284080D02*
X409267571Y-185407890D01*
X409267571Y-185407890D02*
X409143761Y-185531700D01*
X409143761Y-185531700D02*
X408958047Y-185593604D01*
X408958047Y-185593604D02*
X408648523Y-185593604D01*
D10*
D11*
X408710428Y-234912652D02*
X409143762Y-234912652D01*
X409329476Y-235593604D02*
X408710428Y-235593604D01*
X408710428Y-235593604D02*
X408710428Y-234293604D01*
X408710428Y-234293604D02*
X409329476Y-234293604D01*
D10*
D11*
X409174714Y-284912652D02*
X408741380Y-284912652D01*
X408741380Y-285593604D02*
X408741380Y-284293604D01*
X408741380Y-284293604D02*
X409360428Y-284293604D01*
D10*
D11*
X323444826Y-280788328D02*
X323444826Y-279288328D01*
X323444826Y-279288328D02*
X323801969Y-279288328D01*
X323801969Y-279288328D02*
X324016255Y-279359757D01*
X324016255Y-279359757D02*
X324159112Y-279502614D01*
X324159112Y-279502614D02*
X324230541Y-279645471D01*
X324230541Y-279645471D02*
X324301969Y-279931185D01*
X324301969Y-279931185D02*
X324301969Y-280145471D01*
X324301969Y-280145471D02*
X324230541Y-280431185D01*
X324230541Y-280431185D02*
X324159112Y-280574042D01*
X324159112Y-280574042D02*
X324016255Y-280716900D01*
X324016255Y-280716900D02*
X323801969Y-280788328D01*
X323801969Y-280788328D02*
X323444826Y-280788328D01*
X325587684Y-280788328D02*
X325587684Y-280002614D01*
X325587684Y-280002614D02*
X325516255Y-279859757D01*
X325516255Y-279859757D02*
X325373398Y-279788328D01*
X325373398Y-279788328D02*
X325087684Y-279788328D01*
X325087684Y-279788328D02*
X324944826Y-279859757D01*
X325587684Y-280716900D02*
X325444826Y-280788328D01*
X325444826Y-280788328D02*
X325087684Y-280788328D01*
X325087684Y-280788328D02*
X324944826Y-280716900D01*
X324944826Y-280716900D02*
X324873398Y-280574042D01*
X324873398Y-280574042D02*
X324873398Y-280431185D01*
X324873398Y-280431185D02*
X324944826Y-280288328D01*
X324944826Y-280288328D02*
X325087684Y-280216900D01*
X325087684Y-280216900D02*
X325444826Y-280216900D01*
X325444826Y-280216900D02*
X325587684Y-280145471D01*
X326087684Y-279788328D02*
X326659112Y-279788328D01*
X326301969Y-279288328D02*
X326301969Y-280574042D01*
X326301969Y-280574042D02*
X326373398Y-280716900D01*
X326373398Y-280716900D02*
X326516255Y-280788328D01*
X326516255Y-280788328D02*
X326659112Y-280788328D01*
X327730541Y-280716900D02*
X327587684Y-280788328D01*
X327587684Y-280788328D02*
X327301970Y-280788328D01*
X327301970Y-280788328D02*
X327159112Y-280716900D01*
X327159112Y-280716900D02*
X327087684Y-280574042D01*
X327087684Y-280574042D02*
X327087684Y-280002614D01*
X327087684Y-280002614D02*
X327159112Y-279859757D01*
X327159112Y-279859757D02*
X327301970Y-279788328D01*
X327301970Y-279788328D02*
X327587684Y-279788328D01*
X327587684Y-279788328D02*
X327730541Y-279859757D01*
X327730541Y-279859757D02*
X327801970Y-280002614D01*
X327801970Y-280002614D02*
X327801970Y-280145471D01*
X327801970Y-280145471D02*
X327087684Y-280288328D01*
X328444826Y-280645471D02*
X328516255Y-280716900D01*
X328516255Y-280716900D02*
X328444826Y-280788328D01*
X328444826Y-280788328D02*
X328373398Y-280716900D01*
X328373398Y-280716900D02*
X328444826Y-280645471D01*
X328444826Y-280645471D02*
X328444826Y-280788328D01*
X328444826Y-279859757D02*
X328516255Y-279931185D01*
X328516255Y-279931185D02*
X328444826Y-280002614D01*
X328444826Y-280002614D02*
X328373398Y-279931185D01*
X328373398Y-279931185D02*
X328444826Y-279859757D01*
X328444826Y-279859757D02*
X328444826Y-280002614D01*
X330230541Y-279431185D02*
X330301969Y-279359757D01*
X330301969Y-279359757D02*
X330444827Y-279288328D01*
X330444827Y-279288328D02*
X330801969Y-279288328D01*
X330801969Y-279288328D02*
X330944827Y-279359757D01*
X330944827Y-279359757D02*
X331016255Y-279431185D01*
X331016255Y-279431185D02*
X331087684Y-279574042D01*
X331087684Y-279574042D02*
X331087684Y-279716900D01*
X331087684Y-279716900D02*
X331016255Y-279931185D01*
X331016255Y-279931185D02*
X330159112Y-280788328D01*
X330159112Y-280788328D02*
X331087684Y-280788328D01*
X332016255Y-279288328D02*
X332159112Y-279288328D01*
X332159112Y-279288328D02*
X332301969Y-279359757D01*
X332301969Y-279359757D02*
X332373398Y-279431185D01*
X332373398Y-279431185D02*
X332444826Y-279574042D01*
X332444826Y-279574042D02*
X332516255Y-279859757D01*
X332516255Y-279859757D02*
X332516255Y-280216900D01*
X332516255Y-280216900D02*
X332444826Y-280502614D01*
X332444826Y-280502614D02*
X332373398Y-280645471D01*
X332373398Y-280645471D02*
X332301969Y-280716900D01*
X332301969Y-280716900D02*
X332159112Y-280788328D01*
X332159112Y-280788328D02*
X332016255Y-280788328D01*
X332016255Y-280788328D02*
X331873398Y-280716900D01*
X331873398Y-280716900D02*
X331801969Y-280645471D01*
X331801969Y-280645471D02*
X331730540Y-280502614D01*
X331730540Y-280502614D02*
X331659112Y-280216900D01*
X331659112Y-280216900D02*
X331659112Y-279859757D01*
X331659112Y-279859757D02*
X331730540Y-279574042D01*
X331730540Y-279574042D02*
X331801969Y-279431185D01*
X331801969Y-279431185D02*
X331873398Y-279359757D01*
X331873398Y-279359757D02*
X332016255Y-279288328D01*
X333087683Y-279431185D02*
X333159111Y-279359757D01*
X333159111Y-279359757D02*
X333301969Y-279288328D01*
X333301969Y-279288328D02*
X333659111Y-279288328D01*
X333659111Y-279288328D02*
X333801969Y-279359757D01*
X333801969Y-279359757D02*
X333873397Y-279431185D01*
X333873397Y-279431185D02*
X333944826Y-279574042D01*
X333944826Y-279574042D02*
X333944826Y-279716900D01*
X333944826Y-279716900D02*
X333873397Y-279931185D01*
X333873397Y-279931185D02*
X333016254Y-280788328D01*
X333016254Y-280788328D02*
X333944826Y-280788328D01*
X335301968Y-279288328D02*
X334587682Y-279288328D01*
X334587682Y-279288328D02*
X334516254Y-280002614D01*
X334516254Y-280002614D02*
X334587682Y-279931185D01*
X334587682Y-279931185D02*
X334730540Y-279859757D01*
X334730540Y-279859757D02*
X335087682Y-279859757D01*
X335087682Y-279859757D02*
X335230540Y-279931185D01*
X335230540Y-279931185D02*
X335301968Y-280002614D01*
X335301968Y-280002614D02*
X335373397Y-280145471D01*
X335373397Y-280145471D02*
X335373397Y-280502614D01*
X335373397Y-280502614D02*
X335301968Y-280645471D01*
X335301968Y-280645471D02*
X335230540Y-280716900D01*
X335230540Y-280716900D02*
X335087682Y-280788328D01*
X335087682Y-280788328D02*
X334730540Y-280788328D01*
X334730540Y-280788328D02*
X334587682Y-280716900D01*
X334587682Y-280716900D02*
X334516254Y-280645471D01*
X336016253Y-280216900D02*
X337159111Y-280216900D01*
X338159111Y-279288328D02*
X338301968Y-279288328D01*
X338301968Y-279288328D02*
X338444825Y-279359757D01*
X338444825Y-279359757D02*
X338516254Y-279431185D01*
X338516254Y-279431185D02*
X338587682Y-279574042D01*
X338587682Y-279574042D02*
X338659111Y-279859757D01*
X338659111Y-279859757D02*
X338659111Y-280216900D01*
X338659111Y-280216900D02*
X338587682Y-280502614D01*
X338587682Y-280502614D02*
X338516254Y-280645471D01*
X338516254Y-280645471D02*
X338444825Y-280716900D01*
X338444825Y-280716900D02*
X338301968Y-280788328D01*
X338301968Y-280788328D02*
X338159111Y-280788328D01*
X338159111Y-280788328D02*
X338016254Y-280716900D01*
X338016254Y-280716900D02*
X337944825Y-280645471D01*
X337944825Y-280645471D02*
X337873396Y-280502614D01*
X337873396Y-280502614D02*
X337801968Y-280216900D01*
X337801968Y-280216900D02*
X337801968Y-279859757D01*
X337801968Y-279859757D02*
X337873396Y-279574042D01*
X337873396Y-279574042D02*
X337944825Y-279431185D01*
X337944825Y-279431185D02*
X338016254Y-279359757D01*
X338016254Y-279359757D02*
X338159111Y-279288328D01*
X339944825Y-279288328D02*
X339659110Y-279288328D01*
X339659110Y-279288328D02*
X339516253Y-279359757D01*
X339516253Y-279359757D02*
X339444825Y-279431185D01*
X339444825Y-279431185D02*
X339301967Y-279645471D01*
X339301967Y-279645471D02*
X339230539Y-279931185D01*
X339230539Y-279931185D02*
X339230539Y-280502614D01*
X339230539Y-280502614D02*
X339301967Y-280645471D01*
X339301967Y-280645471D02*
X339373396Y-280716900D01*
X339373396Y-280716900D02*
X339516253Y-280788328D01*
X339516253Y-280788328D02*
X339801967Y-280788328D01*
X339801967Y-280788328D02*
X339944825Y-280716900D01*
X339944825Y-280716900D02*
X340016253Y-280645471D01*
X340016253Y-280645471D02*
X340087682Y-280502614D01*
X340087682Y-280502614D02*
X340087682Y-280145471D01*
X340087682Y-280145471D02*
X340016253Y-280002614D01*
X340016253Y-280002614D02*
X339944825Y-279931185D01*
X339944825Y-279931185D02*
X339801967Y-279859757D01*
X339801967Y-279859757D02*
X339516253Y-279859757D01*
X339516253Y-279859757D02*
X339373396Y-279931185D01*
X339373396Y-279931185D02*
X339301967Y-280002614D01*
X339301967Y-280002614D02*
X339230539Y-280145471D01*
X340730538Y-280216900D02*
X341873396Y-280216900D01*
X342873396Y-279288328D02*
X343016253Y-279288328D01*
X343016253Y-279288328D02*
X343159110Y-279359757D01*
X343159110Y-279359757D02*
X343230539Y-279431185D01*
X343230539Y-279431185D02*
X343301967Y-279574042D01*
X343301967Y-279574042D02*
X343373396Y-279859757D01*
X343373396Y-279859757D02*
X343373396Y-280216900D01*
X343373396Y-280216900D02*
X343301967Y-280502614D01*
X343301967Y-280502614D02*
X343230539Y-280645471D01*
X343230539Y-280645471D02*
X343159110Y-280716900D01*
X343159110Y-280716900D02*
X343016253Y-280788328D01*
X343016253Y-280788328D02*
X342873396Y-280788328D01*
X342873396Y-280788328D02*
X342730539Y-280716900D01*
X342730539Y-280716900D02*
X342659110Y-280645471D01*
X342659110Y-280645471D02*
X342587681Y-280502614D01*
X342587681Y-280502614D02*
X342516253Y-280216900D01*
X342516253Y-280216900D02*
X342516253Y-279859757D01*
X342516253Y-279859757D02*
X342587681Y-279574042D01*
X342587681Y-279574042D02*
X342659110Y-279431185D01*
X342659110Y-279431185D02*
X342730539Y-279359757D01*
X342730539Y-279359757D02*
X342873396Y-279288328D01*
X344659110Y-279788328D02*
X344659110Y-280788328D01*
X344301967Y-279216900D02*
X343944824Y-280288328D01*
X343944824Y-280288328D02*
X344873395Y-280288328D01*
D10*
D11*
X299989000Y-281502200D02*
X407989000Y-281502200D01*
D10*
D11*
X301444826Y-283588328D02*
X301444826Y-282088328D01*
X302301969Y-283588328D02*
X301659112Y-282731185D01*
X302301969Y-282088328D02*
X301444826Y-282945471D01*
X302944826Y-283588328D02*
X302944826Y-282588328D01*
X302944826Y-282088328D02*
X302873398Y-282159757D01*
X302873398Y-282159757D02*
X302944826Y-282231185D01*
X302944826Y-282231185D02*
X303016255Y-282159757D01*
X303016255Y-282159757D02*
X302944826Y-282088328D01*
X302944826Y-282088328D02*
X302944826Y-282231185D01*
X304516255Y-283445471D02*
X304444827Y-283516900D01*
X304444827Y-283516900D02*
X304230541Y-283588328D01*
X304230541Y-283588328D02*
X304087684Y-283588328D01*
X304087684Y-283588328D02*
X303873398Y-283516900D01*
X303873398Y-283516900D02*
X303730541Y-283374042D01*
X303730541Y-283374042D02*
X303659112Y-283231185D01*
X303659112Y-283231185D02*
X303587684Y-282945471D01*
X303587684Y-282945471D02*
X303587684Y-282731185D01*
X303587684Y-282731185D02*
X303659112Y-282445471D01*
X303659112Y-282445471D02*
X303730541Y-282302614D01*
X303730541Y-282302614D02*
X303873398Y-282159757D01*
X303873398Y-282159757D02*
X304087684Y-282088328D01*
X304087684Y-282088328D02*
X304230541Y-282088328D01*
X304230541Y-282088328D02*
X304444827Y-282159757D01*
X304444827Y-282159757D02*
X304516255Y-282231185D01*
X305801970Y-283588328D02*
X305801970Y-282802614D01*
X305801970Y-282802614D02*
X305730541Y-282659757D01*
X305730541Y-282659757D02*
X305587684Y-282588328D01*
X305587684Y-282588328D02*
X305301970Y-282588328D01*
X305301970Y-282588328D02*
X305159112Y-282659757D01*
X305801970Y-283516900D02*
X305659112Y-283588328D01*
X305659112Y-283588328D02*
X305301970Y-283588328D01*
X305301970Y-283588328D02*
X305159112Y-283516900D01*
X305159112Y-283516900D02*
X305087684Y-283374042D01*
X305087684Y-283374042D02*
X305087684Y-283231185D01*
X305087684Y-283231185D02*
X305159112Y-283088328D01*
X305159112Y-283088328D02*
X305301970Y-283016900D01*
X305301970Y-283016900D02*
X305659112Y-283016900D01*
X305659112Y-283016900D02*
X305801970Y-282945471D01*
X307159113Y-283588328D02*
X307159113Y-282088328D01*
X307159113Y-283516900D02*
X307016255Y-283588328D01*
X307016255Y-283588328D02*
X306730541Y-283588328D01*
X306730541Y-283588328D02*
X306587684Y-283516900D01*
X306587684Y-283516900D02*
X306516255Y-283445471D01*
X306516255Y-283445471D02*
X306444827Y-283302614D01*
X306444827Y-283302614D02*
X306444827Y-282874042D01*
X306444827Y-282874042D02*
X306516255Y-282731185D01*
X306516255Y-282731185D02*
X306587684Y-282659757D01*
X306587684Y-282659757D02*
X306730541Y-282588328D01*
X306730541Y-282588328D02*
X307016255Y-282588328D01*
X307016255Y-282588328D02*
X307159113Y-282659757D01*
X309016255Y-282802614D02*
X309516255Y-282802614D01*
X309730541Y-283588328D02*
X309016255Y-283588328D01*
X309016255Y-283588328D02*
X309016255Y-282088328D01*
X309016255Y-282088328D02*
X309730541Y-282088328D01*
X310373398Y-283445471D02*
X310444827Y-283516900D01*
X310444827Y-283516900D02*
X310373398Y-283588328D01*
X310373398Y-283588328D02*
X310301970Y-283516900D01*
X310301970Y-283516900D02*
X310373398Y-283445471D01*
X310373398Y-283445471D02*
X310373398Y-283588328D01*
X311087684Y-283588328D02*
X311087684Y-282088328D01*
X311087684Y-282088328D02*
X311444827Y-282088328D01*
X311444827Y-282088328D02*
X311659113Y-282159757D01*
X311659113Y-282159757D02*
X311801970Y-282302614D01*
X311801970Y-282302614D02*
X311873399Y-282445471D01*
X311873399Y-282445471D02*
X311944827Y-282731185D01*
X311944827Y-282731185D02*
X311944827Y-282945471D01*
X311944827Y-282945471D02*
X311873399Y-283231185D01*
X311873399Y-283231185D02*
X311801970Y-283374042D01*
X311801970Y-283374042D02*
X311659113Y-283516900D01*
X311659113Y-283516900D02*
X311444827Y-283588328D01*
X311444827Y-283588328D02*
X311087684Y-283588328D01*
X312587684Y-283445471D02*
X312659113Y-283516900D01*
X312659113Y-283516900D02*
X312587684Y-283588328D01*
X312587684Y-283588328D02*
X312516256Y-283516900D01*
X312516256Y-283516900D02*
X312587684Y-283445471D01*
X312587684Y-283445471D02*
X312587684Y-283588328D01*
X313230542Y-283159757D02*
X313944828Y-283159757D01*
X313087685Y-283588328D02*
X313587685Y-282088328D01*
X313587685Y-282088328D02*
X314087685Y-283588328D01*
X314587684Y-283445471D02*
X314659113Y-283516900D01*
X314659113Y-283516900D02*
X314587684Y-283588328D01*
X314587684Y-283588328D02*
X314516256Y-283516900D01*
X314516256Y-283516900D02*
X314587684Y-283445471D01*
X314587684Y-283445471D02*
X314587684Y-283588328D01*
X316516256Y-283588328D02*
X316801970Y-283588328D01*
X316801970Y-283588328D02*
X316944827Y-283516900D01*
X316944827Y-283516900D02*
X317016256Y-283445471D01*
X317016256Y-283445471D02*
X317159113Y-283231185D01*
X317159113Y-283231185D02*
X317230542Y-282945471D01*
X317230542Y-282945471D02*
X317230542Y-282374042D01*
X317230542Y-282374042D02*
X317159113Y-282231185D01*
X317159113Y-282231185D02*
X317087685Y-282159757D01*
X317087685Y-282159757D02*
X316944827Y-282088328D01*
X316944827Y-282088328D02*
X316659113Y-282088328D01*
X316659113Y-282088328D02*
X316516256Y-282159757D01*
X316516256Y-282159757D02*
X316444827Y-282231185D01*
X316444827Y-282231185D02*
X316373399Y-282374042D01*
X316373399Y-282374042D02*
X316373399Y-282731185D01*
X316373399Y-282731185D02*
X316444827Y-282874042D01*
X316444827Y-282874042D02*
X316516256Y-282945471D01*
X316516256Y-282945471D02*
X316659113Y-283016900D01*
X316659113Y-283016900D02*
X316944827Y-283016900D01*
X316944827Y-283016900D02*
X317087685Y-282945471D01*
X317087685Y-282945471D02*
X317159113Y-282874042D01*
X317159113Y-282874042D02*
X317230542Y-282731185D01*
X317873398Y-283445471D02*
X317944827Y-283516900D01*
X317944827Y-283516900D02*
X317873398Y-283588328D01*
X317873398Y-283588328D02*
X317801970Y-283516900D01*
X317801970Y-283516900D02*
X317873398Y-283445471D01*
X317873398Y-283445471D02*
X317873398Y-283588328D01*
X318873399Y-282088328D02*
X319016256Y-282088328D01*
X319016256Y-282088328D02*
X319159113Y-282159757D01*
X319159113Y-282159757D02*
X319230542Y-282231185D01*
X319230542Y-282231185D02*
X319301970Y-282374042D01*
X319301970Y-282374042D02*
X319373399Y-282659757D01*
X319373399Y-282659757D02*
X319373399Y-283016900D01*
X319373399Y-283016900D02*
X319301970Y-283302614D01*
X319301970Y-283302614D02*
X319230542Y-283445471D01*
X319230542Y-283445471D02*
X319159113Y-283516900D01*
X319159113Y-283516900D02*
X319016256Y-283588328D01*
X319016256Y-283588328D02*
X318873399Y-283588328D01*
X318873399Y-283588328D02*
X318730542Y-283516900D01*
X318730542Y-283516900D02*
X318659113Y-283445471D01*
X318659113Y-283445471D02*
X318587684Y-283302614D01*
X318587684Y-283302614D02*
X318516256Y-283016900D01*
X318516256Y-283016900D02*
X318516256Y-282659757D01*
X318516256Y-282659757D02*
X318587684Y-282374042D01*
X318587684Y-282374042D02*
X318659113Y-282231185D01*
X318659113Y-282231185D02*
X318730542Y-282159757D01*
X318730542Y-282159757D02*
X318873399Y-282088328D01*
X320016255Y-283445471D02*
X320087684Y-283516900D01*
X320087684Y-283516900D02*
X320016255Y-283588328D01*
X320016255Y-283588328D02*
X319944827Y-283516900D01*
X319944827Y-283516900D02*
X320016255Y-283445471D01*
X320016255Y-283445471D02*
X320016255Y-283588328D01*
X321516256Y-283588328D02*
X320659113Y-283588328D01*
X321087684Y-283588328D02*
X321087684Y-282088328D01*
X321087684Y-282088328D02*
X320944827Y-282302614D01*
X320944827Y-282302614D02*
X320801970Y-282445471D01*
X320801970Y-282445471D02*
X320659113Y-282516900D01*
D10*
D11*
X299989000Y-278502200D02*
X407989000Y-278502200D01*
D10*
D12*
X387400653Y-280780528D02*
X386900653Y-280066242D01*
X386543510Y-280780528D02*
X386543510Y-279280528D01*
X386543510Y-279280528D02*
X387114939Y-279280528D01*
X387114939Y-279280528D02*
X387257796Y-279351957D01*
X387257796Y-279351957D02*
X387329225Y-279423385D01*
X387329225Y-279423385D02*
X387400653Y-279566242D01*
X387400653Y-279566242D02*
X387400653Y-279780528D01*
X387400653Y-279780528D02*
X387329225Y-279923385D01*
X387329225Y-279923385D02*
X387257796Y-279994814D01*
X387257796Y-279994814D02*
X387114939Y-280066242D01*
X387114939Y-280066242D02*
X386543510Y-280066242D01*
X388614939Y-280709100D02*
X388472082Y-280780528D01*
X388472082Y-280780528D02*
X388186368Y-280780528D01*
X388186368Y-280780528D02*
X388043510Y-280709100D01*
X388043510Y-280709100D02*
X387972082Y-280566242D01*
X387972082Y-280566242D02*
X387972082Y-279994814D01*
X387972082Y-279994814D02*
X388043510Y-279851957D01*
X388043510Y-279851957D02*
X388186368Y-279780528D01*
X388186368Y-279780528D02*
X388472082Y-279780528D01*
X388472082Y-279780528D02*
X388614939Y-279851957D01*
X388614939Y-279851957D02*
X388686368Y-279994814D01*
X388686368Y-279994814D02*
X388686368Y-280137671D01*
X388686368Y-280137671D02*
X387972082Y-280280528D01*
X389186367Y-279780528D02*
X389543510Y-280780528D01*
X389543510Y-280780528D02*
X389900653Y-279780528D01*
X390472081Y-280637671D02*
X390543510Y-280709100D01*
X390543510Y-280709100D02*
X390472081Y-280780528D01*
X390472081Y-280780528D02*
X390400653Y-280709100D01*
X390400653Y-280709100D02*
X390472081Y-280637671D01*
X390472081Y-280637671D02*
X390472081Y-280780528D01*
X390472081Y-279851957D02*
X390543510Y-279923385D01*
X390543510Y-279923385D02*
X390472081Y-279994814D01*
X390472081Y-279994814D02*
X390400653Y-279923385D01*
X390400653Y-279923385D02*
X390472081Y-279851957D01*
X390472081Y-279851957D02*
X390472081Y-279994814D01*
D10*
D11*
X301373398Y-280716900D02*
X301587684Y-280788328D01*
X301587684Y-280788328D02*
X301944826Y-280788328D01*
X301944826Y-280788328D02*
X302087684Y-280716900D01*
X302087684Y-280716900D02*
X302159112Y-280645471D01*
X302159112Y-280645471D02*
X302230541Y-280502614D01*
X302230541Y-280502614D02*
X302230541Y-280359757D01*
X302230541Y-280359757D02*
X302159112Y-280216900D01*
X302159112Y-280216900D02*
X302087684Y-280145471D01*
X302087684Y-280145471D02*
X301944826Y-280074042D01*
X301944826Y-280074042D02*
X301659112Y-280002614D01*
X301659112Y-280002614D02*
X301516255Y-279931185D01*
X301516255Y-279931185D02*
X301444826Y-279859757D01*
X301444826Y-279859757D02*
X301373398Y-279716900D01*
X301373398Y-279716900D02*
X301373398Y-279574042D01*
X301373398Y-279574042D02*
X301444826Y-279431185D01*
X301444826Y-279431185D02*
X301516255Y-279359757D01*
X301516255Y-279359757D02*
X301659112Y-279288328D01*
X301659112Y-279288328D02*
X302016255Y-279288328D01*
X302016255Y-279288328D02*
X302230541Y-279359757D01*
X302873397Y-280788328D02*
X302873397Y-279788328D01*
X302873397Y-279288328D02*
X302801969Y-279359757D01*
X302801969Y-279359757D02*
X302873397Y-279431185D01*
X302873397Y-279431185D02*
X302944826Y-279359757D01*
X302944826Y-279359757D02*
X302873397Y-279288328D01*
X302873397Y-279288328D02*
X302873397Y-279431185D01*
X303444826Y-279788328D02*
X304230541Y-279788328D01*
X304230541Y-279788328D02*
X303444826Y-280788328D01*
X303444826Y-280788328D02*
X304230541Y-280788328D01*
X305373398Y-280716900D02*
X305230541Y-280788328D01*
X305230541Y-280788328D02*
X304944827Y-280788328D01*
X304944827Y-280788328D02*
X304801969Y-280716900D01*
X304801969Y-280716900D02*
X304730541Y-280574042D01*
X304730541Y-280574042D02*
X304730541Y-280002614D01*
X304730541Y-280002614D02*
X304801969Y-279859757D01*
X304801969Y-279859757D02*
X304944827Y-279788328D01*
X304944827Y-279788328D02*
X305230541Y-279788328D01*
X305230541Y-279788328D02*
X305373398Y-279859757D01*
X305373398Y-279859757D02*
X305444827Y-280002614D01*
X305444827Y-280002614D02*
X305444827Y-280145471D01*
X305444827Y-280145471D02*
X304730541Y-280288328D01*
X306087683Y-280645471D02*
X306159112Y-280716900D01*
X306159112Y-280716900D02*
X306087683Y-280788328D01*
X306087683Y-280788328D02*
X306016255Y-280716900D01*
X306016255Y-280716900D02*
X306087683Y-280645471D01*
X306087683Y-280645471D02*
X306087683Y-280788328D01*
X306087683Y-279859757D02*
X306159112Y-279931185D01*
X306159112Y-279931185D02*
X306087683Y-280002614D01*
X306087683Y-280002614D02*
X306016255Y-279931185D01*
X306016255Y-279931185D02*
X306087683Y-279859757D01*
X306087683Y-279859757D02*
X306087683Y-280002614D01*
X307873398Y-280359757D02*
X308587684Y-280359757D01*
X307730541Y-280788328D02*
X308230541Y-279288328D01*
X308230541Y-279288328D02*
X308730541Y-280788328D01*
X309087683Y-279288328D02*
X310016255Y-279288328D01*
X310016255Y-279288328D02*
X309516255Y-279859757D01*
X309516255Y-279859757D02*
X309730540Y-279859757D01*
X309730540Y-279859757D02*
X309873398Y-279931185D01*
X309873398Y-279931185D02*
X309944826Y-280002614D01*
X309944826Y-280002614D02*
X310016255Y-280145471D01*
X310016255Y-280145471D02*
X310016255Y-280502614D01*
X310016255Y-280502614D02*
X309944826Y-280645471D01*
X309944826Y-280645471D02*
X309873398Y-280716900D01*
X309873398Y-280716900D02*
X309730540Y-280788328D01*
X309730540Y-280788328D02*
X309301969Y-280788328D01*
X309301969Y-280788328D02*
X309159112Y-280716900D01*
X309159112Y-280716900D02*
X309087683Y-280645471D01*
D10*
D11*
X386444826Y-283588328D02*
X386444826Y-282088328D01*
X387801970Y-283588328D02*
X387801970Y-282088328D01*
X387801970Y-283516900D02*
X387659112Y-283588328D01*
X387659112Y-283588328D02*
X387373398Y-283588328D01*
X387373398Y-283588328D02*
X387230541Y-283516900D01*
X387230541Y-283516900D02*
X387159112Y-283445471D01*
X387159112Y-283445471D02*
X387087684Y-283302614D01*
X387087684Y-283302614D02*
X387087684Y-282874042D01*
X387087684Y-282874042D02*
X387159112Y-282731185D01*
X387159112Y-282731185D02*
X387230541Y-282659757D01*
X387230541Y-282659757D02*
X387373398Y-282588328D01*
X387373398Y-282588328D02*
X387659112Y-282588328D01*
X387659112Y-282588328D02*
X387801970Y-282659757D01*
X388516255Y-283445471D02*
X388587684Y-283516900D01*
X388587684Y-283516900D02*
X388516255Y-283588328D01*
X388516255Y-283588328D02*
X388444827Y-283516900D01*
X388444827Y-283516900D02*
X388516255Y-283445471D01*
X388516255Y-283445471D02*
X388516255Y-283588328D01*
X388516255Y-282659757D02*
X388587684Y-282731185D01*
X388587684Y-282731185D02*
X388516255Y-282802614D01*
X388516255Y-282802614D02*
X388444827Y-282731185D01*
X388444827Y-282731185D02*
X388516255Y-282659757D01*
X388516255Y-282659757D02*
X388516255Y-282802614D01*
X391159113Y-283588328D02*
X390301970Y-283588328D01*
X390730541Y-283588328D02*
X390730541Y-282088328D01*
X390730541Y-282088328D02*
X390587684Y-282302614D01*
X390587684Y-282302614D02*
X390444827Y-282445471D01*
X390444827Y-282445471D02*
X390301970Y-282516900D01*
X391659112Y-282088328D02*
X392587684Y-282088328D01*
X392587684Y-282088328D02*
X392087684Y-282659757D01*
X392087684Y-282659757D02*
X392301969Y-282659757D01*
X392301969Y-282659757D02*
X392444827Y-282731185D01*
X392444827Y-282731185D02*
X392516255Y-282802614D01*
X392516255Y-282802614D02*
X392587684Y-282945471D01*
X392587684Y-282945471D02*
X392587684Y-283302614D01*
X392587684Y-283302614D02*
X392516255Y-283445471D01*
X392516255Y-283445471D02*
X392444827Y-283516900D01*
X392444827Y-283516900D02*
X392301969Y-283588328D01*
X392301969Y-283588328D02*
X391873398Y-283588328D01*
X391873398Y-283588328D02*
X391730541Y-283516900D01*
X391730541Y-283516900D02*
X391659112Y-283445471D01*
X394301969Y-282016900D02*
X393016255Y-283945471D01*
X395587684Y-283588328D02*
X394730541Y-283588328D01*
X395159112Y-283588328D02*
X395159112Y-282088328D01*
X395159112Y-282088328D02*
X395016255Y-282302614D01*
X395016255Y-282302614D02*
X394873398Y-282445471D01*
X394873398Y-282445471D02*
X394730541Y-282516900D01*
X396087683Y-282088328D02*
X397016255Y-282088328D01*
X397016255Y-282088328D02*
X396516255Y-282659757D01*
X396516255Y-282659757D02*
X396730540Y-282659757D01*
X396730540Y-282659757D02*
X396873398Y-282731185D01*
X396873398Y-282731185D02*
X396944826Y-282802614D01*
X396944826Y-282802614D02*
X397016255Y-282945471D01*
X397016255Y-282945471D02*
X397016255Y-283302614D01*
X397016255Y-283302614D02*
X396944826Y-283445471D01*
X396944826Y-283445471D02*
X396873398Y-283516900D01*
X396873398Y-283516900D02*
X396730540Y-283588328D01*
X396730540Y-283588328D02*
X396301969Y-283588328D01*
X396301969Y-283588328D02*
X396159112Y-283516900D01*
X396159112Y-283516900D02*
X396087683Y-283445471D01*
D10*
D11*
X299989000Y-274502200D02*
X407989000Y-274502200D01*
D10*
D13*
X301680728Y-275206638D02*
X302823585Y-275206638D01*
X302002157Y-277206638D02*
X302252157Y-275206638D01*
X303240252Y-277206638D02*
X303406919Y-275873304D01*
X303490252Y-275206638D02*
X303383109Y-275301876D01*
X303383109Y-275301876D02*
X303466443Y-275397114D01*
X303466443Y-275397114D02*
X303573586Y-275301876D01*
X303573586Y-275301876D02*
X303490252Y-275206638D01*
X303490252Y-275206638D02*
X303466443Y-275397114D01*
X304073586Y-275873304D02*
X304835490Y-275873304D01*
X304442633Y-275206638D02*
X304228348Y-276920923D01*
X304228348Y-276920923D02*
X304299776Y-277111400D01*
X304299776Y-277111400D02*
X304478348Y-277206638D01*
X304478348Y-277206638D02*
X304668824Y-277206638D01*
X305621205Y-277206638D02*
X305442633Y-277111400D01*
X305442633Y-277111400D02*
X305371205Y-276920923D01*
X305371205Y-276920923D02*
X305585490Y-275206638D01*
X307156919Y-277111400D02*
X306954538Y-277206638D01*
X306954538Y-277206638D02*
X306573585Y-277206638D01*
X306573585Y-277206638D02*
X306395014Y-277111400D01*
X306395014Y-277111400D02*
X306323585Y-276920923D01*
X306323585Y-276920923D02*
X306418824Y-276159019D01*
X306418824Y-276159019D02*
X306537871Y-275968542D01*
X306537871Y-275968542D02*
X306740252Y-275873304D01*
X306740252Y-275873304D02*
X307121204Y-275873304D01*
X307121204Y-275873304D02*
X307299776Y-275968542D01*
X307299776Y-275968542D02*
X307371204Y-276159019D01*
X307371204Y-276159019D02*
X307347395Y-276349495D01*
X307347395Y-276349495D02*
X306371204Y-276539971D01*
X308121205Y-277016161D02*
X308204538Y-277111400D01*
X308204538Y-277111400D02*
X308097395Y-277206638D01*
X308097395Y-277206638D02*
X308014062Y-277111400D01*
X308014062Y-277111400D02*
X308121205Y-277016161D01*
X308121205Y-277016161D02*
X308097395Y-277206638D01*
X308252157Y-275968542D02*
X308335490Y-276063780D01*
X308335490Y-276063780D02*
X308228348Y-276159019D01*
X308228348Y-276159019D02*
X308145014Y-276063780D01*
X308145014Y-276063780D02*
X308252157Y-275968542D01*
X308252157Y-275968542D02*
X308228348Y-276159019D01*
X310537872Y-275206638D02*
X311680729Y-275206638D01*
X310859301Y-277206638D02*
X311109301Y-275206638D01*
X312097396Y-277206638D02*
X312347396Y-275206638D01*
X312954539Y-277206638D02*
X313085491Y-276159019D01*
X313085491Y-276159019D02*
X313014063Y-275968542D01*
X313014063Y-275968542D02*
X312835491Y-275873304D01*
X312835491Y-275873304D02*
X312549777Y-275873304D01*
X312549777Y-275873304D02*
X312347396Y-275968542D01*
X312347396Y-275968542D02*
X312240253Y-276063780D01*
X313906920Y-277206638D02*
X314073587Y-275873304D01*
X314025968Y-276254257D02*
X314145015Y-276063780D01*
X314145015Y-276063780D02*
X314252158Y-275968542D01*
X314252158Y-275968542D02*
X314454539Y-275873304D01*
X314454539Y-275873304D02*
X314645015Y-275873304D01*
X315918825Y-277111400D02*
X315716444Y-277206638D01*
X315716444Y-277206638D02*
X315335491Y-277206638D01*
X315335491Y-277206638D02*
X315156920Y-277111400D01*
X315156920Y-277111400D02*
X315085491Y-276920923D01*
X315085491Y-276920923D02*
X315180730Y-276159019D01*
X315180730Y-276159019D02*
X315299777Y-275968542D01*
X315299777Y-275968542D02*
X315502158Y-275873304D01*
X315502158Y-275873304D02*
X315883110Y-275873304D01*
X315883110Y-275873304D02*
X316061682Y-275968542D01*
X316061682Y-275968542D02*
X316133110Y-276159019D01*
X316133110Y-276159019D02*
X316109301Y-276349495D01*
X316109301Y-276349495D02*
X315133110Y-276539971D01*
X317633111Y-277111400D02*
X317430730Y-277206638D01*
X317430730Y-277206638D02*
X317049777Y-277206638D01*
X317049777Y-277206638D02*
X316871206Y-277111400D01*
X316871206Y-277111400D02*
X316799777Y-276920923D01*
X316799777Y-276920923D02*
X316895016Y-276159019D01*
X316895016Y-276159019D02*
X317014063Y-275968542D01*
X317014063Y-275968542D02*
X317216444Y-275873304D01*
X317216444Y-275873304D02*
X317597396Y-275873304D01*
X317597396Y-275873304D02*
X317775968Y-275968542D01*
X317775968Y-275968542D02*
X317847396Y-276159019D01*
X317847396Y-276159019D02*
X317823587Y-276349495D01*
X317823587Y-276349495D02*
X316847396Y-276539971D01*
X320097397Y-277206638D02*
X320347397Y-275206638D01*
X320347397Y-275206638D02*
X321109302Y-275206638D01*
X321109302Y-275206638D02*
X321287873Y-275301876D01*
X321287873Y-275301876D02*
X321371207Y-275397114D01*
X321371207Y-275397114D02*
X321442635Y-275587590D01*
X321442635Y-275587590D02*
X321406921Y-275873304D01*
X321406921Y-275873304D02*
X321287873Y-276063780D01*
X321287873Y-276063780D02*
X321180731Y-276159019D01*
X321180731Y-276159019D02*
X320978350Y-276254257D01*
X320978350Y-276254257D02*
X320216445Y-276254257D01*
X322097397Y-277206638D02*
X322347397Y-275206638D01*
X322954540Y-277206638D02*
X323085492Y-276159019D01*
X323085492Y-276159019D02*
X323014064Y-275968542D01*
X323014064Y-275968542D02*
X322835492Y-275873304D01*
X322835492Y-275873304D02*
X322549778Y-275873304D01*
X322549778Y-275873304D02*
X322347397Y-275968542D01*
X322347397Y-275968542D02*
X322240254Y-276063780D01*
X324764064Y-277206638D02*
X324895016Y-276159019D01*
X324895016Y-276159019D02*
X324823588Y-275968542D01*
X324823588Y-275968542D02*
X324645016Y-275873304D01*
X324645016Y-275873304D02*
X324264064Y-275873304D01*
X324264064Y-275873304D02*
X324061683Y-275968542D01*
X324775969Y-277111400D02*
X324573588Y-277206638D01*
X324573588Y-277206638D02*
X324097397Y-277206638D01*
X324097397Y-277206638D02*
X323918826Y-277111400D01*
X323918826Y-277111400D02*
X323847397Y-276920923D01*
X323847397Y-276920923D02*
X323871207Y-276730447D01*
X323871207Y-276730447D02*
X323990255Y-276539971D01*
X323990255Y-276539971D02*
X324192636Y-276444733D01*
X324192636Y-276444733D02*
X324668826Y-276444733D01*
X324668826Y-276444733D02*
X324871207Y-276349495D01*
X325633112Y-277111400D02*
X325811683Y-277206638D01*
X325811683Y-277206638D02*
X326192636Y-277206638D01*
X326192636Y-277206638D02*
X326395017Y-277111400D01*
X326395017Y-277111400D02*
X326514064Y-276920923D01*
X326514064Y-276920923D02*
X326525969Y-276825685D01*
X326525969Y-276825685D02*
X326454540Y-276635209D01*
X326454540Y-276635209D02*
X326275969Y-276539971D01*
X326275969Y-276539971D02*
X325990255Y-276539971D01*
X325990255Y-276539971D02*
X325811683Y-276444733D01*
X325811683Y-276444733D02*
X325740255Y-276254257D01*
X325740255Y-276254257D02*
X325752160Y-276159019D01*
X325752160Y-276159019D02*
X325871207Y-275968542D01*
X325871207Y-275968542D02*
X326073588Y-275873304D01*
X326073588Y-275873304D02*
X326359302Y-275873304D01*
X326359302Y-275873304D02*
X326537874Y-275968542D01*
X328109303Y-277111400D02*
X327906922Y-277206638D01*
X327906922Y-277206638D02*
X327525969Y-277206638D01*
X327525969Y-277206638D02*
X327347398Y-277111400D01*
X327347398Y-277111400D02*
X327275969Y-276920923D01*
X327275969Y-276920923D02*
X327371208Y-276159019D01*
X327371208Y-276159019D02*
X327490255Y-275968542D01*
X327490255Y-275968542D02*
X327692636Y-275873304D01*
X327692636Y-275873304D02*
X328073588Y-275873304D01*
X328073588Y-275873304D02*
X328252160Y-275968542D01*
X328252160Y-275968542D02*
X328323588Y-276159019D01*
X328323588Y-276159019D02*
X328299779Y-276349495D01*
X328299779Y-276349495D02*
X327323588Y-276539971D01*
X330573589Y-277206638D02*
X330823589Y-275206638D01*
X330823589Y-275206638D02*
X331299780Y-275206638D01*
X331299780Y-275206638D02*
X331573589Y-275301876D01*
X331573589Y-275301876D02*
X331740256Y-275492352D01*
X331740256Y-275492352D02*
X331811684Y-275682828D01*
X331811684Y-275682828D02*
X331859304Y-276063780D01*
X331859304Y-276063780D02*
X331823589Y-276349495D01*
X331823589Y-276349495D02*
X331680732Y-276730447D01*
X331680732Y-276730447D02*
X331561684Y-276920923D01*
X331561684Y-276920923D02*
X331347399Y-277111400D01*
X331347399Y-277111400D02*
X331049780Y-277206638D01*
X331049780Y-277206638D02*
X330573589Y-277206638D01*
X332573589Y-277206638D02*
X332740256Y-275873304D01*
X332692637Y-276254257D02*
X332811684Y-276063780D01*
X332811684Y-276063780D02*
X332918827Y-275968542D01*
X332918827Y-275968542D02*
X333121208Y-275873304D01*
X333121208Y-275873304D02*
X333311684Y-275873304D01*
X333811684Y-277206638D02*
X333978351Y-275873304D01*
X334061684Y-275206638D02*
X333954541Y-275301876D01*
X333954541Y-275301876D02*
X334037875Y-275397114D01*
X334037875Y-275397114D02*
X334145018Y-275301876D01*
X334145018Y-275301876D02*
X334061684Y-275206638D01*
X334061684Y-275206638D02*
X334037875Y-275397114D01*
X334740256Y-275873304D02*
X335049780Y-277206638D01*
X335049780Y-277206638D02*
X335692637Y-275873304D01*
X337061685Y-277111400D02*
X336859304Y-277206638D01*
X336859304Y-277206638D02*
X336478351Y-277206638D01*
X336478351Y-277206638D02*
X336299780Y-277111400D01*
X336299780Y-277111400D02*
X336228351Y-276920923D01*
X336228351Y-276920923D02*
X336323590Y-276159019D01*
X336323590Y-276159019D02*
X336442637Y-275968542D01*
X336442637Y-275968542D02*
X336645018Y-275873304D01*
X336645018Y-275873304D02*
X337025970Y-275873304D01*
X337025970Y-275873304D02*
X337204542Y-275968542D01*
X337204542Y-275968542D02*
X337275970Y-276159019D01*
X337275970Y-276159019D02*
X337252161Y-276349495D01*
X337252161Y-276349495D02*
X336275970Y-276539971D01*
X338002161Y-277206638D02*
X338168828Y-275873304D01*
X338121209Y-276254257D02*
X338240256Y-276063780D01*
X338240256Y-276063780D02*
X338347399Y-275968542D01*
X338347399Y-275968542D02*
X338549780Y-275873304D01*
X338549780Y-275873304D02*
X338740256Y-275873304D01*
X340728352Y-275206638D02*
X341145019Y-277206638D01*
X341145019Y-277206638D02*
X342061685Y-275206638D01*
X342609305Y-276159019D02*
X343275971Y-276159019D01*
X343430733Y-277206638D02*
X342478352Y-277206638D01*
X342478352Y-277206638D02*
X342728352Y-275206638D01*
X342728352Y-275206638D02*
X343680733Y-275206638D01*
X345430733Y-277206638D02*
X344883114Y-276254257D01*
X344287876Y-277206638D02*
X344537876Y-275206638D01*
X344537876Y-275206638D02*
X345299781Y-275206638D01*
X345299781Y-275206638D02*
X345478352Y-275301876D01*
X345478352Y-275301876D02*
X345561686Y-275397114D01*
X345561686Y-275397114D02*
X345633114Y-275587590D01*
X345633114Y-275587590D02*
X345597400Y-275873304D01*
X345597400Y-275873304D02*
X345478352Y-276063780D01*
X345478352Y-276063780D02*
X345371210Y-276159019D01*
X345371210Y-276159019D02*
X345168829Y-276254257D01*
X345168829Y-276254257D02*
X344406924Y-276254257D01*
X346418829Y-275397114D02*
X346525971Y-275301876D01*
X346525971Y-275301876D02*
X346728352Y-275206638D01*
X346728352Y-275206638D02*
X347204543Y-275206638D01*
X347204543Y-275206638D02*
X347383114Y-275301876D01*
X347383114Y-275301876D02*
X347466448Y-275397114D01*
X347466448Y-275397114D02*
X347537876Y-275587590D01*
X347537876Y-275587590D02*
X347514067Y-275778066D01*
X347514067Y-275778066D02*
X347383114Y-276063780D01*
X347383114Y-276063780D02*
X346097400Y-277206638D01*
X346097400Y-277206638D02*
X347335495Y-277206638D01*
X348216448Y-277016161D02*
X348299781Y-277111400D01*
X348299781Y-277111400D02*
X348192638Y-277206638D01*
X348192638Y-277206638D02*
X348109305Y-277111400D01*
X348109305Y-277111400D02*
X348216448Y-277016161D01*
X348216448Y-277016161D02*
X348192638Y-277206638D01*
X349275972Y-275397114D02*
X349383114Y-275301876D01*
X349383114Y-275301876D02*
X349585495Y-275206638D01*
X349585495Y-275206638D02*
X350061686Y-275206638D01*
X350061686Y-275206638D02*
X350240257Y-275301876D01*
X350240257Y-275301876D02*
X350323591Y-275397114D01*
X350323591Y-275397114D02*
X350395019Y-275587590D01*
X350395019Y-275587590D02*
X350371210Y-275778066D01*
X350371210Y-275778066D02*
X350240257Y-276063780D01*
X350240257Y-276063780D02*
X348954543Y-277206638D01*
X348954543Y-277206638D02*
X350192638Y-277206638D01*
X351073591Y-277016161D02*
X351156924Y-277111400D01*
X351156924Y-277111400D02*
X351049781Y-277206638D01*
X351049781Y-277206638D02*
X350966448Y-277111400D01*
X350966448Y-277111400D02*
X351073591Y-277016161D01*
X351073591Y-277016161D02*
X351049781Y-277206638D01*
X353049781Y-277206638D02*
X351906924Y-277206638D01*
X352478353Y-277206638D02*
X352728353Y-275206638D01*
X352728353Y-275206638D02*
X352502162Y-275492352D01*
X352502162Y-275492352D02*
X352287877Y-275682828D01*
X352287877Y-275682828D02*
X352085496Y-275778066D01*
D10*
D11*
X301944826Y-272602614D02*
X301444826Y-272602614D01*
X301444826Y-273388328D02*
X301444826Y-271888328D01*
X301444826Y-271888328D02*
X302159112Y-271888328D01*
X302730540Y-273388328D02*
X302730540Y-272388328D01*
X302730540Y-271888328D02*
X302659112Y-271959757D01*
X302659112Y-271959757D02*
X302730540Y-272031185D01*
X302730540Y-272031185D02*
X302801969Y-271959757D01*
X302801969Y-271959757D02*
X302730540Y-271888328D01*
X302730540Y-271888328D02*
X302730540Y-272031185D01*
X303659112Y-273388328D02*
X303516255Y-273316900D01*
X303516255Y-273316900D02*
X303444826Y-273174042D01*
X303444826Y-273174042D02*
X303444826Y-271888328D01*
X304801969Y-273316900D02*
X304659112Y-273388328D01*
X304659112Y-273388328D02*
X304373398Y-273388328D01*
X304373398Y-273388328D02*
X304230540Y-273316900D01*
X304230540Y-273316900D02*
X304159112Y-273174042D01*
X304159112Y-273174042D02*
X304159112Y-272602614D01*
X304159112Y-272602614D02*
X304230540Y-272459757D01*
X304230540Y-272459757D02*
X304373398Y-272388328D01*
X304373398Y-272388328D02*
X304659112Y-272388328D01*
X304659112Y-272388328D02*
X304801969Y-272459757D01*
X304801969Y-272459757D02*
X304873398Y-272602614D01*
X304873398Y-272602614D02*
X304873398Y-272745471D01*
X304873398Y-272745471D02*
X304159112Y-272888328D01*
X305516254Y-273245471D02*
X305587683Y-273316900D01*
X305587683Y-273316900D02*
X305516254Y-273388328D01*
X305516254Y-273388328D02*
X305444826Y-273316900D01*
X305444826Y-273316900D02*
X305516254Y-273245471D01*
X305516254Y-273245471D02*
X305516254Y-273388328D01*
X305516254Y-272459757D02*
X305587683Y-272531185D01*
X305587683Y-272531185D02*
X305516254Y-272602614D01*
X305516254Y-272602614D02*
X305444826Y-272531185D01*
X305444826Y-272531185D02*
X305516254Y-272459757D01*
X305516254Y-272459757D02*
X305516254Y-272602614D01*
X307301969Y-272959757D02*
X308016255Y-272959757D01*
X307159112Y-273388328D02*
X307659112Y-271888328D01*
X307659112Y-271888328D02*
X308159112Y-273388328D01*
X309301969Y-273388328D02*
X309301969Y-271888328D01*
X309301969Y-273316900D02*
X309159111Y-273388328D01*
X309159111Y-273388328D02*
X308873397Y-273388328D01*
X308873397Y-273388328D02*
X308730540Y-273316900D01*
X308730540Y-273316900D02*
X308659111Y-273245471D01*
X308659111Y-273245471D02*
X308587683Y-273102614D01*
X308587683Y-273102614D02*
X308587683Y-272674042D01*
X308587683Y-272674042D02*
X308659111Y-272531185D01*
X308659111Y-272531185D02*
X308730540Y-272459757D01*
X308730540Y-272459757D02*
X308873397Y-272388328D01*
X308873397Y-272388328D02*
X309159111Y-272388328D01*
X309159111Y-272388328D02*
X309301969Y-272459757D01*
X310659112Y-273388328D02*
X310659112Y-272602614D01*
X310659112Y-272602614D02*
X310587683Y-272459757D01*
X310587683Y-272459757D02*
X310444826Y-272388328D01*
X310444826Y-272388328D02*
X310159112Y-272388328D01*
X310159112Y-272388328D02*
X310016254Y-272459757D01*
X310659112Y-273316900D02*
X310516254Y-273388328D01*
X310516254Y-273388328D02*
X310159112Y-273388328D01*
X310159112Y-273388328D02*
X310016254Y-273316900D01*
X310016254Y-273316900D02*
X309944826Y-273174042D01*
X309944826Y-273174042D02*
X309944826Y-273031185D01*
X309944826Y-273031185D02*
X310016254Y-272888328D01*
X310016254Y-272888328D02*
X310159112Y-272816900D01*
X310159112Y-272816900D02*
X310516254Y-272816900D01*
X310516254Y-272816900D02*
X310659112Y-272745471D01*
X311373397Y-272388328D02*
X311373397Y-273888328D01*
X311373397Y-272459757D02*
X311516255Y-272388328D01*
X311516255Y-272388328D02*
X311801969Y-272388328D01*
X311801969Y-272388328D02*
X311944826Y-272459757D01*
X311944826Y-272459757D02*
X312016255Y-272531185D01*
X312016255Y-272531185D02*
X312087683Y-272674042D01*
X312087683Y-272674042D02*
X312087683Y-273102614D01*
X312087683Y-273102614D02*
X312016255Y-273245471D01*
X312016255Y-273245471D02*
X311944826Y-273316900D01*
X311944826Y-273316900D02*
X311801969Y-273388328D01*
X311801969Y-273388328D02*
X311516255Y-273388328D01*
X311516255Y-273388328D02*
X311373397Y-273316900D01*
X312516255Y-272388328D02*
X313087683Y-272388328D01*
X312730540Y-271888328D02*
X312730540Y-273174042D01*
X312730540Y-273174042D02*
X312801969Y-273316900D01*
X312801969Y-273316900D02*
X312944826Y-273388328D01*
X312944826Y-273388328D02*
X313087683Y-273388328D01*
X314159112Y-273316900D02*
X314016255Y-273388328D01*
X314016255Y-273388328D02*
X313730541Y-273388328D01*
X313730541Y-273388328D02*
X313587683Y-273316900D01*
X313587683Y-273316900D02*
X313516255Y-273174042D01*
X313516255Y-273174042D02*
X313516255Y-272602614D01*
X313516255Y-272602614D02*
X313587683Y-272459757D01*
X313587683Y-272459757D02*
X313730541Y-272388328D01*
X313730541Y-272388328D02*
X314016255Y-272388328D01*
X314016255Y-272388328D02*
X314159112Y-272459757D01*
X314159112Y-272459757D02*
X314230541Y-272602614D01*
X314230541Y-272602614D02*
X314230541Y-272745471D01*
X314230541Y-272745471D02*
X313516255Y-272888328D01*
X314873397Y-273388328D02*
X314873397Y-272388328D01*
X314873397Y-272674042D02*
X314944826Y-272531185D01*
X314944826Y-272531185D02*
X315016255Y-272459757D01*
X315016255Y-272459757D02*
X315159112Y-272388328D01*
X315159112Y-272388328D02*
X315301969Y-272388328D01*
X315801968Y-273245471D02*
X315873397Y-273316900D01*
X315873397Y-273316900D02*
X315801968Y-273388328D01*
X315801968Y-273388328D02*
X315730540Y-273316900D01*
X315730540Y-273316900D02*
X315801968Y-273245471D01*
X315801968Y-273245471D02*
X315801968Y-273388328D01*
X316516254Y-273388328D02*
X316516254Y-271888328D01*
X316659112Y-272816900D02*
X317087683Y-273388328D01*
X317087683Y-272388328D02*
X316516254Y-272959757D01*
X317730540Y-273388328D02*
X317730540Y-272388328D01*
X317730540Y-271888328D02*
X317659112Y-271959757D01*
X317659112Y-271959757D02*
X317730540Y-272031185D01*
X317730540Y-272031185D02*
X317801969Y-271959757D01*
X317801969Y-271959757D02*
X317730540Y-271888328D01*
X317730540Y-271888328D02*
X317730540Y-272031185D01*
X319087684Y-273316900D02*
X318944826Y-273388328D01*
X318944826Y-273388328D02*
X318659112Y-273388328D01*
X318659112Y-273388328D02*
X318516255Y-273316900D01*
X318516255Y-273316900D02*
X318444826Y-273245471D01*
X318444826Y-273245471D02*
X318373398Y-273102614D01*
X318373398Y-273102614D02*
X318373398Y-272674042D01*
X318373398Y-272674042D02*
X318444826Y-272531185D01*
X318444826Y-272531185D02*
X318516255Y-272459757D01*
X318516255Y-272459757D02*
X318659112Y-272388328D01*
X318659112Y-272388328D02*
X318944826Y-272388328D01*
X318944826Y-272388328D02*
X319087684Y-272459757D01*
X320373398Y-273388328D02*
X320373398Y-272602614D01*
X320373398Y-272602614D02*
X320301969Y-272459757D01*
X320301969Y-272459757D02*
X320159112Y-272388328D01*
X320159112Y-272388328D02*
X319873398Y-272388328D01*
X319873398Y-272388328D02*
X319730540Y-272459757D01*
X320373398Y-273316900D02*
X320230540Y-273388328D01*
X320230540Y-273388328D02*
X319873398Y-273388328D01*
X319873398Y-273388328D02*
X319730540Y-273316900D01*
X319730540Y-273316900D02*
X319659112Y-273174042D01*
X319659112Y-273174042D02*
X319659112Y-273031185D01*
X319659112Y-273031185D02*
X319730540Y-272888328D01*
X319730540Y-272888328D02*
X319873398Y-272816900D01*
X319873398Y-272816900D02*
X320230540Y-272816900D01*
X320230540Y-272816900D02*
X320373398Y-272745471D01*
X321730541Y-273388328D02*
X321730541Y-271888328D01*
X321730541Y-273316900D02*
X321587683Y-273388328D01*
X321587683Y-273388328D02*
X321301969Y-273388328D01*
X321301969Y-273388328D02*
X321159112Y-273316900D01*
X321159112Y-273316900D02*
X321087683Y-273245471D01*
X321087683Y-273245471D02*
X321016255Y-273102614D01*
X321016255Y-273102614D02*
X321016255Y-272674042D01*
X321016255Y-272674042D02*
X321087683Y-272531185D01*
X321087683Y-272531185D02*
X321159112Y-272459757D01*
X321159112Y-272459757D02*
X321301969Y-272388328D01*
X321301969Y-272388328D02*
X321587683Y-272388328D01*
X321587683Y-272388328D02*
X321730541Y-272459757D01*
X322087684Y-273531185D02*
X323230541Y-273531185D01*
X323587683Y-272388328D02*
X323587683Y-273888328D01*
X323587683Y-272459757D02*
X323730541Y-272388328D01*
X323730541Y-272388328D02*
X324016255Y-272388328D01*
X324016255Y-272388328D02*
X324159112Y-272459757D01*
X324159112Y-272459757D02*
X324230541Y-272531185D01*
X324230541Y-272531185D02*
X324301969Y-272674042D01*
X324301969Y-272674042D02*
X324301969Y-273102614D01*
X324301969Y-273102614D02*
X324230541Y-273245471D01*
X324230541Y-273245471D02*
X324159112Y-273316900D01*
X324159112Y-273316900D02*
X324016255Y-273388328D01*
X324016255Y-273388328D02*
X323730541Y-273388328D01*
X323730541Y-273388328D02*
X323587683Y-273316900D01*
X325587684Y-273316900D02*
X325444826Y-273388328D01*
X325444826Y-273388328D02*
X325159112Y-273388328D01*
X325159112Y-273388328D02*
X325016255Y-273316900D01*
X325016255Y-273316900D02*
X324944826Y-273245471D01*
X324944826Y-273245471D02*
X324873398Y-273102614D01*
X324873398Y-273102614D02*
X324873398Y-272674042D01*
X324873398Y-272674042D02*
X324944826Y-272531185D01*
X324944826Y-272531185D02*
X325016255Y-272459757D01*
X325016255Y-272459757D02*
X325159112Y-272388328D01*
X325159112Y-272388328D02*
X325444826Y-272388328D01*
X325444826Y-272388328D02*
X325587684Y-272459757D01*
X326230540Y-273388328D02*
X326230540Y-271888328D01*
X326230540Y-272459757D02*
X326373398Y-272388328D01*
X326373398Y-272388328D02*
X326659112Y-272388328D01*
X326659112Y-272388328D02*
X326801969Y-272459757D01*
X326801969Y-272459757D02*
X326873398Y-272531185D01*
X326873398Y-272531185D02*
X326944826Y-272674042D01*
X326944826Y-272674042D02*
X326944826Y-273102614D01*
X326944826Y-273102614D02*
X326873398Y-273245471D01*
X326873398Y-273245471D02*
X326801969Y-273316900D01*
X326801969Y-273316900D02*
X326659112Y-273388328D01*
X326659112Y-273388328D02*
X326373398Y-273388328D01*
X326373398Y-273388328D02*
X326230540Y-273316900D01*
D10*
D11*
X299989000Y-268502200D02*
X407989000Y-268502200D01*
D10*
D11*
X301373398Y-270616900D02*
X301587684Y-270688328D01*
X301587684Y-270688328D02*
X301944826Y-270688328D01*
X301944826Y-270688328D02*
X302087684Y-270616900D01*
X302087684Y-270616900D02*
X302159112Y-270545471D01*
X302159112Y-270545471D02*
X302230541Y-270402614D01*
X302230541Y-270402614D02*
X302230541Y-270259757D01*
X302230541Y-270259757D02*
X302159112Y-270116900D01*
X302159112Y-270116900D02*
X302087684Y-270045471D01*
X302087684Y-270045471D02*
X301944826Y-269974042D01*
X301944826Y-269974042D02*
X301659112Y-269902614D01*
X301659112Y-269902614D02*
X301516255Y-269831185D01*
X301516255Y-269831185D02*
X301444826Y-269759757D01*
X301444826Y-269759757D02*
X301373398Y-269616900D01*
X301373398Y-269616900D02*
X301373398Y-269474042D01*
X301373398Y-269474042D02*
X301444826Y-269331185D01*
X301444826Y-269331185D02*
X301516255Y-269259757D01*
X301516255Y-269259757D02*
X301659112Y-269188328D01*
X301659112Y-269188328D02*
X302016255Y-269188328D01*
X302016255Y-269188328D02*
X302230541Y-269259757D01*
X302873397Y-270688328D02*
X302873397Y-269188328D01*
X303516255Y-270688328D02*
X303516255Y-269902614D01*
X303516255Y-269902614D02*
X303444826Y-269759757D01*
X303444826Y-269759757D02*
X303301969Y-269688328D01*
X303301969Y-269688328D02*
X303087683Y-269688328D01*
X303087683Y-269688328D02*
X302944826Y-269759757D01*
X302944826Y-269759757D02*
X302873397Y-269831185D01*
X304801969Y-270616900D02*
X304659112Y-270688328D01*
X304659112Y-270688328D02*
X304373398Y-270688328D01*
X304373398Y-270688328D02*
X304230540Y-270616900D01*
X304230540Y-270616900D02*
X304159112Y-270474042D01*
X304159112Y-270474042D02*
X304159112Y-269902614D01*
X304159112Y-269902614D02*
X304230540Y-269759757D01*
X304230540Y-269759757D02*
X304373398Y-269688328D01*
X304373398Y-269688328D02*
X304659112Y-269688328D01*
X304659112Y-269688328D02*
X304801969Y-269759757D01*
X304801969Y-269759757D02*
X304873398Y-269902614D01*
X304873398Y-269902614D02*
X304873398Y-270045471D01*
X304873398Y-270045471D02*
X304159112Y-270188328D01*
X306087683Y-270616900D02*
X305944826Y-270688328D01*
X305944826Y-270688328D02*
X305659112Y-270688328D01*
X305659112Y-270688328D02*
X305516254Y-270616900D01*
X305516254Y-270616900D02*
X305444826Y-270474042D01*
X305444826Y-270474042D02*
X305444826Y-269902614D01*
X305444826Y-269902614D02*
X305516254Y-269759757D01*
X305516254Y-269759757D02*
X305659112Y-269688328D01*
X305659112Y-269688328D02*
X305944826Y-269688328D01*
X305944826Y-269688328D02*
X306087683Y-269759757D01*
X306087683Y-269759757D02*
X306159112Y-269902614D01*
X306159112Y-269902614D02*
X306159112Y-270045471D01*
X306159112Y-270045471D02*
X305444826Y-270188328D01*
X306587683Y-269688328D02*
X307159111Y-269688328D01*
X306801968Y-269188328D02*
X306801968Y-270474042D01*
X306801968Y-270474042D02*
X306873397Y-270616900D01*
X306873397Y-270616900D02*
X307016254Y-270688328D01*
X307016254Y-270688328D02*
X307159111Y-270688328D01*
X307659111Y-270545471D02*
X307730540Y-270616900D01*
X307730540Y-270616900D02*
X307659111Y-270688328D01*
X307659111Y-270688328D02*
X307587683Y-270616900D01*
X307587683Y-270616900D02*
X307659111Y-270545471D01*
X307659111Y-270545471D02*
X307659111Y-270688328D01*
X307659111Y-269759757D02*
X307730540Y-269831185D01*
X307730540Y-269831185D02*
X307659111Y-269902614D01*
X307659111Y-269902614D02*
X307587683Y-269831185D01*
X307587683Y-269831185D02*
X307659111Y-269759757D01*
X307659111Y-269759757D02*
X307659111Y-269902614D01*
D10*
D11*
X319989000Y-278502200D02*
X319989000Y-281502200D01*
D10*
D11*
X383989000Y-278502200D02*
X383989000Y-285002200D01*
D14*
X225103311Y-57421323D02*
X221794079Y-57421320D01*
X79979911Y-129643144D02*
X76676600Y-129643144D01*
X82676600Y-164977852D02*
G75*
G02*
X79698962Y-161964325I0J2977852D01*
G01*
X122544120Y-52620531D02*
X122544997Y-47600003D01*
X169844120Y-52620531D02*
X169844997Y-47600003D01*
X132144114Y-52629904D02*
G75*
G02*
X127344120Y-57421321I-4799854J8444D01*
G01*
X228103311Y-126600000D02*
G75*
G02*
X225103311Y-129600011I-3000211J200D01*
G01*
D15*
X179446010Y-134578900D02*
G75*
G02*
X169845590Y-134578900I-4800210J0D01*
G01*
X169845590Y-134578900D02*
G75*
G02*
X179446010Y-134578900I4800210J0D01*
G01*
D14*
X85000000Y-47600000D02*
X85000000Y-52464469D01*
X73676600Y-60464469D02*
X73676600Y-126643144D01*
X225103311Y-57421323D02*
G75*
G02*
X228103377Y-60421325I-11J-3000077D01*
G01*
X216994127Y-52615748D02*
X217000000Y-47600000D01*
X221794079Y-57421320D02*
G75*
G02*
X216994183Y-52615748I21J4799920D01*
G01*
X222103311Y-162000000D02*
G75*
G02*
X219103309Y-164999911I-3000011J100D01*
G01*
X179444114Y-52629904D02*
G75*
G02*
X174644120Y-57421321I-4799814J8404D01*
G01*
D15*
X132145838Y-134578660D02*
G75*
G02*
X122545882Y-134578660I-4799978J0D01*
G01*
X122545882Y-134578660D02*
G75*
G02*
X132145838Y-134578660I4799978J0D01*
G01*
D14*
X76676600Y-129643144D02*
G75*
G02*
X73676556Y-126643144I0J3000044D01*
G01*
X222103311Y-139199528D02*
X222103311Y-162000000D01*
X82676600Y-164977852D02*
X219103309Y-165000000D01*
X217000000Y-47600000D02*
X179445000Y-47600000D01*
X73676600Y-60464469D02*
G75*
G02*
X76676600Y-57464500I3000000J-31D01*
G01*
X174644120Y-57421320D02*
G75*
G02*
X169844180Y-52620531I-20J4799920D01*
G01*
X179445000Y-47600000D02*
X179444114Y-52629904D01*
X225103311Y-129600000D02*
X221800000Y-129600000D01*
X222103311Y-139199528D02*
G75*
G02*
X221799948Y-129592542I-269651J4799768D01*
G01*
X79979911Y-129643145D02*
G75*
G02*
X79698961Y-139163854I-13721J-4764095D01*
G01*
X85000000Y-52464469D02*
G75*
G02*
X79985832Y-57464470I-5000020J-1D01*
G01*
X122544128Y-52620531D02*
X122544120Y-52620531D01*
X79985832Y-57464470D02*
X76676600Y-57464467D01*
X169844997Y-47600003D02*
X132145000Y-47600000D01*
X169844128Y-52620531D02*
X169844120Y-52620531D01*
X132145000Y-47600000D02*
X132144114Y-52629904D01*
X79698961Y-139163853D02*
X79698961Y-161964325D01*
X122544997Y-47600003D02*
X85000000Y-47600000D01*
X216994131Y-52615748D02*
X216994127Y-52615748D01*
X228103311Y-60421325D02*
X228103311Y-126600000D01*
X127344120Y-57421320D02*
G75*
G02*
X122544180Y-52620531I-20J4799920D01*
G01*
M02*
