M48
; DRILL file {KiCad 9.0.1} date 2025-08-25T18:36:24+0300
; FORMAT={-:-/ absolute / metric / decimal}
; #@! TF.CreationDate,2025-08-25T18:36:24+03:00
; #@! TF.GenerationSoftware,Kicad,Pcbnew,9.0.1
; #@! TF.FileFunction,Plated,1,6,PTH
FMAT,2
METRIC
; #@! TA.AperFunction,Plated,PTH,ViaDrill
T1C0.400
; #@! TA.AperFunction,Plated,PTH,ComponentDrill
T2C0.500
; #@! TA.AperFunction,Plated,PTH,ComponentDrill
T3C1.000
; #@! TA.AperFunction,Plated,PTH,ComponentDrill
T4C1.020
; #@! TA.AperFunction,Plated,PTH,ComponentDrill
T5C1.200
; #@! TA.AperFunction,Plated,PTH,ComponentDrill
T6C1.500
%
G90
G05
T1
X75.25Y-66.25
X75.25Y-67.25
X75.25Y-69.25
X75.25Y-70.25
X76.895Y-105.298
X77.145Y-100.048
X77.145Y-103.798
X78.0Y-113.75
X78.0Y-115.25
X82.25Y-119.25
X85.25Y-83.25
X85.344Y-62.041
X85.852Y-102.362
X85.852Y-106.172
X87.0Y-107.0
X89.004Y-86.1
X89.154Y-62.041
X89.408Y-107.188
X91.059Y-101.727
X91.367Y-88.319
X91.9Y-51.8
X92.373Y-68.486
X92.726Y-89.408
X93.068Y-87.366
X93.472Y-107.188
X93.726Y-89.408
X93.726Y-102.108
X94.2Y-51.8
X94.869Y-89.408
X95.631Y-73.75
X96.139Y-101.727
X97.409Y-89.281
X97.409Y-101.727
X97.75Y-70.75
X98.25Y-69.5
X98.75Y-73.75
X98.994Y-125.288
X98.994Y-127.188
X100.076Y-120.269
X100.076Y-124.079
X100.203Y-89.281
X100.203Y-102.997
X100.25Y-130.75
X100.5Y-110.75
X100.5Y-113.75
X101.473Y-89.281
X101.596Y-88.138
X102.108Y-119.888
X102.235Y-128.397
X102.559Y-124.483
X102.616Y-101.6
X103.356Y-126.216
X103.378Y-106.172
X103.886Y-101.6
X104.013Y-89.281
X104.14Y-142.24
X104.394Y-84.144
X104.6Y-51.8
X104.902Y-101.6
X105.41Y-129.286
X105.41Y-131.339
X105.537Y-123.19
X105.664Y-121.158
X106.426Y-103.505
X106.553Y-89.1
X106.8Y-51.8
X108.987Y-89.387
X109.474Y-106.426
X111.0Y-83.6
X113.06Y-89.31
X113.792Y-86.614
X114.161Y-63.121
X114.2Y-64.3
X114.234Y-55.306
X114.25Y-125.75
X114.762Y-66.85
X115.17Y-120.677
X115.443Y-59.563
X116.205Y-65.405
X116.332Y-55.372
X116.5Y-78.75
X116.5Y-127.5
X116.547Y-130.015
X116.75Y-68.0
X116.891Y-120.75
X117.0Y-124.25
X117.602Y-52.086
X118.237Y-59.563
X118.28Y-63.838
X118.75Y-78.75
X119.779Y-63.881
X119.933Y-90.0
X119.933Y-91.25
X119.933Y-95.25
X119.933Y-98.75
X120.904Y-67.818
X121.031Y-59.563
X121.031Y-63.804
X122.0Y-66.0
X122.0Y-67.0
X122.0Y-69.0
X122.0Y-70.0
X124.0Y-99.35
X124.0Y-101.75
X124.75Y-116.75
X124.75Y-118.0
X125.0Y-102.5
X129.25Y-119.5
X132.588Y-106.172
X133.0Y-83.947
X133.096Y-61.857
X133.875Y-107.0
X135.128Y-84.836
X135.382Y-101.6
X136.652Y-107.188
X136.906Y-61.857
X138.049Y-101.6
X138.303Y-88.392
X139.5Y-68.75
X139.594Y-89.505
X140.058Y-87.5
X140.462Y-106.426
X140.589Y-89.408
X140.589Y-101.6
X141.859Y-89.408
X142.379Y-73.5
X143.129Y-101.6
X144.35Y-73.5
X144.399Y-89.408
X144.399Y-101.6
X144.6Y-51.8
X145.0Y-70.75
X145.25Y-69.25
X145.73Y-125.415
X145.731Y-127.315
X146.811Y-124.204
X146.812Y-120.269
X146.9Y-51.8
X147.0Y-131.0
X147.193Y-89.408
X147.193Y-102.87
X147.25Y-110.75
X147.25Y-113.75
X148.336Y-88.011
X148.463Y-89.408
X148.844Y-120.269
X148.906Y-128.397
X149.23Y-124.483
X149.733Y-101.6
X149.925Y-126.176
X150.368Y-106.045
X151.003Y-89.281
X151.003Y-101.6
X151.13Y-84.494
X151.13Y-142.24
X152.003Y-101.582
X152.208Y-123.19
X152.4Y-121.158
X152.4Y-129.264
X152.421Y-131.339
X152.5Y-51.8
X153.416Y-103.505
X153.543Y-89.281
X154.7Y-51.8
X156.083Y-89.2
X156.464Y-105.918
X158.0Y-83.75
X160.13Y-88.776
X160.528Y-86.614
X160.75Y-125.25
X161.549Y-120.25
X161.75Y-67.35
X161.986Y-55.306
X161.999Y-65.499
X162.53Y-62.82
X163.25Y-120.5
X163.25Y-124.5
X163.25Y-127.75
X163.25Y-130.25
X163.576Y-67.818
X163.75Y-78.75
X163.83Y-59.436
X164.084Y-55.372
X164.465Y-65.317
X165.354Y-52.07
X166.044Y-78.777
X166.624Y-59.436
X166.624Y-63.668
X167.25Y-90.25
X167.25Y-95.25
X167.25Y-98.5
X167.5Y-91.5
X167.75Y-68.25
X168.021Y-63.754
X169.0Y-66.0
X169.0Y-67.0
X169.0Y-69.0
X169.0Y-70.0
X169.418Y-59.436
X169.418Y-63.668
X170.5Y-102.25
X171.0Y-115.85
X171.099Y-117.151
X171.5Y-96.25
X171.5Y-102.25
X176.25Y-119.25
X178.562Y-62.0
X179.324Y-106.426
X179.553Y-83.5
X181.0Y-106.75
X182.096Y-84.836
X182.372Y-62.0
X182.372Y-101.6
X183.642Y-107.188
X185.039Y-101.6
X185.166Y-88.138
X186.436Y-89.408
X186.75Y-68.25
X187.048Y-87.5
X187.452Y-101.6
X187.579Y-89.408
X187.706Y-106.426
X188.849Y-89.408
X189.4Y-51.9
X189.484Y-73.75
X190.119Y-101.6
X191.389Y-89.408
X191.389Y-101.6
X191.6Y-51.9
X192.0Y-70.75
X192.25Y-69.25
X192.25Y-73.5
X192.532Y-125.222
X192.532Y-127.254
X193.548Y-123.952
X193.802Y-120.142
X194.0Y-131.0
X194.183Y-89.408
X194.183Y-103.124
X194.25Y-110.5
X194.25Y-113.5
X195.453Y-88.011
X195.453Y-89.408
X195.834Y-120.396
X195.952Y-128.409
X196.596Y-124.46
X196.723Y-101.727
X196.85Y-126.238
X197.374Y-105.934
X197.5Y-51.9
X197.993Y-89.281
X197.993Y-101.727
X198.12Y-84.582
X198.12Y-142.24
X199.136Y-101.6
X199.136Y-123.444
X199.39Y-121.158
X199.39Y-129.286
X199.39Y-131.318
X199.7Y-51.9
X200.533Y-89.154
X200.533Y-103.505
X203.073Y-89.281
X203.454Y-106.045
X205.0Y-83.75
X206.826Y-88.754
X206.944Y-55.306
X207.264Y-86.614
X207.75Y-125.25
X207.996Y-62.864
X208.556Y-120.306
X209.042Y-55.372
X209.15Y-67.078
X209.296Y-59.436
X209.296Y-63.668
X209.931Y-65.278
X210.0Y-127.75
X210.0Y-130.25
X210.25Y-124.5
X210.312Y-52.07
X210.75Y-78.5
X211.0Y-120.5
X212.09Y-59.436
X212.09Y-63.668
X212.75Y-78.5
X213.614Y-63.754
X214.0Y-96.25
X214.25Y-95.0
X214.65Y-89.75
X214.65Y-91.5
X214.884Y-59.436
X214.884Y-63.668
X214.884Y-67.818
X217.6Y-77.1
X218.4Y-109.2
X218.5Y-113.9
X219.3Y-79.2
X223.6Y-80.6
X227.203Y-65.405
X227.203Y-66.294
X227.203Y-67.183
X227.203Y-68.834
X227.203Y-69.85
X227.203Y-70.866
X227.203Y-71.882
X227.203Y-72.898
X227.203Y-74.676
X227.203Y-75.692
X227.203Y-76.708
T2
X108.3Y-138.98
X108.3Y-140.25
X108.3Y-141.52
X155.331Y-138.98
X155.331Y-140.25
X155.331Y-141.52
X202.331Y-138.98
X202.331Y-140.25
X202.331Y-141.52
T3
X83.463Y-77.606
X83.463Y-80.146
X83.463Y-87.766
X83.463Y-90.306
X83.463Y-92.846
X113.787Y-98.404
X113.787Y-100.944
X113.787Y-103.484
X113.787Y-111.104
X113.787Y-113.644
X130.463Y-77.606
X130.463Y-80.146
X130.463Y-87.766
X130.463Y-90.306
X130.463Y-92.846
X160.787Y-98.404
X160.787Y-100.944
X160.787Y-103.484
X160.787Y-111.104
X160.787Y-113.644
X177.463Y-77.606
X177.463Y-80.146
X177.463Y-87.766
X177.463Y-90.306
X177.463Y-92.846
X207.787Y-98.154
X207.787Y-100.694
X207.787Y-103.234
X207.787Y-110.854
X207.787Y-113.394
X225.15Y-86.975
X225.15Y-89.515
X225.15Y-94.595
X225.15Y-99.675
T4
X94.862Y-60.134
X94.862Y-63.134
X97.862Y-60.134
X97.862Y-63.134
X100.862Y-60.134
X100.862Y-63.134
X103.862Y-60.134
X103.862Y-63.134
X106.862Y-60.134
X106.862Y-63.134
X109.862Y-60.134
X109.862Y-63.134
X142.782Y-60.134
X142.782Y-63.134
X145.782Y-60.134
X145.782Y-63.134
X148.782Y-60.134
X148.782Y-63.134
X151.782Y-60.134
X151.782Y-63.134
X154.782Y-60.134
X154.782Y-63.134
X157.782Y-60.134
X157.782Y-63.134
X187.692Y-60.134
X187.692Y-63.134
X190.692Y-60.134
X190.692Y-63.134
X193.692Y-60.134
X193.692Y-63.134
X196.692Y-60.134
X196.692Y-63.134
X199.692Y-60.134
X199.692Y-63.134
X202.692Y-60.134
X202.692Y-63.134
T5
X220.726Y-68.199
X220.726Y-70.739
X220.726Y-73.279
T6
X87.75Y-71.35
X89.7Y-119.65
X93.75Y-119.65
X103.95Y-71.35
X108.0Y-71.35
X121.9Y-122.35
X123.3Y-104.35
X123.3Y-111.85
X134.75Y-71.35
X136.7Y-119.65
X140.75Y-119.65
X150.95Y-71.35
X155.0Y-71.35
X168.9Y-122.35
X170.3Y-104.35
X170.3Y-111.85
X181.75Y-71.35
X183.7Y-119.65
X187.75Y-119.65
X197.95Y-71.35
X202.0Y-71.35
X215.9Y-122.35
X217.3Y-104.35
X217.3Y-111.85
M30
