%TF.GenerationSoftware,KiCad,Pcbnew,9.0.1*%
%TF.CreationDate,2025-08-25T18:36:21+03:00*%
%TF.ProjectId,Adapter,41646170-7465-4722-9e6b-696361645f70,rev?*%
%TF.SameCoordinates,Original*%
%TF.FileFunction,Legend,Bot*%
%TF.FilePolarity,Positive*%
%FSLAX46Y46*%
G04 Gerber Fmt 4.6, Leading zero omitted, Abs format (unit mm)*
G04 Created by KiCad (PCBNEW 9.0.1) date 2025-08-25 18:36:21*
%MOMM*%
%LPD*%
G01*
G04 APERTURE LIST*
%ADD10C,0.100000*%
%ADD11C,0.150000*%
%ADD12C,0.300000*%
%ADD13C,0.400000*%
%ADD14C,0.120000*%
%TA.AperFunction,Profile*%
%ADD15C,0.500000*%
%TD*%
%TA.AperFunction,Profile*%
%ADD16C,0.100000*%
%TD*%
G04 APERTURE END LIST*
D10*
D11*
X299989000Y-253002200D02*
X407989000Y-253002200D01*
X407989000Y-285002200D01*
X299989000Y-285002200D01*
X299989000Y-253002200D01*
D10*
D11*
X10000000Y-10000000D02*
X409989000Y-10000000D01*
X409989000Y-287002200D01*
X10000000Y-287002200D01*
X10000000Y-10000000D01*
D10*
D11*
X12000000Y-12000000D02*
X407989000Y-12000000D01*
X407989000Y-285002200D01*
X12000000Y-285002200D01*
X12000000Y-12000000D01*
D10*
D11*
X60000000Y-12000000D02*
X60000000Y-10000000D01*
D10*
D11*
X110000000Y-12000000D02*
X110000000Y-10000000D01*
D10*
D11*
X160000000Y-12000000D02*
X160000000Y-10000000D01*
D10*
D11*
X210000000Y-12000000D02*
X210000000Y-10000000D01*
D10*
D11*
X260000000Y-12000000D02*
X260000000Y-10000000D01*
D10*
D11*
X310000000Y-12000000D02*
X310000000Y-10000000D01*
D10*
D11*
X360000000Y-12000000D02*
X360000000Y-10000000D01*
D10*
D11*
X36089160Y-11593604D02*
X35346303Y-11593604D01*
X35717731Y-11593604D02*
X35717731Y-10293604D01*
X35717731Y-10293604D02*
X35593922Y-10479319D01*
X35593922Y-10479319D02*
X35470112Y-10603128D01*
X35470112Y-10603128D02*
X35346303Y-10665033D01*
D10*
D11*
X85346303Y-10417414D02*
X85408207Y-10355509D01*
X85408207Y-10355509D02*
X85532017Y-10293604D01*
X85532017Y-10293604D02*
X85841541Y-10293604D01*
X85841541Y-10293604D02*
X85965350Y-10355509D01*
X85965350Y-10355509D02*
X86027255Y-10417414D01*
X86027255Y-10417414D02*
X86089160Y-10541223D01*
X86089160Y-10541223D02*
X86089160Y-10665033D01*
X86089160Y-10665033D02*
X86027255Y-10850747D01*
X86027255Y-10850747D02*
X85284398Y-11593604D01*
X85284398Y-11593604D02*
X86089160Y-11593604D01*
D10*
D11*
X135284398Y-10293604D02*
X136089160Y-10293604D01*
X136089160Y-10293604D02*
X135655826Y-10788842D01*
X135655826Y-10788842D02*
X135841541Y-10788842D01*
X135841541Y-10788842D02*
X135965350Y-10850747D01*
X135965350Y-10850747D02*
X136027255Y-10912652D01*
X136027255Y-10912652D02*
X136089160Y-11036461D01*
X136089160Y-11036461D02*
X136089160Y-11345985D01*
X136089160Y-11345985D02*
X136027255Y-11469795D01*
X136027255Y-11469795D02*
X135965350Y-11531700D01*
X135965350Y-11531700D02*
X135841541Y-11593604D01*
X135841541Y-11593604D02*
X135470112Y-11593604D01*
X135470112Y-11593604D02*
X135346303Y-11531700D01*
X135346303Y-11531700D02*
X135284398Y-11469795D01*
D10*
D11*
X185965350Y-10726938D02*
X185965350Y-11593604D01*
X185655826Y-10231700D02*
X185346303Y-11160271D01*
X185346303Y-11160271D02*
X186151064Y-11160271D01*
D10*
D11*
X236027255Y-10293604D02*
X235408207Y-10293604D01*
X235408207Y-10293604D02*
X235346303Y-10912652D01*
X235346303Y-10912652D02*
X235408207Y-10850747D01*
X235408207Y-10850747D02*
X235532017Y-10788842D01*
X235532017Y-10788842D02*
X235841541Y-10788842D01*
X235841541Y-10788842D02*
X235965350Y-10850747D01*
X235965350Y-10850747D02*
X236027255Y-10912652D01*
X236027255Y-10912652D02*
X236089160Y-11036461D01*
X236089160Y-11036461D02*
X236089160Y-11345985D01*
X236089160Y-11345985D02*
X236027255Y-11469795D01*
X236027255Y-11469795D02*
X235965350Y-11531700D01*
X235965350Y-11531700D02*
X235841541Y-11593604D01*
X235841541Y-11593604D02*
X235532017Y-11593604D01*
X235532017Y-11593604D02*
X235408207Y-11531700D01*
X235408207Y-11531700D02*
X235346303Y-11469795D01*
D10*
D11*
X285965350Y-10293604D02*
X285717731Y-10293604D01*
X285717731Y-10293604D02*
X285593922Y-10355509D01*
X285593922Y-10355509D02*
X285532017Y-10417414D01*
X285532017Y-10417414D02*
X285408207Y-10603128D01*
X285408207Y-10603128D02*
X285346303Y-10850747D01*
X285346303Y-10850747D02*
X285346303Y-11345985D01*
X285346303Y-11345985D02*
X285408207Y-11469795D01*
X285408207Y-11469795D02*
X285470112Y-11531700D01*
X285470112Y-11531700D02*
X285593922Y-11593604D01*
X285593922Y-11593604D02*
X285841541Y-11593604D01*
X285841541Y-11593604D02*
X285965350Y-11531700D01*
X285965350Y-11531700D02*
X286027255Y-11469795D01*
X286027255Y-11469795D02*
X286089160Y-11345985D01*
X286089160Y-11345985D02*
X286089160Y-11036461D01*
X286089160Y-11036461D02*
X286027255Y-10912652D01*
X286027255Y-10912652D02*
X285965350Y-10850747D01*
X285965350Y-10850747D02*
X285841541Y-10788842D01*
X285841541Y-10788842D02*
X285593922Y-10788842D01*
X285593922Y-10788842D02*
X285470112Y-10850747D01*
X285470112Y-10850747D02*
X285408207Y-10912652D01*
X285408207Y-10912652D02*
X285346303Y-11036461D01*
D10*
D11*
X335284398Y-10293604D02*
X336151064Y-10293604D01*
X336151064Y-10293604D02*
X335593922Y-11593604D01*
D10*
D11*
X385593922Y-10850747D02*
X385470112Y-10788842D01*
X385470112Y-10788842D02*
X385408207Y-10726938D01*
X385408207Y-10726938D02*
X385346303Y-10603128D01*
X385346303Y-10603128D02*
X385346303Y-10541223D01*
X385346303Y-10541223D02*
X385408207Y-10417414D01*
X385408207Y-10417414D02*
X385470112Y-10355509D01*
X385470112Y-10355509D02*
X385593922Y-10293604D01*
X385593922Y-10293604D02*
X385841541Y-10293604D01*
X385841541Y-10293604D02*
X385965350Y-10355509D01*
X385965350Y-10355509D02*
X386027255Y-10417414D01*
X386027255Y-10417414D02*
X386089160Y-10541223D01*
X386089160Y-10541223D02*
X386089160Y-10603128D01*
X386089160Y-10603128D02*
X386027255Y-10726938D01*
X386027255Y-10726938D02*
X385965350Y-10788842D01*
X385965350Y-10788842D02*
X385841541Y-10850747D01*
X385841541Y-10850747D02*
X385593922Y-10850747D01*
X385593922Y-10850747D02*
X385470112Y-10912652D01*
X385470112Y-10912652D02*
X385408207Y-10974557D01*
X385408207Y-10974557D02*
X385346303Y-11098366D01*
X385346303Y-11098366D02*
X385346303Y-11345985D01*
X385346303Y-11345985D02*
X385408207Y-11469795D01*
X385408207Y-11469795D02*
X385470112Y-11531700D01*
X385470112Y-11531700D02*
X385593922Y-11593604D01*
X385593922Y-11593604D02*
X385841541Y-11593604D01*
X385841541Y-11593604D02*
X385965350Y-11531700D01*
X385965350Y-11531700D02*
X386027255Y-11469795D01*
X386027255Y-11469795D02*
X386089160Y-11345985D01*
X386089160Y-11345985D02*
X386089160Y-11098366D01*
X386089160Y-11098366D02*
X386027255Y-10974557D01*
X386027255Y-10974557D02*
X385965350Y-10912652D01*
X385965350Y-10912652D02*
X385841541Y-10850747D01*
D10*
D11*
X60000000Y-285002200D02*
X60000000Y-287002200D01*
D10*
D11*
X110000000Y-285002200D02*
X110000000Y-287002200D01*
D10*
D11*
X160000000Y-285002200D02*
X160000000Y-287002200D01*
D10*
D11*
X210000000Y-285002200D02*
X210000000Y-287002200D01*
D10*
D11*
X260000000Y-285002200D02*
X260000000Y-287002200D01*
D10*
D11*
X310000000Y-285002200D02*
X310000000Y-287002200D01*
D10*
D11*
X360000000Y-285002200D02*
X360000000Y-287002200D01*
D10*
D11*
X36089160Y-286595804D02*
X35346303Y-286595804D01*
X35717731Y-286595804D02*
X35717731Y-285295804D01*
X35717731Y-285295804D02*
X35593922Y-285481519D01*
X35593922Y-285481519D02*
X35470112Y-285605328D01*
X35470112Y-285605328D02*
X35346303Y-285667233D01*
D10*
D11*
X85346303Y-285419614D02*
X85408207Y-285357709D01*
X85408207Y-285357709D02*
X85532017Y-285295804D01*
X85532017Y-285295804D02*
X85841541Y-285295804D01*
X85841541Y-285295804D02*
X85965350Y-285357709D01*
X85965350Y-285357709D02*
X86027255Y-285419614D01*
X86027255Y-285419614D02*
X86089160Y-285543423D01*
X86089160Y-285543423D02*
X86089160Y-285667233D01*
X86089160Y-285667233D02*
X86027255Y-285852947D01*
X86027255Y-285852947D02*
X85284398Y-286595804D01*
X85284398Y-286595804D02*
X86089160Y-286595804D01*
D10*
D11*
X135284398Y-285295804D02*
X136089160Y-285295804D01*
X136089160Y-285295804D02*
X135655826Y-285791042D01*
X135655826Y-285791042D02*
X135841541Y-285791042D01*
X135841541Y-285791042D02*
X135965350Y-285852947D01*
X135965350Y-285852947D02*
X136027255Y-285914852D01*
X136027255Y-285914852D02*
X136089160Y-286038661D01*
X136089160Y-286038661D02*
X136089160Y-286348185D01*
X136089160Y-286348185D02*
X136027255Y-286471995D01*
X136027255Y-286471995D02*
X135965350Y-286533900D01*
X135965350Y-286533900D02*
X135841541Y-286595804D01*
X135841541Y-286595804D02*
X135470112Y-286595804D01*
X135470112Y-286595804D02*
X135346303Y-286533900D01*
X135346303Y-286533900D02*
X135284398Y-286471995D01*
D10*
D11*
X185965350Y-285729138D02*
X185965350Y-286595804D01*
X185655826Y-285233900D02*
X185346303Y-286162471D01*
X185346303Y-286162471D02*
X186151064Y-286162471D01*
D10*
D11*
X236027255Y-285295804D02*
X235408207Y-285295804D01*
X235408207Y-285295804D02*
X235346303Y-285914852D01*
X235346303Y-285914852D02*
X235408207Y-285852947D01*
X235408207Y-285852947D02*
X235532017Y-285791042D01*
X235532017Y-285791042D02*
X235841541Y-285791042D01*
X235841541Y-285791042D02*
X235965350Y-285852947D01*
X235965350Y-285852947D02*
X236027255Y-285914852D01*
X236027255Y-285914852D02*
X236089160Y-286038661D01*
X236089160Y-286038661D02*
X236089160Y-286348185D01*
X236089160Y-286348185D02*
X236027255Y-286471995D01*
X236027255Y-286471995D02*
X235965350Y-286533900D01*
X235965350Y-286533900D02*
X235841541Y-286595804D01*
X235841541Y-286595804D02*
X235532017Y-286595804D01*
X235532017Y-286595804D02*
X235408207Y-286533900D01*
X235408207Y-286533900D02*
X235346303Y-286471995D01*
D10*
D11*
X285965350Y-285295804D02*
X285717731Y-285295804D01*
X285717731Y-285295804D02*
X285593922Y-285357709D01*
X285593922Y-285357709D02*
X285532017Y-285419614D01*
X285532017Y-285419614D02*
X285408207Y-285605328D01*
X285408207Y-285605328D02*
X285346303Y-285852947D01*
X285346303Y-285852947D02*
X285346303Y-286348185D01*
X285346303Y-286348185D02*
X285408207Y-286471995D01*
X285408207Y-286471995D02*
X285470112Y-286533900D01*
X285470112Y-286533900D02*
X285593922Y-286595804D01*
X285593922Y-286595804D02*
X285841541Y-286595804D01*
X285841541Y-286595804D02*
X285965350Y-286533900D01*
X285965350Y-286533900D02*
X286027255Y-286471995D01*
X286027255Y-286471995D02*
X286089160Y-286348185D01*
X286089160Y-286348185D02*
X286089160Y-286038661D01*
X286089160Y-286038661D02*
X286027255Y-285914852D01*
X286027255Y-285914852D02*
X285965350Y-285852947D01*
X285965350Y-285852947D02*
X285841541Y-285791042D01*
X285841541Y-285791042D02*
X285593922Y-285791042D01*
X285593922Y-285791042D02*
X285470112Y-285852947D01*
X285470112Y-285852947D02*
X285408207Y-285914852D01*
X285408207Y-285914852D02*
X285346303Y-286038661D01*
D10*
D11*
X335284398Y-285295804D02*
X336151064Y-285295804D01*
X336151064Y-285295804D02*
X335593922Y-286595804D01*
D10*
D11*
X385593922Y-285852947D02*
X385470112Y-285791042D01*
X385470112Y-285791042D02*
X385408207Y-285729138D01*
X385408207Y-285729138D02*
X385346303Y-285605328D01*
X385346303Y-285605328D02*
X385346303Y-285543423D01*
X385346303Y-285543423D02*
X385408207Y-285419614D01*
X385408207Y-285419614D02*
X385470112Y-285357709D01*
X385470112Y-285357709D02*
X385593922Y-285295804D01*
X385593922Y-285295804D02*
X385841541Y-285295804D01*
X385841541Y-285295804D02*
X385965350Y-285357709D01*
X385965350Y-285357709D02*
X386027255Y-285419614D01*
X386027255Y-285419614D02*
X386089160Y-285543423D01*
X386089160Y-285543423D02*
X386089160Y-285605328D01*
X386089160Y-285605328D02*
X386027255Y-285729138D01*
X386027255Y-285729138D02*
X385965350Y-285791042D01*
X385965350Y-285791042D02*
X385841541Y-285852947D01*
X385841541Y-285852947D02*
X385593922Y-285852947D01*
X385593922Y-285852947D02*
X385470112Y-285914852D01*
X385470112Y-285914852D02*
X385408207Y-285976757D01*
X385408207Y-285976757D02*
X385346303Y-286100566D01*
X385346303Y-286100566D02*
X385346303Y-286348185D01*
X385346303Y-286348185D02*
X385408207Y-286471995D01*
X385408207Y-286471995D02*
X385470112Y-286533900D01*
X385470112Y-286533900D02*
X385593922Y-286595804D01*
X385593922Y-286595804D02*
X385841541Y-286595804D01*
X385841541Y-286595804D02*
X385965350Y-286533900D01*
X385965350Y-286533900D02*
X386027255Y-286471995D01*
X386027255Y-286471995D02*
X386089160Y-286348185D01*
X386089160Y-286348185D02*
X386089160Y-286100566D01*
X386089160Y-286100566D02*
X386027255Y-285976757D01*
X386027255Y-285976757D02*
X385965350Y-285914852D01*
X385965350Y-285914852D02*
X385841541Y-285852947D01*
D10*
D11*
X10000000Y-60000000D02*
X12000000Y-60000000D01*
D10*
D11*
X10000000Y-110000000D02*
X12000000Y-110000000D01*
D10*
D11*
X10000000Y-160000000D02*
X12000000Y-160000000D01*
D10*
D11*
X10000000Y-210000000D02*
X12000000Y-210000000D01*
D10*
D11*
X10000000Y-260000000D02*
X12000000Y-260000000D01*
D10*
D11*
X10690476Y-35222176D02*
X11309523Y-35222176D01*
X10566666Y-35593604D02*
X10999999Y-34293604D01*
X10999999Y-34293604D02*
X11433333Y-35593604D01*
D10*
D11*
X11092857Y-84912652D02*
X11278571Y-84974557D01*
X11278571Y-84974557D02*
X11340476Y-85036461D01*
X11340476Y-85036461D02*
X11402380Y-85160271D01*
X11402380Y-85160271D02*
X11402380Y-85345985D01*
X11402380Y-85345985D02*
X11340476Y-85469795D01*
X11340476Y-85469795D02*
X11278571Y-85531700D01*
X11278571Y-85531700D02*
X11154761Y-85593604D01*
X11154761Y-85593604D02*
X10659523Y-85593604D01*
X10659523Y-85593604D02*
X10659523Y-84293604D01*
X10659523Y-84293604D02*
X11092857Y-84293604D01*
X11092857Y-84293604D02*
X11216666Y-84355509D01*
X11216666Y-84355509D02*
X11278571Y-84417414D01*
X11278571Y-84417414D02*
X11340476Y-84541223D01*
X11340476Y-84541223D02*
X11340476Y-84665033D01*
X11340476Y-84665033D02*
X11278571Y-84788842D01*
X11278571Y-84788842D02*
X11216666Y-84850747D01*
X11216666Y-84850747D02*
X11092857Y-84912652D01*
X11092857Y-84912652D02*
X10659523Y-84912652D01*
D10*
D11*
X11402380Y-135469795D02*
X11340476Y-135531700D01*
X11340476Y-135531700D02*
X11154761Y-135593604D01*
X11154761Y-135593604D02*
X11030952Y-135593604D01*
X11030952Y-135593604D02*
X10845238Y-135531700D01*
X10845238Y-135531700D02*
X10721428Y-135407890D01*
X10721428Y-135407890D02*
X10659523Y-135284080D01*
X10659523Y-135284080D02*
X10597619Y-135036461D01*
X10597619Y-135036461D02*
X10597619Y-134850747D01*
X10597619Y-134850747D02*
X10659523Y-134603128D01*
X10659523Y-134603128D02*
X10721428Y-134479319D01*
X10721428Y-134479319D02*
X10845238Y-134355509D01*
X10845238Y-134355509D02*
X11030952Y-134293604D01*
X11030952Y-134293604D02*
X11154761Y-134293604D01*
X11154761Y-134293604D02*
X11340476Y-134355509D01*
X11340476Y-134355509D02*
X11402380Y-134417414D01*
D10*
D11*
X10659523Y-185593604D02*
X10659523Y-184293604D01*
X10659523Y-184293604D02*
X10969047Y-184293604D01*
X10969047Y-184293604D02*
X11154761Y-184355509D01*
X11154761Y-184355509D02*
X11278571Y-184479319D01*
X11278571Y-184479319D02*
X11340476Y-184603128D01*
X11340476Y-184603128D02*
X11402380Y-184850747D01*
X11402380Y-184850747D02*
X11402380Y-185036461D01*
X11402380Y-185036461D02*
X11340476Y-185284080D01*
X11340476Y-185284080D02*
X11278571Y-185407890D01*
X11278571Y-185407890D02*
X11154761Y-185531700D01*
X11154761Y-185531700D02*
X10969047Y-185593604D01*
X10969047Y-185593604D02*
X10659523Y-185593604D01*
D10*
D11*
X10721428Y-234912652D02*
X11154762Y-234912652D01*
X11340476Y-235593604D02*
X10721428Y-235593604D01*
X10721428Y-235593604D02*
X10721428Y-234293604D01*
X10721428Y-234293604D02*
X11340476Y-234293604D01*
D10*
D11*
X11185714Y-284912652D02*
X10752380Y-284912652D01*
X10752380Y-285593604D02*
X10752380Y-284293604D01*
X10752380Y-284293604D02*
X11371428Y-284293604D01*
D10*
D11*
X409989000Y-60000000D02*
X407989000Y-60000000D01*
D10*
D11*
X409989000Y-110000000D02*
X407989000Y-110000000D01*
D10*
D11*
X409989000Y-160000000D02*
X407989000Y-160000000D01*
D10*
D11*
X409989000Y-210000000D02*
X407989000Y-210000000D01*
D10*
D11*
X409989000Y-260000000D02*
X407989000Y-260000000D01*
D10*
D11*
X408679476Y-35222176D02*
X409298523Y-35222176D01*
X408555666Y-35593604D02*
X408988999Y-34293604D01*
X408988999Y-34293604D02*
X409422333Y-35593604D01*
D10*
D11*
X409081857Y-84912652D02*
X409267571Y-84974557D01*
X409267571Y-84974557D02*
X409329476Y-85036461D01*
X409329476Y-85036461D02*
X409391380Y-85160271D01*
X409391380Y-85160271D02*
X409391380Y-85345985D01*
X409391380Y-85345985D02*
X409329476Y-85469795D01*
X409329476Y-85469795D02*
X409267571Y-85531700D01*
X409267571Y-85531700D02*
X409143761Y-85593604D01*
X409143761Y-85593604D02*
X408648523Y-85593604D01*
X408648523Y-85593604D02*
X408648523Y-84293604D01*
X408648523Y-84293604D02*
X409081857Y-84293604D01*
X409081857Y-84293604D02*
X409205666Y-84355509D01*
X409205666Y-84355509D02*
X409267571Y-84417414D01*
X409267571Y-84417414D02*
X409329476Y-84541223D01*
X409329476Y-84541223D02*
X409329476Y-84665033D01*
X409329476Y-84665033D02*
X409267571Y-84788842D01*
X409267571Y-84788842D02*
X409205666Y-84850747D01*
X409205666Y-84850747D02*
X409081857Y-84912652D01*
X409081857Y-84912652D02*
X408648523Y-84912652D01*
D10*
D11*
X409391380Y-135469795D02*
X409329476Y-135531700D01*
X409329476Y-135531700D02*
X409143761Y-135593604D01*
X409143761Y-135593604D02*
X409019952Y-135593604D01*
X409019952Y-135593604D02*
X408834238Y-135531700D01*
X408834238Y-135531700D02*
X408710428Y-135407890D01*
X408710428Y-135407890D02*
X408648523Y-135284080D01*
X408648523Y-135284080D02*
X408586619Y-135036461D01*
X408586619Y-135036461D02*
X408586619Y-134850747D01*
X408586619Y-134850747D02*
X408648523Y-134603128D01*
X408648523Y-134603128D02*
X408710428Y-134479319D01*
X408710428Y-134479319D02*
X408834238Y-134355509D01*
X408834238Y-134355509D02*
X409019952Y-134293604D01*
X409019952Y-134293604D02*
X409143761Y-134293604D01*
X409143761Y-134293604D02*
X409329476Y-134355509D01*
X409329476Y-134355509D02*
X409391380Y-134417414D01*
D10*
D11*
X408648523Y-185593604D02*
X408648523Y-184293604D01*
X408648523Y-184293604D02*
X408958047Y-184293604D01*
X408958047Y-184293604D02*
X409143761Y-184355509D01*
X409143761Y-184355509D02*
X409267571Y-184479319D01*
X409267571Y-184479319D02*
X409329476Y-184603128D01*
X409329476Y-184603128D02*
X409391380Y-184850747D01*
X409391380Y-184850747D02*
X409391380Y-185036461D01*
X409391380Y-185036461D02*
X409329476Y-185284080D01*
X409329476Y-185284080D02*
X409267571Y-185407890D01*
X409267571Y-185407890D02*
X409143761Y-185531700D01*
X409143761Y-185531700D02*
X408958047Y-185593604D01*
X408958047Y-185593604D02*
X408648523Y-185593604D01*
D10*
D11*
X408710428Y-234912652D02*
X409143762Y-234912652D01*
X409329476Y-235593604D02*
X408710428Y-235593604D01*
X408710428Y-235593604D02*
X408710428Y-234293604D01*
X408710428Y-234293604D02*
X409329476Y-234293604D01*
D10*
D11*
X409174714Y-284912652D02*
X408741380Y-284912652D01*
X408741380Y-285593604D02*
X408741380Y-284293604D01*
X408741380Y-284293604D02*
X409360428Y-284293604D01*
D10*
D11*
X323444826Y-280788328D02*
X323444826Y-279288328D01*
X323444826Y-279288328D02*
X323801969Y-279288328D01*
X323801969Y-279288328D02*
X324016255Y-279359757D01*
X324016255Y-279359757D02*
X324159112Y-279502614D01*
X324159112Y-279502614D02*
X324230541Y-279645471D01*
X324230541Y-279645471D02*
X324301969Y-279931185D01*
X324301969Y-279931185D02*
X324301969Y-280145471D01*
X324301969Y-280145471D02*
X324230541Y-280431185D01*
X324230541Y-280431185D02*
X324159112Y-280574042D01*
X324159112Y-280574042D02*
X324016255Y-280716900D01*
X324016255Y-280716900D02*
X323801969Y-280788328D01*
X323801969Y-280788328D02*
X323444826Y-280788328D01*
X325587684Y-280788328D02*
X325587684Y-280002614D01*
X325587684Y-280002614D02*
X325516255Y-279859757D01*
X325516255Y-279859757D02*
X325373398Y-279788328D01*
X325373398Y-279788328D02*
X325087684Y-279788328D01*
X325087684Y-279788328D02*
X324944826Y-279859757D01*
X325587684Y-280716900D02*
X325444826Y-280788328D01*
X325444826Y-280788328D02*
X325087684Y-280788328D01*
X325087684Y-280788328D02*
X324944826Y-280716900D01*
X324944826Y-280716900D02*
X324873398Y-280574042D01*
X324873398Y-280574042D02*
X324873398Y-280431185D01*
X324873398Y-280431185D02*
X324944826Y-280288328D01*
X324944826Y-280288328D02*
X325087684Y-280216900D01*
X325087684Y-280216900D02*
X325444826Y-280216900D01*
X325444826Y-280216900D02*
X325587684Y-280145471D01*
X326087684Y-279788328D02*
X326659112Y-279788328D01*
X326301969Y-279288328D02*
X326301969Y-280574042D01*
X326301969Y-280574042D02*
X326373398Y-280716900D01*
X326373398Y-280716900D02*
X326516255Y-280788328D01*
X326516255Y-280788328D02*
X326659112Y-280788328D01*
X327730541Y-280716900D02*
X327587684Y-280788328D01*
X327587684Y-280788328D02*
X327301970Y-280788328D01*
X327301970Y-280788328D02*
X327159112Y-280716900D01*
X327159112Y-280716900D02*
X327087684Y-280574042D01*
X327087684Y-280574042D02*
X327087684Y-280002614D01*
X327087684Y-280002614D02*
X327159112Y-279859757D01*
X327159112Y-279859757D02*
X327301970Y-279788328D01*
X327301970Y-279788328D02*
X327587684Y-279788328D01*
X327587684Y-279788328D02*
X327730541Y-279859757D01*
X327730541Y-279859757D02*
X327801970Y-280002614D01*
X327801970Y-280002614D02*
X327801970Y-280145471D01*
X327801970Y-280145471D02*
X327087684Y-280288328D01*
X328444826Y-280645471D02*
X328516255Y-280716900D01*
X328516255Y-280716900D02*
X328444826Y-280788328D01*
X328444826Y-280788328D02*
X328373398Y-280716900D01*
X328373398Y-280716900D02*
X328444826Y-280645471D01*
X328444826Y-280645471D02*
X328444826Y-280788328D01*
X328444826Y-279859757D02*
X328516255Y-279931185D01*
X328516255Y-279931185D02*
X328444826Y-280002614D01*
X328444826Y-280002614D02*
X328373398Y-279931185D01*
X328373398Y-279931185D02*
X328444826Y-279859757D01*
X328444826Y-279859757D02*
X328444826Y-280002614D01*
X330230541Y-279431185D02*
X330301969Y-279359757D01*
X330301969Y-279359757D02*
X330444827Y-279288328D01*
X330444827Y-279288328D02*
X330801969Y-279288328D01*
X330801969Y-279288328D02*
X330944827Y-279359757D01*
X330944827Y-279359757D02*
X331016255Y-279431185D01*
X331016255Y-279431185D02*
X331087684Y-279574042D01*
X331087684Y-279574042D02*
X331087684Y-279716900D01*
X331087684Y-279716900D02*
X331016255Y-279931185D01*
X331016255Y-279931185D02*
X330159112Y-280788328D01*
X330159112Y-280788328D02*
X331087684Y-280788328D01*
X332016255Y-279288328D02*
X332159112Y-279288328D01*
X332159112Y-279288328D02*
X332301969Y-279359757D01*
X332301969Y-279359757D02*
X332373398Y-279431185D01*
X332373398Y-279431185D02*
X332444826Y-279574042D01*
X332444826Y-279574042D02*
X332516255Y-279859757D01*
X332516255Y-279859757D02*
X332516255Y-280216900D01*
X332516255Y-280216900D02*
X332444826Y-280502614D01*
X332444826Y-280502614D02*
X332373398Y-280645471D01*
X332373398Y-280645471D02*
X332301969Y-280716900D01*
X332301969Y-280716900D02*
X332159112Y-280788328D01*
X332159112Y-280788328D02*
X332016255Y-280788328D01*
X332016255Y-280788328D02*
X331873398Y-280716900D01*
X331873398Y-280716900D02*
X331801969Y-280645471D01*
X331801969Y-280645471D02*
X331730540Y-280502614D01*
X331730540Y-280502614D02*
X331659112Y-280216900D01*
X331659112Y-280216900D02*
X331659112Y-279859757D01*
X331659112Y-279859757D02*
X331730540Y-279574042D01*
X331730540Y-279574042D02*
X331801969Y-279431185D01*
X331801969Y-279431185D02*
X331873398Y-279359757D01*
X331873398Y-279359757D02*
X332016255Y-279288328D01*
X333087683Y-279431185D02*
X333159111Y-279359757D01*
X333159111Y-279359757D02*
X333301969Y-279288328D01*
X333301969Y-279288328D02*
X333659111Y-279288328D01*
X333659111Y-279288328D02*
X333801969Y-279359757D01*
X333801969Y-279359757D02*
X333873397Y-279431185D01*
X333873397Y-279431185D02*
X333944826Y-279574042D01*
X333944826Y-279574042D02*
X333944826Y-279716900D01*
X333944826Y-279716900D02*
X333873397Y-279931185D01*
X333873397Y-279931185D02*
X333016254Y-280788328D01*
X333016254Y-280788328D02*
X333944826Y-280788328D01*
X335301968Y-279288328D02*
X334587682Y-279288328D01*
X334587682Y-279288328D02*
X334516254Y-280002614D01*
X334516254Y-280002614D02*
X334587682Y-279931185D01*
X334587682Y-279931185D02*
X334730540Y-279859757D01*
X334730540Y-279859757D02*
X335087682Y-279859757D01*
X335087682Y-279859757D02*
X335230540Y-279931185D01*
X335230540Y-279931185D02*
X335301968Y-280002614D01*
X335301968Y-280002614D02*
X335373397Y-280145471D01*
X335373397Y-280145471D02*
X335373397Y-280502614D01*
X335373397Y-280502614D02*
X335301968Y-280645471D01*
X335301968Y-280645471D02*
X335230540Y-280716900D01*
X335230540Y-280716900D02*
X335087682Y-280788328D01*
X335087682Y-280788328D02*
X334730540Y-280788328D01*
X334730540Y-280788328D02*
X334587682Y-280716900D01*
X334587682Y-280716900D02*
X334516254Y-280645471D01*
X336016253Y-280216900D02*
X337159111Y-280216900D01*
X338159111Y-279288328D02*
X338301968Y-279288328D01*
X338301968Y-279288328D02*
X338444825Y-279359757D01*
X338444825Y-279359757D02*
X338516254Y-279431185D01*
X338516254Y-279431185D02*
X338587682Y-279574042D01*
X338587682Y-279574042D02*
X338659111Y-279859757D01*
X338659111Y-279859757D02*
X338659111Y-280216900D01*
X338659111Y-280216900D02*
X338587682Y-280502614D01*
X338587682Y-280502614D02*
X338516254Y-280645471D01*
X338516254Y-280645471D02*
X338444825Y-280716900D01*
X338444825Y-280716900D02*
X338301968Y-280788328D01*
X338301968Y-280788328D02*
X338159111Y-280788328D01*
X338159111Y-280788328D02*
X338016254Y-280716900D01*
X338016254Y-280716900D02*
X337944825Y-280645471D01*
X337944825Y-280645471D02*
X337873396Y-280502614D01*
X337873396Y-280502614D02*
X337801968Y-280216900D01*
X337801968Y-280216900D02*
X337801968Y-279859757D01*
X337801968Y-279859757D02*
X337873396Y-279574042D01*
X337873396Y-279574042D02*
X337944825Y-279431185D01*
X337944825Y-279431185D02*
X338016254Y-279359757D01*
X338016254Y-279359757D02*
X338159111Y-279288328D01*
X339944825Y-279288328D02*
X339659110Y-279288328D01*
X339659110Y-279288328D02*
X339516253Y-279359757D01*
X339516253Y-279359757D02*
X339444825Y-279431185D01*
X339444825Y-279431185D02*
X339301967Y-279645471D01*
X339301967Y-279645471D02*
X339230539Y-279931185D01*
X339230539Y-279931185D02*
X339230539Y-280502614D01*
X339230539Y-280502614D02*
X339301967Y-280645471D01*
X339301967Y-280645471D02*
X339373396Y-280716900D01*
X339373396Y-280716900D02*
X339516253Y-280788328D01*
X339516253Y-280788328D02*
X339801967Y-280788328D01*
X339801967Y-280788328D02*
X339944825Y-280716900D01*
X339944825Y-280716900D02*
X340016253Y-280645471D01*
X340016253Y-280645471D02*
X340087682Y-280502614D01*
X340087682Y-280502614D02*
X340087682Y-280145471D01*
X340087682Y-280145471D02*
X340016253Y-280002614D01*
X340016253Y-280002614D02*
X339944825Y-279931185D01*
X339944825Y-279931185D02*
X339801967Y-279859757D01*
X339801967Y-279859757D02*
X339516253Y-279859757D01*
X339516253Y-279859757D02*
X339373396Y-279931185D01*
X339373396Y-279931185D02*
X339301967Y-280002614D01*
X339301967Y-280002614D02*
X339230539Y-280145471D01*
X340730538Y-280216900D02*
X341873396Y-280216900D01*
X342873396Y-279288328D02*
X343016253Y-279288328D01*
X343016253Y-279288328D02*
X343159110Y-279359757D01*
X343159110Y-279359757D02*
X343230539Y-279431185D01*
X343230539Y-279431185D02*
X343301967Y-279574042D01*
X343301967Y-279574042D02*
X343373396Y-279859757D01*
X343373396Y-279859757D02*
X343373396Y-280216900D01*
X343373396Y-280216900D02*
X343301967Y-280502614D01*
X343301967Y-280502614D02*
X343230539Y-280645471D01*
X343230539Y-280645471D02*
X343159110Y-280716900D01*
X343159110Y-280716900D02*
X343016253Y-280788328D01*
X343016253Y-280788328D02*
X342873396Y-280788328D01*
X342873396Y-280788328D02*
X342730539Y-280716900D01*
X342730539Y-280716900D02*
X342659110Y-280645471D01*
X342659110Y-280645471D02*
X342587681Y-280502614D01*
X342587681Y-280502614D02*
X342516253Y-280216900D01*
X342516253Y-280216900D02*
X342516253Y-279859757D01*
X342516253Y-279859757D02*
X342587681Y-279574042D01*
X342587681Y-279574042D02*
X342659110Y-279431185D01*
X342659110Y-279431185D02*
X342730539Y-279359757D01*
X342730539Y-279359757D02*
X342873396Y-279288328D01*
X344659110Y-279788328D02*
X344659110Y-280788328D01*
X344301967Y-279216900D02*
X343944824Y-280288328D01*
X343944824Y-280288328D02*
X344873395Y-280288328D01*
D10*
D11*
X299989000Y-281502200D02*
X407989000Y-281502200D01*
D10*
D11*
X301444826Y-283588328D02*
X301444826Y-282088328D01*
X302301969Y-283588328D02*
X301659112Y-282731185D01*
X302301969Y-282088328D02*
X301444826Y-282945471D01*
X302944826Y-283588328D02*
X302944826Y-282588328D01*
X302944826Y-282088328D02*
X302873398Y-282159757D01*
X302873398Y-282159757D02*
X302944826Y-282231185D01*
X302944826Y-282231185D02*
X303016255Y-282159757D01*
X303016255Y-282159757D02*
X302944826Y-282088328D01*
X302944826Y-282088328D02*
X302944826Y-282231185D01*
X304516255Y-283445471D02*
X304444827Y-283516900D01*
X304444827Y-283516900D02*
X304230541Y-283588328D01*
X304230541Y-283588328D02*
X304087684Y-283588328D01*
X304087684Y-283588328D02*
X303873398Y-283516900D01*
X303873398Y-283516900D02*
X303730541Y-283374042D01*
X303730541Y-283374042D02*
X303659112Y-283231185D01*
X303659112Y-283231185D02*
X303587684Y-282945471D01*
X303587684Y-282945471D02*
X303587684Y-282731185D01*
X303587684Y-282731185D02*
X303659112Y-282445471D01*
X303659112Y-282445471D02*
X303730541Y-282302614D01*
X303730541Y-282302614D02*
X303873398Y-282159757D01*
X303873398Y-282159757D02*
X304087684Y-282088328D01*
X304087684Y-282088328D02*
X304230541Y-282088328D01*
X304230541Y-282088328D02*
X304444827Y-282159757D01*
X304444827Y-282159757D02*
X304516255Y-282231185D01*
X305801970Y-283588328D02*
X305801970Y-282802614D01*
X305801970Y-282802614D02*
X305730541Y-282659757D01*
X305730541Y-282659757D02*
X305587684Y-282588328D01*
X305587684Y-282588328D02*
X305301970Y-282588328D01*
X305301970Y-282588328D02*
X305159112Y-282659757D01*
X305801970Y-283516900D02*
X305659112Y-283588328D01*
X305659112Y-283588328D02*
X305301970Y-283588328D01*
X305301970Y-283588328D02*
X305159112Y-283516900D01*
X305159112Y-283516900D02*
X305087684Y-283374042D01*
X305087684Y-283374042D02*
X305087684Y-283231185D01*
X305087684Y-283231185D02*
X305159112Y-283088328D01*
X305159112Y-283088328D02*
X305301970Y-283016900D01*
X305301970Y-283016900D02*
X305659112Y-283016900D01*
X305659112Y-283016900D02*
X305801970Y-282945471D01*
X307159113Y-283588328D02*
X307159113Y-282088328D01*
X307159113Y-283516900D02*
X307016255Y-283588328D01*
X307016255Y-283588328D02*
X306730541Y-283588328D01*
X306730541Y-283588328D02*
X306587684Y-283516900D01*
X306587684Y-283516900D02*
X306516255Y-283445471D01*
X306516255Y-283445471D02*
X306444827Y-283302614D01*
X306444827Y-283302614D02*
X306444827Y-282874042D01*
X306444827Y-282874042D02*
X306516255Y-282731185D01*
X306516255Y-282731185D02*
X306587684Y-282659757D01*
X306587684Y-282659757D02*
X306730541Y-282588328D01*
X306730541Y-282588328D02*
X307016255Y-282588328D01*
X307016255Y-282588328D02*
X307159113Y-282659757D01*
X309016255Y-282802614D02*
X309516255Y-282802614D01*
X309730541Y-283588328D02*
X309016255Y-283588328D01*
X309016255Y-283588328D02*
X309016255Y-282088328D01*
X309016255Y-282088328D02*
X309730541Y-282088328D01*
X310373398Y-283445471D02*
X310444827Y-283516900D01*
X310444827Y-283516900D02*
X310373398Y-283588328D01*
X310373398Y-283588328D02*
X310301970Y-283516900D01*
X310301970Y-283516900D02*
X310373398Y-283445471D01*
X310373398Y-283445471D02*
X310373398Y-283588328D01*
X311087684Y-283588328D02*
X311087684Y-282088328D01*
X311087684Y-282088328D02*
X311444827Y-282088328D01*
X311444827Y-282088328D02*
X311659113Y-282159757D01*
X311659113Y-282159757D02*
X311801970Y-282302614D01*
X311801970Y-282302614D02*
X311873399Y-282445471D01*
X311873399Y-282445471D02*
X311944827Y-282731185D01*
X311944827Y-282731185D02*
X311944827Y-282945471D01*
X311944827Y-282945471D02*
X311873399Y-283231185D01*
X311873399Y-283231185D02*
X311801970Y-283374042D01*
X311801970Y-283374042D02*
X311659113Y-283516900D01*
X311659113Y-283516900D02*
X311444827Y-283588328D01*
X311444827Y-283588328D02*
X311087684Y-283588328D01*
X312587684Y-283445471D02*
X312659113Y-283516900D01*
X312659113Y-283516900D02*
X312587684Y-283588328D01*
X312587684Y-283588328D02*
X312516256Y-283516900D01*
X312516256Y-283516900D02*
X312587684Y-283445471D01*
X312587684Y-283445471D02*
X312587684Y-283588328D01*
X313230542Y-283159757D02*
X313944828Y-283159757D01*
X313087685Y-283588328D02*
X313587685Y-282088328D01*
X313587685Y-282088328D02*
X314087685Y-283588328D01*
X314587684Y-283445471D02*
X314659113Y-283516900D01*
X314659113Y-283516900D02*
X314587684Y-283588328D01*
X314587684Y-283588328D02*
X314516256Y-283516900D01*
X314516256Y-283516900D02*
X314587684Y-283445471D01*
X314587684Y-283445471D02*
X314587684Y-283588328D01*
X316516256Y-283588328D02*
X316801970Y-283588328D01*
X316801970Y-283588328D02*
X316944827Y-283516900D01*
X316944827Y-283516900D02*
X317016256Y-283445471D01*
X317016256Y-283445471D02*
X317159113Y-283231185D01*
X317159113Y-283231185D02*
X317230542Y-282945471D01*
X317230542Y-282945471D02*
X317230542Y-282374042D01*
X317230542Y-282374042D02*
X317159113Y-282231185D01*
X317159113Y-282231185D02*
X317087685Y-282159757D01*
X317087685Y-282159757D02*
X316944827Y-282088328D01*
X316944827Y-282088328D02*
X316659113Y-282088328D01*
X316659113Y-282088328D02*
X316516256Y-282159757D01*
X316516256Y-282159757D02*
X316444827Y-282231185D01*
X316444827Y-282231185D02*
X316373399Y-282374042D01*
X316373399Y-282374042D02*
X316373399Y-282731185D01*
X316373399Y-282731185D02*
X316444827Y-282874042D01*
X316444827Y-282874042D02*
X316516256Y-282945471D01*
X316516256Y-282945471D02*
X316659113Y-283016900D01*
X316659113Y-283016900D02*
X316944827Y-283016900D01*
X316944827Y-283016900D02*
X317087685Y-282945471D01*
X317087685Y-282945471D02*
X317159113Y-282874042D01*
X317159113Y-282874042D02*
X317230542Y-282731185D01*
X317873398Y-283445471D02*
X317944827Y-283516900D01*
X317944827Y-283516900D02*
X317873398Y-283588328D01*
X317873398Y-283588328D02*
X317801970Y-283516900D01*
X317801970Y-283516900D02*
X317873398Y-283445471D01*
X317873398Y-283445471D02*
X317873398Y-283588328D01*
X318873399Y-282088328D02*
X319016256Y-282088328D01*
X319016256Y-282088328D02*
X319159113Y-282159757D01*
X319159113Y-282159757D02*
X319230542Y-282231185D01*
X319230542Y-282231185D02*
X319301970Y-282374042D01*
X319301970Y-282374042D02*
X319373399Y-282659757D01*
X319373399Y-282659757D02*
X319373399Y-283016900D01*
X319373399Y-283016900D02*
X319301970Y-283302614D01*
X319301970Y-283302614D02*
X319230542Y-283445471D01*
X319230542Y-283445471D02*
X319159113Y-283516900D01*
X319159113Y-283516900D02*
X319016256Y-283588328D01*
X319016256Y-283588328D02*
X318873399Y-283588328D01*
X318873399Y-283588328D02*
X318730542Y-283516900D01*
X318730542Y-283516900D02*
X318659113Y-283445471D01*
X318659113Y-283445471D02*
X318587684Y-283302614D01*
X318587684Y-283302614D02*
X318516256Y-283016900D01*
X318516256Y-283016900D02*
X318516256Y-282659757D01*
X318516256Y-282659757D02*
X318587684Y-282374042D01*
X318587684Y-282374042D02*
X318659113Y-282231185D01*
X318659113Y-282231185D02*
X318730542Y-282159757D01*
X318730542Y-282159757D02*
X318873399Y-282088328D01*
X320016255Y-283445471D02*
X320087684Y-283516900D01*
X320087684Y-283516900D02*
X320016255Y-283588328D01*
X320016255Y-283588328D02*
X319944827Y-283516900D01*
X319944827Y-283516900D02*
X320016255Y-283445471D01*
X320016255Y-283445471D02*
X320016255Y-283588328D01*
X321516256Y-283588328D02*
X320659113Y-283588328D01*
X321087684Y-283588328D02*
X321087684Y-282088328D01*
X321087684Y-282088328D02*
X320944827Y-282302614D01*
X320944827Y-282302614D02*
X320801970Y-282445471D01*
X320801970Y-282445471D02*
X320659113Y-282516900D01*
D10*
D11*
X299989000Y-278502200D02*
X407989000Y-278502200D01*
D10*
D12*
X387400653Y-280780528D02*
X386900653Y-280066242D01*
X386543510Y-280780528D02*
X386543510Y-279280528D01*
X386543510Y-279280528D02*
X387114939Y-279280528D01*
X387114939Y-279280528D02*
X387257796Y-279351957D01*
X387257796Y-279351957D02*
X387329225Y-279423385D01*
X387329225Y-279423385D02*
X387400653Y-279566242D01*
X387400653Y-279566242D02*
X387400653Y-279780528D01*
X387400653Y-279780528D02*
X387329225Y-279923385D01*
X387329225Y-279923385D02*
X387257796Y-279994814D01*
X387257796Y-279994814D02*
X387114939Y-280066242D01*
X387114939Y-280066242D02*
X386543510Y-280066242D01*
X388614939Y-280709100D02*
X388472082Y-280780528D01*
X388472082Y-280780528D02*
X388186368Y-280780528D01*
X388186368Y-280780528D02*
X388043510Y-280709100D01*
X388043510Y-280709100D02*
X387972082Y-280566242D01*
X387972082Y-280566242D02*
X387972082Y-279994814D01*
X387972082Y-279994814D02*
X388043510Y-279851957D01*
X388043510Y-279851957D02*
X388186368Y-279780528D01*
X388186368Y-279780528D02*
X388472082Y-279780528D01*
X388472082Y-279780528D02*
X388614939Y-279851957D01*
X388614939Y-279851957D02*
X388686368Y-279994814D01*
X388686368Y-279994814D02*
X388686368Y-280137671D01*
X388686368Y-280137671D02*
X387972082Y-280280528D01*
X389186367Y-279780528D02*
X389543510Y-280780528D01*
X389543510Y-280780528D02*
X389900653Y-279780528D01*
X390472081Y-280637671D02*
X390543510Y-280709100D01*
X390543510Y-280709100D02*
X390472081Y-280780528D01*
X390472081Y-280780528D02*
X390400653Y-280709100D01*
X390400653Y-280709100D02*
X390472081Y-280637671D01*
X390472081Y-280637671D02*
X390472081Y-280780528D01*
X390472081Y-279851957D02*
X390543510Y-279923385D01*
X390543510Y-279923385D02*
X390472081Y-279994814D01*
X390472081Y-279994814D02*
X390400653Y-279923385D01*
X390400653Y-279923385D02*
X390472081Y-279851957D01*
X390472081Y-279851957D02*
X390472081Y-279994814D01*
D10*
D11*
X301373398Y-280716900D02*
X301587684Y-280788328D01*
X301587684Y-280788328D02*
X301944826Y-280788328D01*
X301944826Y-280788328D02*
X302087684Y-280716900D01*
X302087684Y-280716900D02*
X302159112Y-280645471D01*
X302159112Y-280645471D02*
X302230541Y-280502614D01*
X302230541Y-280502614D02*
X302230541Y-280359757D01*
X302230541Y-280359757D02*
X302159112Y-280216900D01*
X302159112Y-280216900D02*
X302087684Y-280145471D01*
X302087684Y-280145471D02*
X301944826Y-280074042D01*
X301944826Y-280074042D02*
X301659112Y-280002614D01*
X301659112Y-280002614D02*
X301516255Y-279931185D01*
X301516255Y-279931185D02*
X301444826Y-279859757D01*
X301444826Y-279859757D02*
X301373398Y-279716900D01*
X301373398Y-279716900D02*
X301373398Y-279574042D01*
X301373398Y-279574042D02*
X301444826Y-279431185D01*
X301444826Y-279431185D02*
X301516255Y-279359757D01*
X301516255Y-279359757D02*
X301659112Y-279288328D01*
X301659112Y-279288328D02*
X302016255Y-279288328D01*
X302016255Y-279288328D02*
X302230541Y-279359757D01*
X302873397Y-280788328D02*
X302873397Y-279788328D01*
X302873397Y-279288328D02*
X302801969Y-279359757D01*
X302801969Y-279359757D02*
X302873397Y-279431185D01*
X302873397Y-279431185D02*
X302944826Y-279359757D01*
X302944826Y-279359757D02*
X302873397Y-279288328D01*
X302873397Y-279288328D02*
X302873397Y-279431185D01*
X303444826Y-279788328D02*
X304230541Y-279788328D01*
X304230541Y-279788328D02*
X303444826Y-280788328D01*
X303444826Y-280788328D02*
X304230541Y-280788328D01*
X305373398Y-280716900D02*
X305230541Y-280788328D01*
X305230541Y-280788328D02*
X304944827Y-280788328D01*
X304944827Y-280788328D02*
X304801969Y-280716900D01*
X304801969Y-280716900D02*
X304730541Y-280574042D01*
X304730541Y-280574042D02*
X304730541Y-280002614D01*
X304730541Y-280002614D02*
X304801969Y-279859757D01*
X304801969Y-279859757D02*
X304944827Y-279788328D01*
X304944827Y-279788328D02*
X305230541Y-279788328D01*
X305230541Y-279788328D02*
X305373398Y-279859757D01*
X305373398Y-279859757D02*
X305444827Y-280002614D01*
X305444827Y-280002614D02*
X305444827Y-280145471D01*
X305444827Y-280145471D02*
X304730541Y-280288328D01*
X306087683Y-280645471D02*
X306159112Y-280716900D01*
X306159112Y-280716900D02*
X306087683Y-280788328D01*
X306087683Y-280788328D02*
X306016255Y-280716900D01*
X306016255Y-280716900D02*
X306087683Y-280645471D01*
X306087683Y-280645471D02*
X306087683Y-280788328D01*
X306087683Y-279859757D02*
X306159112Y-279931185D01*
X306159112Y-279931185D02*
X306087683Y-280002614D01*
X306087683Y-280002614D02*
X306016255Y-279931185D01*
X306016255Y-279931185D02*
X306087683Y-279859757D01*
X306087683Y-279859757D02*
X306087683Y-280002614D01*
X307873398Y-280359757D02*
X308587684Y-280359757D01*
X307730541Y-280788328D02*
X308230541Y-279288328D01*
X308230541Y-279288328D02*
X308730541Y-280788328D01*
X309087683Y-279288328D02*
X310016255Y-279288328D01*
X310016255Y-279288328D02*
X309516255Y-279859757D01*
X309516255Y-279859757D02*
X309730540Y-279859757D01*
X309730540Y-279859757D02*
X309873398Y-279931185D01*
X309873398Y-279931185D02*
X309944826Y-280002614D01*
X309944826Y-280002614D02*
X310016255Y-280145471D01*
X310016255Y-280145471D02*
X310016255Y-280502614D01*
X310016255Y-280502614D02*
X309944826Y-280645471D01*
X309944826Y-280645471D02*
X309873398Y-280716900D01*
X309873398Y-280716900D02*
X309730540Y-280788328D01*
X309730540Y-280788328D02*
X309301969Y-280788328D01*
X309301969Y-280788328D02*
X309159112Y-280716900D01*
X309159112Y-280716900D02*
X309087683Y-280645471D01*
D10*
D11*
X386444826Y-283588328D02*
X386444826Y-282088328D01*
X387801970Y-283588328D02*
X387801970Y-282088328D01*
X387801970Y-283516900D02*
X387659112Y-283588328D01*
X387659112Y-283588328D02*
X387373398Y-283588328D01*
X387373398Y-283588328D02*
X387230541Y-283516900D01*
X387230541Y-283516900D02*
X387159112Y-283445471D01*
X387159112Y-283445471D02*
X387087684Y-283302614D01*
X387087684Y-283302614D02*
X387087684Y-282874042D01*
X387087684Y-282874042D02*
X387159112Y-282731185D01*
X387159112Y-282731185D02*
X387230541Y-282659757D01*
X387230541Y-282659757D02*
X387373398Y-282588328D01*
X387373398Y-282588328D02*
X387659112Y-282588328D01*
X387659112Y-282588328D02*
X387801970Y-282659757D01*
X388516255Y-283445471D02*
X388587684Y-283516900D01*
X388587684Y-283516900D02*
X388516255Y-283588328D01*
X388516255Y-283588328D02*
X388444827Y-283516900D01*
X388444827Y-283516900D02*
X388516255Y-283445471D01*
X388516255Y-283445471D02*
X388516255Y-283588328D01*
X388516255Y-282659757D02*
X388587684Y-282731185D01*
X388587684Y-282731185D02*
X388516255Y-282802614D01*
X388516255Y-282802614D02*
X388444827Y-282731185D01*
X388444827Y-282731185D02*
X388516255Y-282659757D01*
X388516255Y-282659757D02*
X388516255Y-282802614D01*
X391159113Y-283588328D02*
X390301970Y-283588328D01*
X390730541Y-283588328D02*
X390730541Y-282088328D01*
X390730541Y-282088328D02*
X390587684Y-282302614D01*
X390587684Y-282302614D02*
X390444827Y-282445471D01*
X390444827Y-282445471D02*
X390301970Y-282516900D01*
X392087684Y-282088328D02*
X392230541Y-282088328D01*
X392230541Y-282088328D02*
X392373398Y-282159757D01*
X392373398Y-282159757D02*
X392444827Y-282231185D01*
X392444827Y-282231185D02*
X392516255Y-282374042D01*
X392516255Y-282374042D02*
X392587684Y-282659757D01*
X392587684Y-282659757D02*
X392587684Y-283016900D01*
X392587684Y-283016900D02*
X392516255Y-283302614D01*
X392516255Y-283302614D02*
X392444827Y-283445471D01*
X392444827Y-283445471D02*
X392373398Y-283516900D01*
X392373398Y-283516900D02*
X392230541Y-283588328D01*
X392230541Y-283588328D02*
X392087684Y-283588328D01*
X392087684Y-283588328D02*
X391944827Y-283516900D01*
X391944827Y-283516900D02*
X391873398Y-283445471D01*
X391873398Y-283445471D02*
X391801969Y-283302614D01*
X391801969Y-283302614D02*
X391730541Y-283016900D01*
X391730541Y-283016900D02*
X391730541Y-282659757D01*
X391730541Y-282659757D02*
X391801969Y-282374042D01*
X391801969Y-282374042D02*
X391873398Y-282231185D01*
X391873398Y-282231185D02*
X391944827Y-282159757D01*
X391944827Y-282159757D02*
X392087684Y-282088328D01*
X394301969Y-282016900D02*
X393016255Y-283945471D01*
X395587684Y-283588328D02*
X394730541Y-283588328D01*
X395159112Y-283588328D02*
X395159112Y-282088328D01*
X395159112Y-282088328D02*
X395016255Y-282302614D01*
X395016255Y-282302614D02*
X394873398Y-282445471D01*
X394873398Y-282445471D02*
X394730541Y-282516900D01*
X396087683Y-282088328D02*
X397016255Y-282088328D01*
X397016255Y-282088328D02*
X396516255Y-282659757D01*
X396516255Y-282659757D02*
X396730540Y-282659757D01*
X396730540Y-282659757D02*
X396873398Y-282731185D01*
X396873398Y-282731185D02*
X396944826Y-282802614D01*
X396944826Y-282802614D02*
X397016255Y-282945471D01*
X397016255Y-282945471D02*
X397016255Y-283302614D01*
X397016255Y-283302614D02*
X396944826Y-283445471D01*
X396944826Y-283445471D02*
X396873398Y-283516900D01*
X396873398Y-283516900D02*
X396730540Y-283588328D01*
X396730540Y-283588328D02*
X396301969Y-283588328D01*
X396301969Y-283588328D02*
X396159112Y-283516900D01*
X396159112Y-283516900D02*
X396087683Y-283445471D01*
D10*
D11*
X299989000Y-274502200D02*
X407989000Y-274502200D01*
D10*
D13*
X301680728Y-275206638D02*
X302823585Y-275206638D01*
X302002157Y-277206638D02*
X302252157Y-275206638D01*
X303240252Y-277206638D02*
X303406919Y-275873304D01*
X303490252Y-275206638D02*
X303383109Y-275301876D01*
X303383109Y-275301876D02*
X303466443Y-275397114D01*
X303466443Y-275397114D02*
X303573586Y-275301876D01*
X303573586Y-275301876D02*
X303490252Y-275206638D01*
X303490252Y-275206638D02*
X303466443Y-275397114D01*
X304073586Y-275873304D02*
X304835490Y-275873304D01*
X304442633Y-275206638D02*
X304228348Y-276920923D01*
X304228348Y-276920923D02*
X304299776Y-277111400D01*
X304299776Y-277111400D02*
X304478348Y-277206638D01*
X304478348Y-277206638D02*
X304668824Y-277206638D01*
X305621205Y-277206638D02*
X305442633Y-277111400D01*
X305442633Y-277111400D02*
X305371205Y-276920923D01*
X305371205Y-276920923D02*
X305585490Y-275206638D01*
X307156919Y-277111400D02*
X306954538Y-277206638D01*
X306954538Y-277206638D02*
X306573585Y-277206638D01*
X306573585Y-277206638D02*
X306395014Y-277111400D01*
X306395014Y-277111400D02*
X306323585Y-276920923D01*
X306323585Y-276920923D02*
X306418824Y-276159019D01*
X306418824Y-276159019D02*
X306537871Y-275968542D01*
X306537871Y-275968542D02*
X306740252Y-275873304D01*
X306740252Y-275873304D02*
X307121204Y-275873304D01*
X307121204Y-275873304D02*
X307299776Y-275968542D01*
X307299776Y-275968542D02*
X307371204Y-276159019D01*
X307371204Y-276159019D02*
X307347395Y-276349495D01*
X307347395Y-276349495D02*
X306371204Y-276539971D01*
X308121205Y-277016161D02*
X308204538Y-277111400D01*
X308204538Y-277111400D02*
X308097395Y-277206638D01*
X308097395Y-277206638D02*
X308014062Y-277111400D01*
X308014062Y-277111400D02*
X308121205Y-277016161D01*
X308121205Y-277016161D02*
X308097395Y-277206638D01*
X308252157Y-275968542D02*
X308335490Y-276063780D01*
X308335490Y-276063780D02*
X308228348Y-276159019D01*
X308228348Y-276159019D02*
X308145014Y-276063780D01*
X308145014Y-276063780D02*
X308252157Y-275968542D01*
X308252157Y-275968542D02*
X308228348Y-276159019D01*
X310537872Y-275206638D02*
X311680729Y-275206638D01*
X310859301Y-277206638D02*
X311109301Y-275206638D01*
X312097396Y-277206638D02*
X312347396Y-275206638D01*
X312954539Y-277206638D02*
X313085491Y-276159019D01*
X313085491Y-276159019D02*
X313014063Y-275968542D01*
X313014063Y-275968542D02*
X312835491Y-275873304D01*
X312835491Y-275873304D02*
X312549777Y-275873304D01*
X312549777Y-275873304D02*
X312347396Y-275968542D01*
X312347396Y-275968542D02*
X312240253Y-276063780D01*
X313906920Y-277206638D02*
X314073587Y-275873304D01*
X314025968Y-276254257D02*
X314145015Y-276063780D01*
X314145015Y-276063780D02*
X314252158Y-275968542D01*
X314252158Y-275968542D02*
X314454539Y-275873304D01*
X314454539Y-275873304D02*
X314645015Y-275873304D01*
X315918825Y-277111400D02*
X315716444Y-277206638D01*
X315716444Y-277206638D02*
X315335491Y-277206638D01*
X315335491Y-277206638D02*
X315156920Y-277111400D01*
X315156920Y-277111400D02*
X315085491Y-276920923D01*
X315085491Y-276920923D02*
X315180730Y-276159019D01*
X315180730Y-276159019D02*
X315299777Y-275968542D01*
X315299777Y-275968542D02*
X315502158Y-275873304D01*
X315502158Y-275873304D02*
X315883110Y-275873304D01*
X315883110Y-275873304D02*
X316061682Y-275968542D01*
X316061682Y-275968542D02*
X316133110Y-276159019D01*
X316133110Y-276159019D02*
X316109301Y-276349495D01*
X316109301Y-276349495D02*
X315133110Y-276539971D01*
X317633111Y-277111400D02*
X317430730Y-277206638D01*
X317430730Y-277206638D02*
X317049777Y-277206638D01*
X317049777Y-277206638D02*
X316871206Y-277111400D01*
X316871206Y-277111400D02*
X316799777Y-276920923D01*
X316799777Y-276920923D02*
X316895016Y-276159019D01*
X316895016Y-276159019D02*
X317014063Y-275968542D01*
X317014063Y-275968542D02*
X317216444Y-275873304D01*
X317216444Y-275873304D02*
X317597396Y-275873304D01*
X317597396Y-275873304D02*
X317775968Y-275968542D01*
X317775968Y-275968542D02*
X317847396Y-276159019D01*
X317847396Y-276159019D02*
X317823587Y-276349495D01*
X317823587Y-276349495D02*
X316847396Y-276539971D01*
X320097397Y-277206638D02*
X320347397Y-275206638D01*
X320347397Y-275206638D02*
X321109302Y-275206638D01*
X321109302Y-275206638D02*
X321287873Y-275301876D01*
X321287873Y-275301876D02*
X321371207Y-275397114D01*
X321371207Y-275397114D02*
X321442635Y-275587590D01*
X321442635Y-275587590D02*
X321406921Y-275873304D01*
X321406921Y-275873304D02*
X321287873Y-276063780D01*
X321287873Y-276063780D02*
X321180731Y-276159019D01*
X321180731Y-276159019D02*
X320978350Y-276254257D01*
X320978350Y-276254257D02*
X320216445Y-276254257D01*
X322097397Y-277206638D02*
X322347397Y-275206638D01*
X322954540Y-277206638D02*
X323085492Y-276159019D01*
X323085492Y-276159019D02*
X323014064Y-275968542D01*
X323014064Y-275968542D02*
X322835492Y-275873304D01*
X322835492Y-275873304D02*
X322549778Y-275873304D01*
X322549778Y-275873304D02*
X322347397Y-275968542D01*
X322347397Y-275968542D02*
X322240254Y-276063780D01*
X324764064Y-277206638D02*
X324895016Y-276159019D01*
X324895016Y-276159019D02*
X324823588Y-275968542D01*
X324823588Y-275968542D02*
X324645016Y-275873304D01*
X324645016Y-275873304D02*
X324264064Y-275873304D01*
X324264064Y-275873304D02*
X324061683Y-275968542D01*
X324775969Y-277111400D02*
X324573588Y-277206638D01*
X324573588Y-277206638D02*
X324097397Y-277206638D01*
X324097397Y-277206638D02*
X323918826Y-277111400D01*
X323918826Y-277111400D02*
X323847397Y-276920923D01*
X323847397Y-276920923D02*
X323871207Y-276730447D01*
X323871207Y-276730447D02*
X323990255Y-276539971D01*
X323990255Y-276539971D02*
X324192636Y-276444733D01*
X324192636Y-276444733D02*
X324668826Y-276444733D01*
X324668826Y-276444733D02*
X324871207Y-276349495D01*
X325633112Y-277111400D02*
X325811683Y-277206638D01*
X325811683Y-277206638D02*
X326192636Y-277206638D01*
X326192636Y-277206638D02*
X326395017Y-277111400D01*
X326395017Y-277111400D02*
X326514064Y-276920923D01*
X326514064Y-276920923D02*
X326525969Y-276825685D01*
X326525969Y-276825685D02*
X326454540Y-276635209D01*
X326454540Y-276635209D02*
X326275969Y-276539971D01*
X326275969Y-276539971D02*
X325990255Y-276539971D01*
X325990255Y-276539971D02*
X325811683Y-276444733D01*
X325811683Y-276444733D02*
X325740255Y-276254257D01*
X325740255Y-276254257D02*
X325752160Y-276159019D01*
X325752160Y-276159019D02*
X325871207Y-275968542D01*
X325871207Y-275968542D02*
X326073588Y-275873304D01*
X326073588Y-275873304D02*
X326359302Y-275873304D01*
X326359302Y-275873304D02*
X326537874Y-275968542D01*
X328109303Y-277111400D02*
X327906922Y-277206638D01*
X327906922Y-277206638D02*
X327525969Y-277206638D01*
X327525969Y-277206638D02*
X327347398Y-277111400D01*
X327347398Y-277111400D02*
X327275969Y-276920923D01*
X327275969Y-276920923D02*
X327371208Y-276159019D01*
X327371208Y-276159019D02*
X327490255Y-275968542D01*
X327490255Y-275968542D02*
X327692636Y-275873304D01*
X327692636Y-275873304D02*
X328073588Y-275873304D01*
X328073588Y-275873304D02*
X328252160Y-275968542D01*
X328252160Y-275968542D02*
X328323588Y-276159019D01*
X328323588Y-276159019D02*
X328299779Y-276349495D01*
X328299779Y-276349495D02*
X327323588Y-276539971D01*
X330573589Y-277206638D02*
X330823589Y-275206638D01*
X330823589Y-275206638D02*
X331299780Y-275206638D01*
X331299780Y-275206638D02*
X331573589Y-275301876D01*
X331573589Y-275301876D02*
X331740256Y-275492352D01*
X331740256Y-275492352D02*
X331811684Y-275682828D01*
X331811684Y-275682828D02*
X331859304Y-276063780D01*
X331859304Y-276063780D02*
X331823589Y-276349495D01*
X331823589Y-276349495D02*
X331680732Y-276730447D01*
X331680732Y-276730447D02*
X331561684Y-276920923D01*
X331561684Y-276920923D02*
X331347399Y-277111400D01*
X331347399Y-277111400D02*
X331049780Y-277206638D01*
X331049780Y-277206638D02*
X330573589Y-277206638D01*
X332573589Y-277206638D02*
X332740256Y-275873304D01*
X332692637Y-276254257D02*
X332811684Y-276063780D01*
X332811684Y-276063780D02*
X332918827Y-275968542D01*
X332918827Y-275968542D02*
X333121208Y-275873304D01*
X333121208Y-275873304D02*
X333311684Y-275873304D01*
X333811684Y-277206638D02*
X333978351Y-275873304D01*
X334061684Y-275206638D02*
X333954541Y-275301876D01*
X333954541Y-275301876D02*
X334037875Y-275397114D01*
X334037875Y-275397114D02*
X334145018Y-275301876D01*
X334145018Y-275301876D02*
X334061684Y-275206638D01*
X334061684Y-275206638D02*
X334037875Y-275397114D01*
X334740256Y-275873304D02*
X335049780Y-277206638D01*
X335049780Y-277206638D02*
X335692637Y-275873304D01*
X337061685Y-277111400D02*
X336859304Y-277206638D01*
X336859304Y-277206638D02*
X336478351Y-277206638D01*
X336478351Y-277206638D02*
X336299780Y-277111400D01*
X336299780Y-277111400D02*
X336228351Y-276920923D01*
X336228351Y-276920923D02*
X336323590Y-276159019D01*
X336323590Y-276159019D02*
X336442637Y-275968542D01*
X336442637Y-275968542D02*
X336645018Y-275873304D01*
X336645018Y-275873304D02*
X337025970Y-275873304D01*
X337025970Y-275873304D02*
X337204542Y-275968542D01*
X337204542Y-275968542D02*
X337275970Y-276159019D01*
X337275970Y-276159019D02*
X337252161Y-276349495D01*
X337252161Y-276349495D02*
X336275970Y-276539971D01*
X338002161Y-277206638D02*
X338168828Y-275873304D01*
X338121209Y-276254257D02*
X338240256Y-276063780D01*
X338240256Y-276063780D02*
X338347399Y-275968542D01*
X338347399Y-275968542D02*
X338549780Y-275873304D01*
X338549780Y-275873304D02*
X338740256Y-275873304D01*
X340728352Y-275206638D02*
X341145019Y-277206638D01*
X341145019Y-277206638D02*
X342061685Y-275206638D01*
X342609305Y-276159019D02*
X343275971Y-276159019D01*
X343430733Y-277206638D02*
X342478352Y-277206638D01*
X342478352Y-277206638D02*
X342728352Y-275206638D01*
X342728352Y-275206638D02*
X343680733Y-275206638D01*
X345430733Y-277206638D02*
X344883114Y-276254257D01*
X344287876Y-277206638D02*
X344537876Y-275206638D01*
X344537876Y-275206638D02*
X345299781Y-275206638D01*
X345299781Y-275206638D02*
X345478352Y-275301876D01*
X345478352Y-275301876D02*
X345561686Y-275397114D01*
X345561686Y-275397114D02*
X345633114Y-275587590D01*
X345633114Y-275587590D02*
X345597400Y-275873304D01*
X345597400Y-275873304D02*
X345478352Y-276063780D01*
X345478352Y-276063780D02*
X345371210Y-276159019D01*
X345371210Y-276159019D02*
X345168829Y-276254257D01*
X345168829Y-276254257D02*
X344406924Y-276254257D01*
X346418829Y-275397114D02*
X346525971Y-275301876D01*
X346525971Y-275301876D02*
X346728352Y-275206638D01*
X346728352Y-275206638D02*
X347204543Y-275206638D01*
X347204543Y-275206638D02*
X347383114Y-275301876D01*
X347383114Y-275301876D02*
X347466448Y-275397114D01*
X347466448Y-275397114D02*
X347537876Y-275587590D01*
X347537876Y-275587590D02*
X347514067Y-275778066D01*
X347514067Y-275778066D02*
X347383114Y-276063780D01*
X347383114Y-276063780D02*
X346097400Y-277206638D01*
X346097400Y-277206638D02*
X347335495Y-277206638D01*
X348216448Y-277016161D02*
X348299781Y-277111400D01*
X348299781Y-277111400D02*
X348192638Y-277206638D01*
X348192638Y-277206638D02*
X348109305Y-277111400D01*
X348109305Y-277111400D02*
X348216448Y-277016161D01*
X348216448Y-277016161D02*
X348192638Y-277206638D01*
X349275972Y-275397114D02*
X349383114Y-275301876D01*
X349383114Y-275301876D02*
X349585495Y-275206638D01*
X349585495Y-275206638D02*
X350061686Y-275206638D01*
X350061686Y-275206638D02*
X350240257Y-275301876D01*
X350240257Y-275301876D02*
X350323591Y-275397114D01*
X350323591Y-275397114D02*
X350395019Y-275587590D01*
X350395019Y-275587590D02*
X350371210Y-275778066D01*
X350371210Y-275778066D02*
X350240257Y-276063780D01*
X350240257Y-276063780D02*
X348954543Y-277206638D01*
X348954543Y-277206638D02*
X350192638Y-277206638D01*
X351073591Y-277016161D02*
X351156924Y-277111400D01*
X351156924Y-277111400D02*
X351049781Y-277206638D01*
X351049781Y-277206638D02*
X350966448Y-277111400D01*
X350966448Y-277111400D02*
X351073591Y-277016161D01*
X351073591Y-277016161D02*
X351049781Y-277206638D01*
X353049781Y-277206638D02*
X351906924Y-277206638D01*
X352478353Y-277206638D02*
X352728353Y-275206638D01*
X352728353Y-275206638D02*
X352502162Y-275492352D01*
X352502162Y-275492352D02*
X352287877Y-275682828D01*
X352287877Y-275682828D02*
X352085496Y-275778066D01*
D10*
D11*
X301944826Y-272602614D02*
X301444826Y-272602614D01*
X301444826Y-273388328D02*
X301444826Y-271888328D01*
X301444826Y-271888328D02*
X302159112Y-271888328D01*
X302730540Y-273388328D02*
X302730540Y-272388328D01*
X302730540Y-271888328D02*
X302659112Y-271959757D01*
X302659112Y-271959757D02*
X302730540Y-272031185D01*
X302730540Y-272031185D02*
X302801969Y-271959757D01*
X302801969Y-271959757D02*
X302730540Y-271888328D01*
X302730540Y-271888328D02*
X302730540Y-272031185D01*
X303659112Y-273388328D02*
X303516255Y-273316900D01*
X303516255Y-273316900D02*
X303444826Y-273174042D01*
X303444826Y-273174042D02*
X303444826Y-271888328D01*
X304801969Y-273316900D02*
X304659112Y-273388328D01*
X304659112Y-273388328D02*
X304373398Y-273388328D01*
X304373398Y-273388328D02*
X304230540Y-273316900D01*
X304230540Y-273316900D02*
X304159112Y-273174042D01*
X304159112Y-273174042D02*
X304159112Y-272602614D01*
X304159112Y-272602614D02*
X304230540Y-272459757D01*
X304230540Y-272459757D02*
X304373398Y-272388328D01*
X304373398Y-272388328D02*
X304659112Y-272388328D01*
X304659112Y-272388328D02*
X304801969Y-272459757D01*
X304801969Y-272459757D02*
X304873398Y-272602614D01*
X304873398Y-272602614D02*
X304873398Y-272745471D01*
X304873398Y-272745471D02*
X304159112Y-272888328D01*
X305516254Y-273245471D02*
X305587683Y-273316900D01*
X305587683Y-273316900D02*
X305516254Y-273388328D01*
X305516254Y-273388328D02*
X305444826Y-273316900D01*
X305444826Y-273316900D02*
X305516254Y-273245471D01*
X305516254Y-273245471D02*
X305516254Y-273388328D01*
X305516254Y-272459757D02*
X305587683Y-272531185D01*
X305587683Y-272531185D02*
X305516254Y-272602614D01*
X305516254Y-272602614D02*
X305444826Y-272531185D01*
X305444826Y-272531185D02*
X305516254Y-272459757D01*
X305516254Y-272459757D02*
X305516254Y-272602614D01*
X307301969Y-272959757D02*
X308016255Y-272959757D01*
X307159112Y-273388328D02*
X307659112Y-271888328D01*
X307659112Y-271888328D02*
X308159112Y-273388328D01*
X309301969Y-273388328D02*
X309301969Y-271888328D01*
X309301969Y-273316900D02*
X309159111Y-273388328D01*
X309159111Y-273388328D02*
X308873397Y-273388328D01*
X308873397Y-273388328D02*
X308730540Y-273316900D01*
X308730540Y-273316900D02*
X308659111Y-273245471D01*
X308659111Y-273245471D02*
X308587683Y-273102614D01*
X308587683Y-273102614D02*
X308587683Y-272674042D01*
X308587683Y-272674042D02*
X308659111Y-272531185D01*
X308659111Y-272531185D02*
X308730540Y-272459757D01*
X308730540Y-272459757D02*
X308873397Y-272388328D01*
X308873397Y-272388328D02*
X309159111Y-272388328D01*
X309159111Y-272388328D02*
X309301969Y-272459757D01*
X310659112Y-273388328D02*
X310659112Y-272602614D01*
X310659112Y-272602614D02*
X310587683Y-272459757D01*
X310587683Y-272459757D02*
X310444826Y-272388328D01*
X310444826Y-272388328D02*
X310159112Y-272388328D01*
X310159112Y-272388328D02*
X310016254Y-272459757D01*
X310659112Y-273316900D02*
X310516254Y-273388328D01*
X310516254Y-273388328D02*
X310159112Y-273388328D01*
X310159112Y-273388328D02*
X310016254Y-273316900D01*
X310016254Y-273316900D02*
X309944826Y-273174042D01*
X309944826Y-273174042D02*
X309944826Y-273031185D01*
X309944826Y-273031185D02*
X310016254Y-272888328D01*
X310016254Y-272888328D02*
X310159112Y-272816900D01*
X310159112Y-272816900D02*
X310516254Y-272816900D01*
X310516254Y-272816900D02*
X310659112Y-272745471D01*
X311373397Y-272388328D02*
X311373397Y-273888328D01*
X311373397Y-272459757D02*
X311516255Y-272388328D01*
X311516255Y-272388328D02*
X311801969Y-272388328D01*
X311801969Y-272388328D02*
X311944826Y-272459757D01*
X311944826Y-272459757D02*
X312016255Y-272531185D01*
X312016255Y-272531185D02*
X312087683Y-272674042D01*
X312087683Y-272674042D02*
X312087683Y-273102614D01*
X312087683Y-273102614D02*
X312016255Y-273245471D01*
X312016255Y-273245471D02*
X311944826Y-273316900D01*
X311944826Y-273316900D02*
X311801969Y-273388328D01*
X311801969Y-273388328D02*
X311516255Y-273388328D01*
X311516255Y-273388328D02*
X311373397Y-273316900D01*
X312516255Y-272388328D02*
X313087683Y-272388328D01*
X312730540Y-271888328D02*
X312730540Y-273174042D01*
X312730540Y-273174042D02*
X312801969Y-273316900D01*
X312801969Y-273316900D02*
X312944826Y-273388328D01*
X312944826Y-273388328D02*
X313087683Y-273388328D01*
X314159112Y-273316900D02*
X314016255Y-273388328D01*
X314016255Y-273388328D02*
X313730541Y-273388328D01*
X313730541Y-273388328D02*
X313587683Y-273316900D01*
X313587683Y-273316900D02*
X313516255Y-273174042D01*
X313516255Y-273174042D02*
X313516255Y-272602614D01*
X313516255Y-272602614D02*
X313587683Y-272459757D01*
X313587683Y-272459757D02*
X313730541Y-272388328D01*
X313730541Y-272388328D02*
X314016255Y-272388328D01*
X314016255Y-272388328D02*
X314159112Y-272459757D01*
X314159112Y-272459757D02*
X314230541Y-272602614D01*
X314230541Y-272602614D02*
X314230541Y-272745471D01*
X314230541Y-272745471D02*
X313516255Y-272888328D01*
X314873397Y-273388328D02*
X314873397Y-272388328D01*
X314873397Y-272674042D02*
X314944826Y-272531185D01*
X314944826Y-272531185D02*
X315016255Y-272459757D01*
X315016255Y-272459757D02*
X315159112Y-272388328D01*
X315159112Y-272388328D02*
X315301969Y-272388328D01*
X315801968Y-273245471D02*
X315873397Y-273316900D01*
X315873397Y-273316900D02*
X315801968Y-273388328D01*
X315801968Y-273388328D02*
X315730540Y-273316900D01*
X315730540Y-273316900D02*
X315801968Y-273245471D01*
X315801968Y-273245471D02*
X315801968Y-273388328D01*
X316516254Y-273388328D02*
X316516254Y-271888328D01*
X316659112Y-272816900D02*
X317087683Y-273388328D01*
X317087683Y-272388328D02*
X316516254Y-272959757D01*
X317730540Y-273388328D02*
X317730540Y-272388328D01*
X317730540Y-271888328D02*
X317659112Y-271959757D01*
X317659112Y-271959757D02*
X317730540Y-272031185D01*
X317730540Y-272031185D02*
X317801969Y-271959757D01*
X317801969Y-271959757D02*
X317730540Y-271888328D01*
X317730540Y-271888328D02*
X317730540Y-272031185D01*
X319087684Y-273316900D02*
X318944826Y-273388328D01*
X318944826Y-273388328D02*
X318659112Y-273388328D01*
X318659112Y-273388328D02*
X318516255Y-273316900D01*
X318516255Y-273316900D02*
X318444826Y-273245471D01*
X318444826Y-273245471D02*
X318373398Y-273102614D01*
X318373398Y-273102614D02*
X318373398Y-272674042D01*
X318373398Y-272674042D02*
X318444826Y-272531185D01*
X318444826Y-272531185D02*
X318516255Y-272459757D01*
X318516255Y-272459757D02*
X318659112Y-272388328D01*
X318659112Y-272388328D02*
X318944826Y-272388328D01*
X318944826Y-272388328D02*
X319087684Y-272459757D01*
X320373398Y-273388328D02*
X320373398Y-272602614D01*
X320373398Y-272602614D02*
X320301969Y-272459757D01*
X320301969Y-272459757D02*
X320159112Y-272388328D01*
X320159112Y-272388328D02*
X319873398Y-272388328D01*
X319873398Y-272388328D02*
X319730540Y-272459757D01*
X320373398Y-273316900D02*
X320230540Y-273388328D01*
X320230540Y-273388328D02*
X319873398Y-273388328D01*
X319873398Y-273388328D02*
X319730540Y-273316900D01*
X319730540Y-273316900D02*
X319659112Y-273174042D01*
X319659112Y-273174042D02*
X319659112Y-273031185D01*
X319659112Y-273031185D02*
X319730540Y-272888328D01*
X319730540Y-272888328D02*
X319873398Y-272816900D01*
X319873398Y-272816900D02*
X320230540Y-272816900D01*
X320230540Y-272816900D02*
X320373398Y-272745471D01*
X321730541Y-273388328D02*
X321730541Y-271888328D01*
X321730541Y-273316900D02*
X321587683Y-273388328D01*
X321587683Y-273388328D02*
X321301969Y-273388328D01*
X321301969Y-273388328D02*
X321159112Y-273316900D01*
X321159112Y-273316900D02*
X321087683Y-273245471D01*
X321087683Y-273245471D02*
X321016255Y-273102614D01*
X321016255Y-273102614D02*
X321016255Y-272674042D01*
X321016255Y-272674042D02*
X321087683Y-272531185D01*
X321087683Y-272531185D02*
X321159112Y-272459757D01*
X321159112Y-272459757D02*
X321301969Y-272388328D01*
X321301969Y-272388328D02*
X321587683Y-272388328D01*
X321587683Y-272388328D02*
X321730541Y-272459757D01*
X322087684Y-273531185D02*
X323230541Y-273531185D01*
X323587683Y-272388328D02*
X323587683Y-273888328D01*
X323587683Y-272459757D02*
X323730541Y-272388328D01*
X323730541Y-272388328D02*
X324016255Y-272388328D01*
X324016255Y-272388328D02*
X324159112Y-272459757D01*
X324159112Y-272459757D02*
X324230541Y-272531185D01*
X324230541Y-272531185D02*
X324301969Y-272674042D01*
X324301969Y-272674042D02*
X324301969Y-273102614D01*
X324301969Y-273102614D02*
X324230541Y-273245471D01*
X324230541Y-273245471D02*
X324159112Y-273316900D01*
X324159112Y-273316900D02*
X324016255Y-273388328D01*
X324016255Y-273388328D02*
X323730541Y-273388328D01*
X323730541Y-273388328D02*
X323587683Y-273316900D01*
X325587684Y-273316900D02*
X325444826Y-273388328D01*
X325444826Y-273388328D02*
X325159112Y-273388328D01*
X325159112Y-273388328D02*
X325016255Y-273316900D01*
X325016255Y-273316900D02*
X324944826Y-273245471D01*
X324944826Y-273245471D02*
X324873398Y-273102614D01*
X324873398Y-273102614D02*
X324873398Y-272674042D01*
X324873398Y-272674042D02*
X324944826Y-272531185D01*
X324944826Y-272531185D02*
X325016255Y-272459757D01*
X325016255Y-272459757D02*
X325159112Y-272388328D01*
X325159112Y-272388328D02*
X325444826Y-272388328D01*
X325444826Y-272388328D02*
X325587684Y-272459757D01*
X326230540Y-273388328D02*
X326230540Y-271888328D01*
X326230540Y-272459757D02*
X326373398Y-272388328D01*
X326373398Y-272388328D02*
X326659112Y-272388328D01*
X326659112Y-272388328D02*
X326801969Y-272459757D01*
X326801969Y-272459757D02*
X326873398Y-272531185D01*
X326873398Y-272531185D02*
X326944826Y-272674042D01*
X326944826Y-272674042D02*
X326944826Y-273102614D01*
X326944826Y-273102614D02*
X326873398Y-273245471D01*
X326873398Y-273245471D02*
X326801969Y-273316900D01*
X326801969Y-273316900D02*
X326659112Y-273388328D01*
X326659112Y-273388328D02*
X326373398Y-273388328D01*
X326373398Y-273388328D02*
X326230540Y-273316900D01*
D10*
D11*
X299989000Y-268502200D02*
X407989000Y-268502200D01*
D10*
D11*
X301373398Y-270616900D02*
X301587684Y-270688328D01*
X301587684Y-270688328D02*
X301944826Y-270688328D01*
X301944826Y-270688328D02*
X302087684Y-270616900D01*
X302087684Y-270616900D02*
X302159112Y-270545471D01*
X302159112Y-270545471D02*
X302230541Y-270402614D01*
X302230541Y-270402614D02*
X302230541Y-270259757D01*
X302230541Y-270259757D02*
X302159112Y-270116900D01*
X302159112Y-270116900D02*
X302087684Y-270045471D01*
X302087684Y-270045471D02*
X301944826Y-269974042D01*
X301944826Y-269974042D02*
X301659112Y-269902614D01*
X301659112Y-269902614D02*
X301516255Y-269831185D01*
X301516255Y-269831185D02*
X301444826Y-269759757D01*
X301444826Y-269759757D02*
X301373398Y-269616900D01*
X301373398Y-269616900D02*
X301373398Y-269474042D01*
X301373398Y-269474042D02*
X301444826Y-269331185D01*
X301444826Y-269331185D02*
X301516255Y-269259757D01*
X301516255Y-269259757D02*
X301659112Y-269188328D01*
X301659112Y-269188328D02*
X302016255Y-269188328D01*
X302016255Y-269188328D02*
X302230541Y-269259757D01*
X302873397Y-270688328D02*
X302873397Y-269188328D01*
X303516255Y-270688328D02*
X303516255Y-269902614D01*
X303516255Y-269902614D02*
X303444826Y-269759757D01*
X303444826Y-269759757D02*
X303301969Y-269688328D01*
X303301969Y-269688328D02*
X303087683Y-269688328D01*
X303087683Y-269688328D02*
X302944826Y-269759757D01*
X302944826Y-269759757D02*
X302873397Y-269831185D01*
X304801969Y-270616900D02*
X304659112Y-270688328D01*
X304659112Y-270688328D02*
X304373398Y-270688328D01*
X304373398Y-270688328D02*
X304230540Y-270616900D01*
X304230540Y-270616900D02*
X304159112Y-270474042D01*
X304159112Y-270474042D02*
X304159112Y-269902614D01*
X304159112Y-269902614D02*
X304230540Y-269759757D01*
X304230540Y-269759757D02*
X304373398Y-269688328D01*
X304373398Y-269688328D02*
X304659112Y-269688328D01*
X304659112Y-269688328D02*
X304801969Y-269759757D01*
X304801969Y-269759757D02*
X304873398Y-269902614D01*
X304873398Y-269902614D02*
X304873398Y-270045471D01*
X304873398Y-270045471D02*
X304159112Y-270188328D01*
X306087683Y-270616900D02*
X305944826Y-270688328D01*
X305944826Y-270688328D02*
X305659112Y-270688328D01*
X305659112Y-270688328D02*
X305516254Y-270616900D01*
X305516254Y-270616900D02*
X305444826Y-270474042D01*
X305444826Y-270474042D02*
X305444826Y-269902614D01*
X305444826Y-269902614D02*
X305516254Y-269759757D01*
X305516254Y-269759757D02*
X305659112Y-269688328D01*
X305659112Y-269688328D02*
X305944826Y-269688328D01*
X305944826Y-269688328D02*
X306087683Y-269759757D01*
X306087683Y-269759757D02*
X306159112Y-269902614D01*
X306159112Y-269902614D02*
X306159112Y-270045471D01*
X306159112Y-270045471D02*
X305444826Y-270188328D01*
X306587683Y-269688328D02*
X307159111Y-269688328D01*
X306801968Y-269188328D02*
X306801968Y-270474042D01*
X306801968Y-270474042D02*
X306873397Y-270616900D01*
X306873397Y-270616900D02*
X307016254Y-270688328D01*
X307016254Y-270688328D02*
X307159111Y-270688328D01*
X307659111Y-270545471D02*
X307730540Y-270616900D01*
X307730540Y-270616900D02*
X307659111Y-270688328D01*
X307659111Y-270688328D02*
X307587683Y-270616900D01*
X307587683Y-270616900D02*
X307659111Y-270545471D01*
X307659111Y-270545471D02*
X307659111Y-270688328D01*
X307659111Y-269759757D02*
X307730540Y-269831185D01*
X307730540Y-269831185D02*
X307659111Y-269902614D01*
X307659111Y-269902614D02*
X307587683Y-269831185D01*
X307587683Y-269831185D02*
X307659111Y-269759757D01*
X307659111Y-269759757D02*
X307659111Y-269902614D01*
D10*
D11*
X319989000Y-278502200D02*
X319989000Y-281502200D01*
D10*
D11*
X383989000Y-278502200D02*
X383989000Y-285002200D01*
X138892857Y-72609580D02*
X138940476Y-72657200D01*
X138940476Y-72657200D02*
X139083333Y-72704819D01*
X139083333Y-72704819D02*
X139178571Y-72704819D01*
X139178571Y-72704819D02*
X139321428Y-72657200D01*
X139321428Y-72657200D02*
X139416666Y-72561961D01*
X139416666Y-72561961D02*
X139464285Y-72466723D01*
X139464285Y-72466723D02*
X139511904Y-72276247D01*
X139511904Y-72276247D02*
X139511904Y-72133390D01*
X139511904Y-72133390D02*
X139464285Y-71942914D01*
X139464285Y-71942914D02*
X139416666Y-71847676D01*
X139416666Y-71847676D02*
X139321428Y-71752438D01*
X139321428Y-71752438D02*
X139178571Y-71704819D01*
X139178571Y-71704819D02*
X139083333Y-71704819D01*
X139083333Y-71704819D02*
X138940476Y-71752438D01*
X138940476Y-71752438D02*
X138892857Y-71800057D01*
X138321428Y-72133390D02*
X138416666Y-72085771D01*
X138416666Y-72085771D02*
X138464285Y-72038152D01*
X138464285Y-72038152D02*
X138511904Y-71942914D01*
X138511904Y-71942914D02*
X138511904Y-71895295D01*
X138511904Y-71895295D02*
X138464285Y-71800057D01*
X138464285Y-71800057D02*
X138416666Y-71752438D01*
X138416666Y-71752438D02*
X138321428Y-71704819D01*
X138321428Y-71704819D02*
X138130952Y-71704819D01*
X138130952Y-71704819D02*
X138035714Y-71752438D01*
X138035714Y-71752438D02*
X137988095Y-71800057D01*
X137988095Y-71800057D02*
X137940476Y-71895295D01*
X137940476Y-71895295D02*
X137940476Y-71942914D01*
X137940476Y-71942914D02*
X137988095Y-72038152D01*
X137988095Y-72038152D02*
X138035714Y-72085771D01*
X138035714Y-72085771D02*
X138130952Y-72133390D01*
X138130952Y-72133390D02*
X138321428Y-72133390D01*
X138321428Y-72133390D02*
X138416666Y-72181009D01*
X138416666Y-72181009D02*
X138464285Y-72228628D01*
X138464285Y-72228628D02*
X138511904Y-72323866D01*
X138511904Y-72323866D02*
X138511904Y-72514342D01*
X138511904Y-72514342D02*
X138464285Y-72609580D01*
X138464285Y-72609580D02*
X138416666Y-72657200D01*
X138416666Y-72657200D02*
X138321428Y-72704819D01*
X138321428Y-72704819D02*
X138130952Y-72704819D01*
X138130952Y-72704819D02*
X138035714Y-72657200D01*
X138035714Y-72657200D02*
X137988095Y-72609580D01*
X137988095Y-72609580D02*
X137940476Y-72514342D01*
X137940476Y-72514342D02*
X137940476Y-72323866D01*
X137940476Y-72323866D02*
X137988095Y-72228628D01*
X137988095Y-72228628D02*
X138035714Y-72181009D01*
X138035714Y-72181009D02*
X138130952Y-72133390D01*
X137607142Y-71704819D02*
X136988095Y-71704819D01*
X136988095Y-71704819D02*
X137321428Y-72085771D01*
X137321428Y-72085771D02*
X137178571Y-72085771D01*
X137178571Y-72085771D02*
X137083333Y-72133390D01*
X137083333Y-72133390D02*
X137035714Y-72181009D01*
X137035714Y-72181009D02*
X136988095Y-72276247D01*
X136988095Y-72276247D02*
X136988095Y-72514342D01*
X136988095Y-72514342D02*
X137035714Y-72609580D01*
X137035714Y-72609580D02*
X137083333Y-72657200D01*
X137083333Y-72657200D02*
X137178571Y-72704819D01*
X137178571Y-72704819D02*
X137464285Y-72704819D01*
X137464285Y-72704819D02*
X137559523Y-72657200D01*
X137559523Y-72657200D02*
X137607142Y-72609580D01*
X205239857Y-84687580D02*
X205287476Y-84735200D01*
X205287476Y-84735200D02*
X205430333Y-84782819D01*
X205430333Y-84782819D02*
X205525571Y-84782819D01*
X205525571Y-84782819D02*
X205668428Y-84735200D01*
X205668428Y-84735200D02*
X205763666Y-84639961D01*
X205763666Y-84639961D02*
X205811285Y-84544723D01*
X205811285Y-84544723D02*
X205858904Y-84354247D01*
X205858904Y-84354247D02*
X205858904Y-84211390D01*
X205858904Y-84211390D02*
X205811285Y-84020914D01*
X205811285Y-84020914D02*
X205763666Y-83925676D01*
X205763666Y-83925676D02*
X205668428Y-83830438D01*
X205668428Y-83830438D02*
X205525571Y-83782819D01*
X205525571Y-83782819D02*
X205430333Y-83782819D01*
X205430333Y-83782819D02*
X205287476Y-83830438D01*
X205287476Y-83830438D02*
X205239857Y-83878057D01*
X204382714Y-84116152D02*
X204382714Y-84782819D01*
X204620809Y-83735200D02*
X204858904Y-84449485D01*
X204858904Y-84449485D02*
X204239857Y-84449485D01*
X203811285Y-84782819D02*
X203620809Y-84782819D01*
X203620809Y-84782819D02*
X203525571Y-84735200D01*
X203525571Y-84735200D02*
X203477952Y-84687580D01*
X203477952Y-84687580D02*
X203382714Y-84544723D01*
X203382714Y-84544723D02*
X203335095Y-84354247D01*
X203335095Y-84354247D02*
X203335095Y-83973295D01*
X203335095Y-83973295D02*
X203382714Y-83878057D01*
X203382714Y-83878057D02*
X203430333Y-83830438D01*
X203430333Y-83830438D02*
X203525571Y-83782819D01*
X203525571Y-83782819D02*
X203716047Y-83782819D01*
X203716047Y-83782819D02*
X203811285Y-83830438D01*
X203811285Y-83830438D02*
X203858904Y-83878057D01*
X203858904Y-83878057D02*
X203906523Y-83973295D01*
X203906523Y-83973295D02*
X203906523Y-84211390D01*
X203906523Y-84211390D02*
X203858904Y-84306628D01*
X203858904Y-84306628D02*
X203811285Y-84354247D01*
X203811285Y-84354247D02*
X203716047Y-84401866D01*
X203716047Y-84401866D02*
X203525571Y-84401866D01*
X203525571Y-84401866D02*
X203430333Y-84354247D01*
X203430333Y-84354247D02*
X203382714Y-84306628D01*
X203382714Y-84306628D02*
X203335095Y-84211390D01*
X153870819Y-136993333D02*
X153394628Y-136660000D01*
X153870819Y-136421905D02*
X152870819Y-136421905D01*
X152870819Y-136421905D02*
X152870819Y-136802857D01*
X152870819Y-136802857D02*
X152918438Y-136898095D01*
X152918438Y-136898095D02*
X152966057Y-136945714D01*
X152966057Y-136945714D02*
X153061295Y-136993333D01*
X153061295Y-136993333D02*
X153204152Y-136993333D01*
X153204152Y-136993333D02*
X153299390Y-136945714D01*
X153299390Y-136945714D02*
X153347009Y-136898095D01*
X153347009Y-136898095D02*
X153394628Y-136802857D01*
X153394628Y-136802857D02*
X153394628Y-136421905D01*
X152870819Y-137326667D02*
X152870819Y-137945714D01*
X152870819Y-137945714D02*
X153251771Y-137612381D01*
X153251771Y-137612381D02*
X153251771Y-137755238D01*
X153251771Y-137755238D02*
X153299390Y-137850476D01*
X153299390Y-137850476D02*
X153347009Y-137898095D01*
X153347009Y-137898095D02*
X153442247Y-137945714D01*
X153442247Y-137945714D02*
X153680342Y-137945714D01*
X153680342Y-137945714D02*
X153775580Y-137898095D01*
X153775580Y-137898095D02*
X153823200Y-137850476D01*
X153823200Y-137850476D02*
X153870819Y-137755238D01*
X153870819Y-137755238D02*
X153870819Y-137469524D01*
X153870819Y-137469524D02*
X153823200Y-137374286D01*
X153823200Y-137374286D02*
X153775580Y-137326667D01*
X134754857Y-102453580D02*
X134802476Y-102501200D01*
X134802476Y-102501200D02*
X134945333Y-102548819D01*
X134945333Y-102548819D02*
X135040571Y-102548819D01*
X135040571Y-102548819D02*
X135183428Y-102501200D01*
X135183428Y-102501200D02*
X135278666Y-102405961D01*
X135278666Y-102405961D02*
X135326285Y-102310723D01*
X135326285Y-102310723D02*
X135373904Y-102120247D01*
X135373904Y-102120247D02*
X135373904Y-101977390D01*
X135373904Y-101977390D02*
X135326285Y-101786914D01*
X135326285Y-101786914D02*
X135278666Y-101691676D01*
X135278666Y-101691676D02*
X135183428Y-101596438D01*
X135183428Y-101596438D02*
X135040571Y-101548819D01*
X135040571Y-101548819D02*
X134945333Y-101548819D01*
X134945333Y-101548819D02*
X134802476Y-101596438D01*
X134802476Y-101596438D02*
X134754857Y-101644057D01*
X133802476Y-102548819D02*
X134373904Y-102548819D01*
X134088190Y-102548819D02*
X134088190Y-101548819D01*
X134088190Y-101548819D02*
X134183428Y-101691676D01*
X134183428Y-101691676D02*
X134278666Y-101786914D01*
X134278666Y-101786914D02*
X134373904Y-101834533D01*
X132945333Y-101882152D02*
X132945333Y-102548819D01*
X133183428Y-101501200D02*
X133421523Y-102215485D01*
X133421523Y-102215485D02*
X132802476Y-102215485D01*
X87415666Y-65223330D02*
X87463285Y-65270950D01*
X87463285Y-65270950D02*
X87606142Y-65318569D01*
X87606142Y-65318569D02*
X87701380Y-65318569D01*
X87701380Y-65318569D02*
X87844237Y-65270950D01*
X87844237Y-65270950D02*
X87939475Y-65175711D01*
X87939475Y-65175711D02*
X87987094Y-65080473D01*
X87987094Y-65080473D02*
X88034713Y-64889997D01*
X88034713Y-64889997D02*
X88034713Y-64747140D01*
X88034713Y-64747140D02*
X87987094Y-64556664D01*
X87987094Y-64556664D02*
X87939475Y-64461426D01*
X87939475Y-64461426D02*
X87844237Y-64366188D01*
X87844237Y-64366188D02*
X87701380Y-64318569D01*
X87701380Y-64318569D02*
X87606142Y-64318569D01*
X87606142Y-64318569D02*
X87463285Y-64366188D01*
X87463285Y-64366188D02*
X87415666Y-64413807D01*
X86463285Y-65318569D02*
X87034713Y-65318569D01*
X86748999Y-65318569D02*
X86748999Y-64318569D01*
X86748999Y-64318569D02*
X86844237Y-64461426D01*
X86844237Y-64461426D02*
X86939475Y-64556664D01*
X86939475Y-64556664D02*
X87034713Y-64604283D01*
X115897819Y-57015142D02*
X115421628Y-56681809D01*
X115897819Y-56443714D02*
X114897819Y-56443714D01*
X114897819Y-56443714D02*
X114897819Y-56824666D01*
X114897819Y-56824666D02*
X114945438Y-56919904D01*
X114945438Y-56919904D02*
X114993057Y-56967523D01*
X114993057Y-56967523D02*
X115088295Y-57015142D01*
X115088295Y-57015142D02*
X115231152Y-57015142D01*
X115231152Y-57015142D02*
X115326390Y-56967523D01*
X115326390Y-56967523D02*
X115374009Y-56919904D01*
X115374009Y-56919904D02*
X115421628Y-56824666D01*
X115421628Y-56824666D02*
X115421628Y-56443714D01*
X114897819Y-57348476D02*
X114897819Y-57967523D01*
X114897819Y-57967523D02*
X115278771Y-57634190D01*
X115278771Y-57634190D02*
X115278771Y-57777047D01*
X115278771Y-57777047D02*
X115326390Y-57872285D01*
X115326390Y-57872285D02*
X115374009Y-57919904D01*
X115374009Y-57919904D02*
X115469247Y-57967523D01*
X115469247Y-57967523D02*
X115707342Y-57967523D01*
X115707342Y-57967523D02*
X115802580Y-57919904D01*
X115802580Y-57919904D02*
X115850200Y-57872285D01*
X115850200Y-57872285D02*
X115897819Y-57777047D01*
X115897819Y-57777047D02*
X115897819Y-57491333D01*
X115897819Y-57491333D02*
X115850200Y-57396095D01*
X115850200Y-57396095D02*
X115802580Y-57348476D01*
X114897819Y-58300857D02*
X114897819Y-58967523D01*
X114897819Y-58967523D02*
X115897819Y-58538952D01*
X181109857Y-65039580D02*
X181157476Y-65087200D01*
X181157476Y-65087200D02*
X181300333Y-65134819D01*
X181300333Y-65134819D02*
X181395571Y-65134819D01*
X181395571Y-65134819D02*
X181538428Y-65087200D01*
X181538428Y-65087200D02*
X181633666Y-64991961D01*
X181633666Y-64991961D02*
X181681285Y-64896723D01*
X181681285Y-64896723D02*
X181728904Y-64706247D01*
X181728904Y-64706247D02*
X181728904Y-64563390D01*
X181728904Y-64563390D02*
X181681285Y-64372914D01*
X181681285Y-64372914D02*
X181633666Y-64277676D01*
X181633666Y-64277676D02*
X181538428Y-64182438D01*
X181538428Y-64182438D02*
X181395571Y-64134819D01*
X181395571Y-64134819D02*
X181300333Y-64134819D01*
X181300333Y-64134819D02*
X181157476Y-64182438D01*
X181157476Y-64182438D02*
X181109857Y-64230057D01*
X180538428Y-64563390D02*
X180633666Y-64515771D01*
X180633666Y-64515771D02*
X180681285Y-64468152D01*
X180681285Y-64468152D02*
X180728904Y-64372914D01*
X180728904Y-64372914D02*
X180728904Y-64325295D01*
X180728904Y-64325295D02*
X180681285Y-64230057D01*
X180681285Y-64230057D02*
X180633666Y-64182438D01*
X180633666Y-64182438D02*
X180538428Y-64134819D01*
X180538428Y-64134819D02*
X180347952Y-64134819D01*
X180347952Y-64134819D02*
X180252714Y-64182438D01*
X180252714Y-64182438D02*
X180205095Y-64230057D01*
X180205095Y-64230057D02*
X180157476Y-64325295D01*
X180157476Y-64325295D02*
X180157476Y-64372914D01*
X180157476Y-64372914D02*
X180205095Y-64468152D01*
X180205095Y-64468152D02*
X180252714Y-64515771D01*
X180252714Y-64515771D02*
X180347952Y-64563390D01*
X180347952Y-64563390D02*
X180538428Y-64563390D01*
X180538428Y-64563390D02*
X180633666Y-64611009D01*
X180633666Y-64611009D02*
X180681285Y-64658628D01*
X180681285Y-64658628D02*
X180728904Y-64753866D01*
X180728904Y-64753866D02*
X180728904Y-64944342D01*
X180728904Y-64944342D02*
X180681285Y-65039580D01*
X180681285Y-65039580D02*
X180633666Y-65087200D01*
X180633666Y-65087200D02*
X180538428Y-65134819D01*
X180538428Y-65134819D02*
X180347952Y-65134819D01*
X180347952Y-65134819D02*
X180252714Y-65087200D01*
X180252714Y-65087200D02*
X180205095Y-65039580D01*
X180205095Y-65039580D02*
X180157476Y-64944342D01*
X180157476Y-64944342D02*
X180157476Y-64753866D01*
X180157476Y-64753866D02*
X180205095Y-64658628D01*
X180205095Y-64658628D02*
X180252714Y-64611009D01*
X180252714Y-64611009D02*
X180347952Y-64563390D01*
X179681285Y-65134819D02*
X179490809Y-65134819D01*
X179490809Y-65134819D02*
X179395571Y-65087200D01*
X179395571Y-65087200D02*
X179347952Y-65039580D01*
X179347952Y-65039580D02*
X179252714Y-64896723D01*
X179252714Y-64896723D02*
X179205095Y-64706247D01*
X179205095Y-64706247D02*
X179205095Y-64325295D01*
X179205095Y-64325295D02*
X179252714Y-64230057D01*
X179252714Y-64230057D02*
X179300333Y-64182438D01*
X179300333Y-64182438D02*
X179395571Y-64134819D01*
X179395571Y-64134819D02*
X179586047Y-64134819D01*
X179586047Y-64134819D02*
X179681285Y-64182438D01*
X179681285Y-64182438D02*
X179728904Y-64230057D01*
X179728904Y-64230057D02*
X179776523Y-64325295D01*
X179776523Y-64325295D02*
X179776523Y-64563390D01*
X179776523Y-64563390D02*
X179728904Y-64658628D01*
X179728904Y-64658628D02*
X179681285Y-64706247D01*
X179681285Y-64706247D02*
X179586047Y-64753866D01*
X179586047Y-64753866D02*
X179395571Y-64753866D01*
X179395571Y-64753866D02*
X179300333Y-64706247D01*
X179300333Y-64706247D02*
X179252714Y-64658628D01*
X179252714Y-64658628D02*
X179205095Y-64563390D01*
X104499580Y-136009142D02*
X104547200Y-135961523D01*
X104547200Y-135961523D02*
X104594819Y-135818666D01*
X104594819Y-135818666D02*
X104594819Y-135723428D01*
X104594819Y-135723428D02*
X104547200Y-135580571D01*
X104547200Y-135580571D02*
X104451961Y-135485333D01*
X104451961Y-135485333D02*
X104356723Y-135437714D01*
X104356723Y-135437714D02*
X104166247Y-135390095D01*
X104166247Y-135390095D02*
X104023390Y-135390095D01*
X104023390Y-135390095D02*
X103832914Y-135437714D01*
X103832914Y-135437714D02*
X103737676Y-135485333D01*
X103737676Y-135485333D02*
X103642438Y-135580571D01*
X103642438Y-135580571D02*
X103594819Y-135723428D01*
X103594819Y-135723428D02*
X103594819Y-135818666D01*
X103594819Y-135818666D02*
X103642438Y-135961523D01*
X103642438Y-135961523D02*
X103690057Y-136009142D01*
X103690057Y-136390095D02*
X103642438Y-136437714D01*
X103642438Y-136437714D02*
X103594819Y-136532952D01*
X103594819Y-136532952D02*
X103594819Y-136771047D01*
X103594819Y-136771047D02*
X103642438Y-136866285D01*
X103642438Y-136866285D02*
X103690057Y-136913904D01*
X103690057Y-136913904D02*
X103785295Y-136961523D01*
X103785295Y-136961523D02*
X103880533Y-136961523D01*
X103880533Y-136961523D02*
X104023390Y-136913904D01*
X104023390Y-136913904D02*
X104594819Y-136342476D01*
X104594819Y-136342476D02*
X104594819Y-136961523D01*
X103690057Y-137342476D02*
X103642438Y-137390095D01*
X103642438Y-137390095D02*
X103594819Y-137485333D01*
X103594819Y-137485333D02*
X103594819Y-137723428D01*
X103594819Y-137723428D02*
X103642438Y-137818666D01*
X103642438Y-137818666D02*
X103690057Y-137866285D01*
X103690057Y-137866285D02*
X103785295Y-137913904D01*
X103785295Y-137913904D02*
X103880533Y-137913904D01*
X103880533Y-137913904D02*
X104023390Y-137866285D01*
X104023390Y-137866285D02*
X104594819Y-137294857D01*
X104594819Y-137294857D02*
X104594819Y-137913904D01*
X212544819Y-57142142D02*
X212068628Y-56808809D01*
X212544819Y-56570714D02*
X211544819Y-56570714D01*
X211544819Y-56570714D02*
X211544819Y-56951666D01*
X211544819Y-56951666D02*
X211592438Y-57046904D01*
X211592438Y-57046904D02*
X211640057Y-57094523D01*
X211640057Y-57094523D02*
X211735295Y-57142142D01*
X211735295Y-57142142D02*
X211878152Y-57142142D01*
X211878152Y-57142142D02*
X211973390Y-57094523D01*
X211973390Y-57094523D02*
X212021009Y-57046904D01*
X212021009Y-57046904D02*
X212068628Y-56951666D01*
X212068628Y-56951666D02*
X212068628Y-56570714D01*
X212544819Y-57618333D02*
X212544819Y-57808809D01*
X212544819Y-57808809D02*
X212497200Y-57904047D01*
X212497200Y-57904047D02*
X212449580Y-57951666D01*
X212449580Y-57951666D02*
X212306723Y-58046904D01*
X212306723Y-58046904D02*
X212116247Y-58094523D01*
X212116247Y-58094523D02*
X211735295Y-58094523D01*
X211735295Y-58094523D02*
X211640057Y-58046904D01*
X211640057Y-58046904D02*
X211592438Y-57999285D01*
X211592438Y-57999285D02*
X211544819Y-57904047D01*
X211544819Y-57904047D02*
X211544819Y-57713571D01*
X211544819Y-57713571D02*
X211592438Y-57618333D01*
X211592438Y-57618333D02*
X211640057Y-57570714D01*
X211640057Y-57570714D02*
X211735295Y-57523095D01*
X211735295Y-57523095D02*
X211973390Y-57523095D01*
X211973390Y-57523095D02*
X212068628Y-57570714D01*
X212068628Y-57570714D02*
X212116247Y-57618333D01*
X212116247Y-57618333D02*
X212163866Y-57713571D01*
X212163866Y-57713571D02*
X212163866Y-57904047D01*
X212163866Y-57904047D02*
X212116247Y-57999285D01*
X212116247Y-57999285D02*
X212068628Y-58046904D01*
X212068628Y-58046904D02*
X211973390Y-58094523D01*
X211878152Y-58951666D02*
X212544819Y-58951666D01*
X211497200Y-58713571D02*
X212211485Y-58475476D01*
X212211485Y-58475476D02*
X212211485Y-59094523D01*
X200159857Y-84687580D02*
X200207476Y-84735200D01*
X200207476Y-84735200D02*
X200350333Y-84782819D01*
X200350333Y-84782819D02*
X200445571Y-84782819D01*
X200445571Y-84782819D02*
X200588428Y-84735200D01*
X200588428Y-84735200D02*
X200683666Y-84639961D01*
X200683666Y-84639961D02*
X200731285Y-84544723D01*
X200731285Y-84544723D02*
X200778904Y-84354247D01*
X200778904Y-84354247D02*
X200778904Y-84211390D01*
X200778904Y-84211390D02*
X200731285Y-84020914D01*
X200731285Y-84020914D02*
X200683666Y-83925676D01*
X200683666Y-83925676D02*
X200588428Y-83830438D01*
X200588428Y-83830438D02*
X200445571Y-83782819D01*
X200445571Y-83782819D02*
X200350333Y-83782819D01*
X200350333Y-83782819D02*
X200207476Y-83830438D01*
X200207476Y-83830438D02*
X200159857Y-83878057D01*
X199302714Y-84116152D02*
X199302714Y-84782819D01*
X199540809Y-83735200D02*
X199778904Y-84449485D01*
X199778904Y-84449485D02*
X199159857Y-84449485D01*
X198350333Y-84116152D02*
X198350333Y-84782819D01*
X198588428Y-83735200D02*
X198826523Y-84449485D01*
X198826523Y-84449485D02*
X198207476Y-84449485D01*
X153296857Y-84687580D02*
X153344476Y-84735200D01*
X153344476Y-84735200D02*
X153487333Y-84782819D01*
X153487333Y-84782819D02*
X153582571Y-84782819D01*
X153582571Y-84782819D02*
X153725428Y-84735200D01*
X153725428Y-84735200D02*
X153820666Y-84639961D01*
X153820666Y-84639961D02*
X153868285Y-84544723D01*
X153868285Y-84544723D02*
X153915904Y-84354247D01*
X153915904Y-84354247D02*
X153915904Y-84211390D01*
X153915904Y-84211390D02*
X153868285Y-84020914D01*
X153868285Y-84020914D02*
X153820666Y-83925676D01*
X153820666Y-83925676D02*
X153725428Y-83830438D01*
X153725428Y-83830438D02*
X153582571Y-83782819D01*
X153582571Y-83782819D02*
X153487333Y-83782819D01*
X153487333Y-83782819D02*
X153344476Y-83830438D01*
X153344476Y-83830438D02*
X153296857Y-83878057D01*
X152344476Y-84782819D02*
X152915904Y-84782819D01*
X152630190Y-84782819D02*
X152630190Y-83782819D01*
X152630190Y-83782819D02*
X152725428Y-83925676D01*
X152725428Y-83925676D02*
X152820666Y-84020914D01*
X152820666Y-84020914D02*
X152915904Y-84068533D01*
X151439714Y-83782819D02*
X151915904Y-83782819D01*
X151915904Y-83782819D02*
X151963523Y-84259009D01*
X151963523Y-84259009D02*
X151915904Y-84211390D01*
X151915904Y-84211390D02*
X151820666Y-84163771D01*
X151820666Y-84163771D02*
X151582571Y-84163771D01*
X151582571Y-84163771D02*
X151487333Y-84211390D01*
X151487333Y-84211390D02*
X151439714Y-84259009D01*
X151439714Y-84259009D02*
X151392095Y-84354247D01*
X151392095Y-84354247D02*
X151392095Y-84592342D01*
X151392095Y-84592342D02*
X151439714Y-84687580D01*
X151439714Y-84687580D02*
X151487333Y-84735200D01*
X151487333Y-84735200D02*
X151582571Y-84782819D01*
X151582571Y-84782819D02*
X151820666Y-84782819D01*
X151820666Y-84782819D02*
X151915904Y-84735200D01*
X151915904Y-84735200D02*
X151963523Y-84687580D01*
X93352857Y-102453580D02*
X93400476Y-102501200D01*
X93400476Y-102501200D02*
X93543333Y-102548819D01*
X93543333Y-102548819D02*
X93638571Y-102548819D01*
X93638571Y-102548819D02*
X93781428Y-102501200D01*
X93781428Y-102501200D02*
X93876666Y-102405961D01*
X93876666Y-102405961D02*
X93924285Y-102310723D01*
X93924285Y-102310723D02*
X93971904Y-102120247D01*
X93971904Y-102120247D02*
X93971904Y-101977390D01*
X93971904Y-101977390D02*
X93924285Y-101786914D01*
X93924285Y-101786914D02*
X93876666Y-101691676D01*
X93876666Y-101691676D02*
X93781428Y-101596438D01*
X93781428Y-101596438D02*
X93638571Y-101548819D01*
X93638571Y-101548819D02*
X93543333Y-101548819D01*
X93543333Y-101548819D02*
X93400476Y-101596438D01*
X93400476Y-101596438D02*
X93352857Y-101644057D01*
X93019523Y-101548819D02*
X92400476Y-101548819D01*
X92400476Y-101548819D02*
X92733809Y-101929771D01*
X92733809Y-101929771D02*
X92590952Y-101929771D01*
X92590952Y-101929771D02*
X92495714Y-101977390D01*
X92495714Y-101977390D02*
X92448095Y-102025009D01*
X92448095Y-102025009D02*
X92400476Y-102120247D01*
X92400476Y-102120247D02*
X92400476Y-102358342D01*
X92400476Y-102358342D02*
X92448095Y-102453580D01*
X92448095Y-102453580D02*
X92495714Y-102501200D01*
X92495714Y-102501200D02*
X92590952Y-102548819D01*
X92590952Y-102548819D02*
X92876666Y-102548819D01*
X92876666Y-102548819D02*
X92971904Y-102501200D01*
X92971904Y-102501200D02*
X93019523Y-102453580D01*
X91448095Y-102548819D02*
X92019523Y-102548819D01*
X91733809Y-102548819D02*
X91733809Y-101548819D01*
X91733809Y-101548819D02*
X91829047Y-101691676D01*
X91829047Y-101691676D02*
X91924285Y-101786914D01*
X91924285Y-101786914D02*
X92019523Y-101834533D01*
X112679580Y-121857142D02*
X112727200Y-121809523D01*
X112727200Y-121809523D02*
X112774819Y-121666666D01*
X112774819Y-121666666D02*
X112774819Y-121571428D01*
X112774819Y-121571428D02*
X112727200Y-121428571D01*
X112727200Y-121428571D02*
X112631961Y-121333333D01*
X112631961Y-121333333D02*
X112536723Y-121285714D01*
X112536723Y-121285714D02*
X112346247Y-121238095D01*
X112346247Y-121238095D02*
X112203390Y-121238095D01*
X112203390Y-121238095D02*
X112012914Y-121285714D01*
X112012914Y-121285714D02*
X111917676Y-121333333D01*
X111917676Y-121333333D02*
X111822438Y-121428571D01*
X111822438Y-121428571D02*
X111774819Y-121571428D01*
X111774819Y-121571428D02*
X111774819Y-121666666D01*
X111774819Y-121666666D02*
X111822438Y-121809523D01*
X111822438Y-121809523D02*
X111870057Y-121857142D01*
X111774819Y-122190476D02*
X111774819Y-122857142D01*
X111774819Y-122857142D02*
X112774819Y-122428571D01*
X111774819Y-123666666D02*
X111774819Y-123476190D01*
X111774819Y-123476190D02*
X111822438Y-123380952D01*
X111822438Y-123380952D02*
X111870057Y-123333333D01*
X111870057Y-123333333D02*
X112012914Y-123238095D01*
X112012914Y-123238095D02*
X112203390Y-123190476D01*
X112203390Y-123190476D02*
X112584342Y-123190476D01*
X112584342Y-123190476D02*
X112679580Y-123238095D01*
X112679580Y-123238095D02*
X112727200Y-123285714D01*
X112727200Y-123285714D02*
X112774819Y-123380952D01*
X112774819Y-123380952D02*
X112774819Y-123571428D01*
X112774819Y-123571428D02*
X112727200Y-123666666D01*
X112727200Y-123666666D02*
X112679580Y-123714285D01*
X112679580Y-123714285D02*
X112584342Y-123761904D01*
X112584342Y-123761904D02*
X112346247Y-123761904D01*
X112346247Y-123761904D02*
X112251009Y-123714285D01*
X112251009Y-123714285D02*
X112203390Y-123666666D01*
X112203390Y-123666666D02*
X112155771Y-123571428D01*
X112155771Y-123571428D02*
X112155771Y-123380952D01*
X112155771Y-123380952D02*
X112203390Y-123285714D01*
X112203390Y-123285714D02*
X112251009Y-123238095D01*
X112251009Y-123238095D02*
X112346247Y-123190476D01*
X185967857Y-70359580D02*
X186015476Y-70407200D01*
X186015476Y-70407200D02*
X186158333Y-70454819D01*
X186158333Y-70454819D02*
X186253571Y-70454819D01*
X186253571Y-70454819D02*
X186396428Y-70407200D01*
X186396428Y-70407200D02*
X186491666Y-70311961D01*
X186491666Y-70311961D02*
X186539285Y-70216723D01*
X186539285Y-70216723D02*
X186586904Y-70026247D01*
X186586904Y-70026247D02*
X186586904Y-69883390D01*
X186586904Y-69883390D02*
X186539285Y-69692914D01*
X186539285Y-69692914D02*
X186491666Y-69597676D01*
X186491666Y-69597676D02*
X186396428Y-69502438D01*
X186396428Y-69502438D02*
X186253571Y-69454819D01*
X186253571Y-69454819D02*
X186158333Y-69454819D01*
X186158333Y-69454819D02*
X186015476Y-69502438D01*
X186015476Y-69502438D02*
X185967857Y-69550057D01*
X185396428Y-69883390D02*
X185491666Y-69835771D01*
X185491666Y-69835771D02*
X185539285Y-69788152D01*
X185539285Y-69788152D02*
X185586904Y-69692914D01*
X185586904Y-69692914D02*
X185586904Y-69645295D01*
X185586904Y-69645295D02*
X185539285Y-69550057D01*
X185539285Y-69550057D02*
X185491666Y-69502438D01*
X185491666Y-69502438D02*
X185396428Y-69454819D01*
X185396428Y-69454819D02*
X185205952Y-69454819D01*
X185205952Y-69454819D02*
X185110714Y-69502438D01*
X185110714Y-69502438D02*
X185063095Y-69550057D01*
X185063095Y-69550057D02*
X185015476Y-69645295D01*
X185015476Y-69645295D02*
X185015476Y-69692914D01*
X185015476Y-69692914D02*
X185063095Y-69788152D01*
X185063095Y-69788152D02*
X185110714Y-69835771D01*
X185110714Y-69835771D02*
X185205952Y-69883390D01*
X185205952Y-69883390D02*
X185396428Y-69883390D01*
X185396428Y-69883390D02*
X185491666Y-69931009D01*
X185491666Y-69931009D02*
X185539285Y-69978628D01*
X185539285Y-69978628D02*
X185586904Y-70073866D01*
X185586904Y-70073866D02*
X185586904Y-70264342D01*
X185586904Y-70264342D02*
X185539285Y-70359580D01*
X185539285Y-70359580D02*
X185491666Y-70407200D01*
X185491666Y-70407200D02*
X185396428Y-70454819D01*
X185396428Y-70454819D02*
X185205952Y-70454819D01*
X185205952Y-70454819D02*
X185110714Y-70407200D01*
X185110714Y-70407200D02*
X185063095Y-70359580D01*
X185063095Y-70359580D02*
X185015476Y-70264342D01*
X185015476Y-70264342D02*
X185015476Y-70073866D01*
X185015476Y-70073866D02*
X185063095Y-69978628D01*
X185063095Y-69978628D02*
X185110714Y-69931009D01*
X185110714Y-69931009D02*
X185205952Y-69883390D01*
X184158333Y-69454819D02*
X184348809Y-69454819D01*
X184348809Y-69454819D02*
X184444047Y-69502438D01*
X184444047Y-69502438D02*
X184491666Y-69550057D01*
X184491666Y-69550057D02*
X184586904Y-69692914D01*
X184586904Y-69692914D02*
X184634523Y-69883390D01*
X184634523Y-69883390D02*
X184634523Y-70264342D01*
X184634523Y-70264342D02*
X184586904Y-70359580D01*
X184586904Y-70359580D02*
X184539285Y-70407200D01*
X184539285Y-70407200D02*
X184444047Y-70454819D01*
X184444047Y-70454819D02*
X184253571Y-70454819D01*
X184253571Y-70454819D02*
X184158333Y-70407200D01*
X184158333Y-70407200D02*
X184110714Y-70359580D01*
X184110714Y-70359580D02*
X184063095Y-70264342D01*
X184063095Y-70264342D02*
X184063095Y-70026247D01*
X184063095Y-70026247D02*
X184110714Y-69931009D01*
X184110714Y-69931009D02*
X184158333Y-69883390D01*
X184158333Y-69883390D02*
X184253571Y-69835771D01*
X184253571Y-69835771D02*
X184444047Y-69835771D01*
X184444047Y-69835771D02*
X184539285Y-69883390D01*
X184539285Y-69883390D02*
X184586904Y-69931009D01*
X184586904Y-69931009D02*
X184634523Y-70026247D01*
X200860819Y-136993333D02*
X200384628Y-136660000D01*
X200860819Y-136421905D02*
X199860819Y-136421905D01*
X199860819Y-136421905D02*
X199860819Y-136802857D01*
X199860819Y-136802857D02*
X199908438Y-136898095D01*
X199908438Y-136898095D02*
X199956057Y-136945714D01*
X199956057Y-136945714D02*
X200051295Y-136993333D01*
X200051295Y-136993333D02*
X200194152Y-136993333D01*
X200194152Y-136993333D02*
X200289390Y-136945714D01*
X200289390Y-136945714D02*
X200337009Y-136898095D01*
X200337009Y-136898095D02*
X200384628Y-136802857D01*
X200384628Y-136802857D02*
X200384628Y-136421905D01*
X200194152Y-137850476D02*
X200860819Y-137850476D01*
X199813200Y-137612381D02*
X200527485Y-137374286D01*
X200527485Y-137374286D02*
X200527485Y-137993333D01*
X167010580Y-90511333D02*
X167058200Y-90463714D01*
X167058200Y-90463714D02*
X167105819Y-90320857D01*
X167105819Y-90320857D02*
X167105819Y-90225619D01*
X167105819Y-90225619D02*
X167058200Y-90082762D01*
X167058200Y-90082762D02*
X166962961Y-89987524D01*
X166962961Y-89987524D02*
X166867723Y-89939905D01*
X166867723Y-89939905D02*
X166677247Y-89892286D01*
X166677247Y-89892286D02*
X166534390Y-89892286D01*
X166534390Y-89892286D02*
X166343914Y-89939905D01*
X166343914Y-89939905D02*
X166248676Y-89987524D01*
X166248676Y-89987524D02*
X166153438Y-90082762D01*
X166153438Y-90082762D02*
X166105819Y-90225619D01*
X166105819Y-90225619D02*
X166105819Y-90320857D01*
X166105819Y-90320857D02*
X166153438Y-90463714D01*
X166153438Y-90463714D02*
X166201057Y-90511333D01*
X166105819Y-91416095D02*
X166105819Y-90939905D01*
X166105819Y-90939905D02*
X166582009Y-90892286D01*
X166582009Y-90892286D02*
X166534390Y-90939905D01*
X166534390Y-90939905D02*
X166486771Y-91035143D01*
X166486771Y-91035143D02*
X166486771Y-91273238D01*
X166486771Y-91273238D02*
X166534390Y-91368476D01*
X166534390Y-91368476D02*
X166582009Y-91416095D01*
X166582009Y-91416095D02*
X166677247Y-91463714D01*
X166677247Y-91463714D02*
X166915342Y-91463714D01*
X166915342Y-91463714D02*
X167010580Y-91416095D01*
X167010580Y-91416095D02*
X167058200Y-91368476D01*
X167058200Y-91368476D02*
X167105819Y-91273238D01*
X167105819Y-91273238D02*
X167105819Y-91035143D01*
X167105819Y-91035143D02*
X167058200Y-90939905D01*
X167058200Y-90939905D02*
X167010580Y-90892286D01*
X110595580Y-136009142D02*
X110643200Y-135961523D01*
X110643200Y-135961523D02*
X110690819Y-135818666D01*
X110690819Y-135818666D02*
X110690819Y-135723428D01*
X110690819Y-135723428D02*
X110643200Y-135580571D01*
X110643200Y-135580571D02*
X110547961Y-135485333D01*
X110547961Y-135485333D02*
X110452723Y-135437714D01*
X110452723Y-135437714D02*
X110262247Y-135390095D01*
X110262247Y-135390095D02*
X110119390Y-135390095D01*
X110119390Y-135390095D02*
X109928914Y-135437714D01*
X109928914Y-135437714D02*
X109833676Y-135485333D01*
X109833676Y-135485333D02*
X109738438Y-135580571D01*
X109738438Y-135580571D02*
X109690819Y-135723428D01*
X109690819Y-135723428D02*
X109690819Y-135818666D01*
X109690819Y-135818666D02*
X109738438Y-135961523D01*
X109738438Y-135961523D02*
X109786057Y-136009142D01*
X109786057Y-136390095D02*
X109738438Y-136437714D01*
X109738438Y-136437714D02*
X109690819Y-136532952D01*
X109690819Y-136532952D02*
X109690819Y-136771047D01*
X109690819Y-136771047D02*
X109738438Y-136866285D01*
X109738438Y-136866285D02*
X109786057Y-136913904D01*
X109786057Y-136913904D02*
X109881295Y-136961523D01*
X109881295Y-136961523D02*
X109976533Y-136961523D01*
X109976533Y-136961523D02*
X110119390Y-136913904D01*
X110119390Y-136913904D02*
X110690819Y-136342476D01*
X110690819Y-136342476D02*
X110690819Y-136961523D01*
X110690819Y-137913904D02*
X110690819Y-137342476D01*
X110690819Y-137628190D02*
X109690819Y-137628190D01*
X109690819Y-137628190D02*
X109833676Y-137532952D01*
X109833676Y-137532952D02*
X109928914Y-137437714D01*
X109928914Y-137437714D02*
X109976533Y-137342476D01*
X91642857Y-70359580D02*
X91690476Y-70407200D01*
X91690476Y-70407200D02*
X91833333Y-70454819D01*
X91833333Y-70454819D02*
X91928571Y-70454819D01*
X91928571Y-70454819D02*
X92071428Y-70407200D01*
X92071428Y-70407200D02*
X92166666Y-70311961D01*
X92166666Y-70311961D02*
X92214285Y-70216723D01*
X92214285Y-70216723D02*
X92261904Y-70026247D01*
X92261904Y-70026247D02*
X92261904Y-69883390D01*
X92261904Y-69883390D02*
X92214285Y-69692914D01*
X92214285Y-69692914D02*
X92166666Y-69597676D01*
X92166666Y-69597676D02*
X92071428Y-69502438D01*
X92071428Y-69502438D02*
X91928571Y-69454819D01*
X91928571Y-69454819D02*
X91833333Y-69454819D01*
X91833333Y-69454819D02*
X91690476Y-69502438D01*
X91690476Y-69502438D02*
X91642857Y-69550057D01*
X90785714Y-69788152D02*
X90785714Y-70454819D01*
X91023809Y-69407200D02*
X91261904Y-70121485D01*
X91261904Y-70121485D02*
X90642857Y-70121485D01*
X89833333Y-69454819D02*
X90023809Y-69454819D01*
X90023809Y-69454819D02*
X90119047Y-69502438D01*
X90119047Y-69502438D02*
X90166666Y-69550057D01*
X90166666Y-69550057D02*
X90261904Y-69692914D01*
X90261904Y-69692914D02*
X90309523Y-69883390D01*
X90309523Y-69883390D02*
X90309523Y-70264342D01*
X90309523Y-70264342D02*
X90261904Y-70359580D01*
X90261904Y-70359580D02*
X90214285Y-70407200D01*
X90214285Y-70407200D02*
X90119047Y-70454819D01*
X90119047Y-70454819D02*
X89928571Y-70454819D01*
X89928571Y-70454819D02*
X89833333Y-70407200D01*
X89833333Y-70407200D02*
X89785714Y-70359580D01*
X89785714Y-70359580D02*
X89738095Y-70264342D01*
X89738095Y-70264342D02*
X89738095Y-70026247D01*
X89738095Y-70026247D02*
X89785714Y-69931009D01*
X89785714Y-69931009D02*
X89833333Y-69883390D01*
X89833333Y-69883390D02*
X89928571Y-69835771D01*
X89928571Y-69835771D02*
X90119047Y-69835771D01*
X90119047Y-69835771D02*
X90214285Y-69883390D01*
X90214285Y-69883390D02*
X90261904Y-69931009D01*
X90261904Y-69931009D02*
X90309523Y-70026247D01*
X197082580Y-125595142D02*
X197130200Y-125547523D01*
X197130200Y-125547523D02*
X197177819Y-125404666D01*
X197177819Y-125404666D02*
X197177819Y-125309428D01*
X197177819Y-125309428D02*
X197130200Y-125166571D01*
X197130200Y-125166571D02*
X197034961Y-125071333D01*
X197034961Y-125071333D02*
X196939723Y-125023714D01*
X196939723Y-125023714D02*
X196749247Y-124976095D01*
X196749247Y-124976095D02*
X196606390Y-124976095D01*
X196606390Y-124976095D02*
X196415914Y-125023714D01*
X196415914Y-125023714D02*
X196320676Y-125071333D01*
X196320676Y-125071333D02*
X196225438Y-125166571D01*
X196225438Y-125166571D02*
X196177819Y-125309428D01*
X196177819Y-125309428D02*
X196177819Y-125404666D01*
X196177819Y-125404666D02*
X196225438Y-125547523D01*
X196225438Y-125547523D02*
X196273057Y-125595142D01*
X196273057Y-125976095D02*
X196225438Y-126023714D01*
X196225438Y-126023714D02*
X196177819Y-126118952D01*
X196177819Y-126118952D02*
X196177819Y-126357047D01*
X196177819Y-126357047D02*
X196225438Y-126452285D01*
X196225438Y-126452285D02*
X196273057Y-126499904D01*
X196273057Y-126499904D02*
X196368295Y-126547523D01*
X196368295Y-126547523D02*
X196463533Y-126547523D01*
X196463533Y-126547523D02*
X196606390Y-126499904D01*
X196606390Y-126499904D02*
X197177819Y-125928476D01*
X197177819Y-125928476D02*
X197177819Y-126547523D01*
X196606390Y-127118952D02*
X196558771Y-127023714D01*
X196558771Y-127023714D02*
X196511152Y-126976095D01*
X196511152Y-126976095D02*
X196415914Y-126928476D01*
X196415914Y-126928476D02*
X196368295Y-126928476D01*
X196368295Y-126928476D02*
X196273057Y-126976095D01*
X196273057Y-126976095D02*
X196225438Y-127023714D01*
X196225438Y-127023714D02*
X196177819Y-127118952D01*
X196177819Y-127118952D02*
X196177819Y-127309428D01*
X196177819Y-127309428D02*
X196225438Y-127404666D01*
X196225438Y-127404666D02*
X196273057Y-127452285D01*
X196273057Y-127452285D02*
X196368295Y-127499904D01*
X196368295Y-127499904D02*
X196415914Y-127499904D01*
X196415914Y-127499904D02*
X196511152Y-127452285D01*
X196511152Y-127452285D02*
X196558771Y-127404666D01*
X196558771Y-127404666D02*
X196606390Y-127309428D01*
X196606390Y-127309428D02*
X196606390Y-127118952D01*
X196606390Y-127118952D02*
X196654009Y-127023714D01*
X196654009Y-127023714D02*
X196701628Y-126976095D01*
X196701628Y-126976095D02*
X196796866Y-126928476D01*
X196796866Y-126928476D02*
X196987342Y-126928476D01*
X196987342Y-126928476D02*
X197082580Y-126976095D01*
X197082580Y-126976095D02*
X197130200Y-127023714D01*
X197130200Y-127023714D02*
X197177819Y-127118952D01*
X197177819Y-127118952D02*
X197177819Y-127309428D01*
X197177819Y-127309428D02*
X197130200Y-127404666D01*
X197130200Y-127404666D02*
X197082580Y-127452285D01*
X197082580Y-127452285D02*
X196987342Y-127499904D01*
X196987342Y-127499904D02*
X196796866Y-127499904D01*
X196796866Y-127499904D02*
X196701628Y-127452285D01*
X196701628Y-127452285D02*
X196654009Y-127404666D01*
X196654009Y-127404666D02*
X196606390Y-127309428D01*
X215338819Y-57142142D02*
X214862628Y-56808809D01*
X215338819Y-56570714D02*
X214338819Y-56570714D01*
X214338819Y-56570714D02*
X214338819Y-56951666D01*
X214338819Y-56951666D02*
X214386438Y-57046904D01*
X214386438Y-57046904D02*
X214434057Y-57094523D01*
X214434057Y-57094523D02*
X214529295Y-57142142D01*
X214529295Y-57142142D02*
X214672152Y-57142142D01*
X214672152Y-57142142D02*
X214767390Y-57094523D01*
X214767390Y-57094523D02*
X214815009Y-57046904D01*
X214815009Y-57046904D02*
X214862628Y-56951666D01*
X214862628Y-56951666D02*
X214862628Y-56570714D01*
X215338819Y-57618333D02*
X215338819Y-57808809D01*
X215338819Y-57808809D02*
X215291200Y-57904047D01*
X215291200Y-57904047D02*
X215243580Y-57951666D01*
X215243580Y-57951666D02*
X215100723Y-58046904D01*
X215100723Y-58046904D02*
X214910247Y-58094523D01*
X214910247Y-58094523D02*
X214529295Y-58094523D01*
X214529295Y-58094523D02*
X214434057Y-58046904D01*
X214434057Y-58046904D02*
X214386438Y-57999285D01*
X214386438Y-57999285D02*
X214338819Y-57904047D01*
X214338819Y-57904047D02*
X214338819Y-57713571D01*
X214338819Y-57713571D02*
X214386438Y-57618333D01*
X214386438Y-57618333D02*
X214434057Y-57570714D01*
X214434057Y-57570714D02*
X214529295Y-57523095D01*
X214529295Y-57523095D02*
X214767390Y-57523095D01*
X214767390Y-57523095D02*
X214862628Y-57570714D01*
X214862628Y-57570714D02*
X214910247Y-57618333D01*
X214910247Y-57618333D02*
X214957866Y-57713571D01*
X214957866Y-57713571D02*
X214957866Y-57904047D01*
X214957866Y-57904047D02*
X214910247Y-57999285D01*
X214910247Y-57999285D02*
X214862628Y-58046904D01*
X214862628Y-58046904D02*
X214767390Y-58094523D01*
X214338819Y-58951666D02*
X214338819Y-58761190D01*
X214338819Y-58761190D02*
X214386438Y-58665952D01*
X214386438Y-58665952D02*
X214434057Y-58618333D01*
X214434057Y-58618333D02*
X214576914Y-58523095D01*
X214576914Y-58523095D02*
X214767390Y-58475476D01*
X214767390Y-58475476D02*
X215148342Y-58475476D01*
X215148342Y-58475476D02*
X215243580Y-58523095D01*
X215243580Y-58523095D02*
X215291200Y-58570714D01*
X215291200Y-58570714D02*
X215338819Y-58665952D01*
X215338819Y-58665952D02*
X215338819Y-58856428D01*
X215338819Y-58856428D02*
X215291200Y-58951666D01*
X215291200Y-58951666D02*
X215243580Y-58999285D01*
X215243580Y-58999285D02*
X215148342Y-59046904D01*
X215148342Y-59046904D02*
X214910247Y-59046904D01*
X214910247Y-59046904D02*
X214815009Y-58999285D01*
X214815009Y-58999285D02*
X214767390Y-58951666D01*
X214767390Y-58951666D02*
X214719771Y-58856428D01*
X214719771Y-58856428D02*
X214719771Y-58665952D01*
X214719771Y-58665952D02*
X214767390Y-58570714D01*
X214767390Y-58570714D02*
X214815009Y-58523095D01*
X214815009Y-58523095D02*
X214910247Y-58475476D01*
X120387580Y-90035142D02*
X120435200Y-89987523D01*
X120435200Y-89987523D02*
X120482819Y-89844666D01*
X120482819Y-89844666D02*
X120482819Y-89749428D01*
X120482819Y-89749428D02*
X120435200Y-89606571D01*
X120435200Y-89606571D02*
X120339961Y-89511333D01*
X120339961Y-89511333D02*
X120244723Y-89463714D01*
X120244723Y-89463714D02*
X120054247Y-89416095D01*
X120054247Y-89416095D02*
X119911390Y-89416095D01*
X119911390Y-89416095D02*
X119720914Y-89463714D01*
X119720914Y-89463714D02*
X119625676Y-89511333D01*
X119625676Y-89511333D02*
X119530438Y-89606571D01*
X119530438Y-89606571D02*
X119482819Y-89749428D01*
X119482819Y-89749428D02*
X119482819Y-89844666D01*
X119482819Y-89844666D02*
X119530438Y-89987523D01*
X119530438Y-89987523D02*
X119578057Y-90035142D01*
X119482819Y-90368476D02*
X119482819Y-90987523D01*
X119482819Y-90987523D02*
X119863771Y-90654190D01*
X119863771Y-90654190D02*
X119863771Y-90797047D01*
X119863771Y-90797047D02*
X119911390Y-90892285D01*
X119911390Y-90892285D02*
X119959009Y-90939904D01*
X119959009Y-90939904D02*
X120054247Y-90987523D01*
X120054247Y-90987523D02*
X120292342Y-90987523D01*
X120292342Y-90987523D02*
X120387580Y-90939904D01*
X120387580Y-90939904D02*
X120435200Y-90892285D01*
X120435200Y-90892285D02*
X120482819Y-90797047D01*
X120482819Y-90797047D02*
X120482819Y-90511333D01*
X120482819Y-90511333D02*
X120435200Y-90416095D01*
X120435200Y-90416095D02*
X120387580Y-90368476D01*
X119482819Y-91892285D02*
X119482819Y-91416095D01*
X119482819Y-91416095D02*
X119959009Y-91368476D01*
X119959009Y-91368476D02*
X119911390Y-91416095D01*
X119911390Y-91416095D02*
X119863771Y-91511333D01*
X119863771Y-91511333D02*
X119863771Y-91749428D01*
X119863771Y-91749428D02*
X119911390Y-91844666D01*
X119911390Y-91844666D02*
X119959009Y-91892285D01*
X119959009Y-91892285D02*
X120054247Y-91939904D01*
X120054247Y-91939904D02*
X120292342Y-91939904D01*
X120292342Y-91939904D02*
X120387580Y-91892285D01*
X120387580Y-91892285D02*
X120435200Y-91844666D01*
X120435200Y-91844666D02*
X120482819Y-91749428D01*
X120482819Y-91749428D02*
X120482819Y-91511333D01*
X120482819Y-91511333D02*
X120435200Y-91416095D01*
X120435200Y-91416095D02*
X120387580Y-91368476D01*
X113679580Y-128389142D02*
X113727200Y-128341523D01*
X113727200Y-128341523D02*
X113774819Y-128198666D01*
X113774819Y-128198666D02*
X113774819Y-128103428D01*
X113774819Y-128103428D02*
X113727200Y-127960571D01*
X113727200Y-127960571D02*
X113631961Y-127865333D01*
X113631961Y-127865333D02*
X113536723Y-127817714D01*
X113536723Y-127817714D02*
X113346247Y-127770095D01*
X113346247Y-127770095D02*
X113203390Y-127770095D01*
X113203390Y-127770095D02*
X113012914Y-127817714D01*
X113012914Y-127817714D02*
X112917676Y-127865333D01*
X112917676Y-127865333D02*
X112822438Y-127960571D01*
X112822438Y-127960571D02*
X112774819Y-128103428D01*
X112774819Y-128103428D02*
X112774819Y-128198666D01*
X112774819Y-128198666D02*
X112822438Y-128341523D01*
X112822438Y-128341523D02*
X112870057Y-128389142D01*
X112774819Y-128722476D02*
X112774819Y-129389142D01*
X112774819Y-129389142D02*
X113774819Y-128960571D01*
X113203390Y-129912952D02*
X113155771Y-129817714D01*
X113155771Y-129817714D02*
X113108152Y-129770095D01*
X113108152Y-129770095D02*
X113012914Y-129722476D01*
X113012914Y-129722476D02*
X112965295Y-129722476D01*
X112965295Y-129722476D02*
X112870057Y-129770095D01*
X112870057Y-129770095D02*
X112822438Y-129817714D01*
X112822438Y-129817714D02*
X112774819Y-129912952D01*
X112774819Y-129912952D02*
X112774819Y-130103428D01*
X112774819Y-130103428D02*
X112822438Y-130198666D01*
X112822438Y-130198666D02*
X112870057Y-130246285D01*
X112870057Y-130246285D02*
X112965295Y-130293904D01*
X112965295Y-130293904D02*
X113012914Y-130293904D01*
X113012914Y-130293904D02*
X113108152Y-130246285D01*
X113108152Y-130246285D02*
X113155771Y-130198666D01*
X113155771Y-130198666D02*
X113203390Y-130103428D01*
X113203390Y-130103428D02*
X113203390Y-129912952D01*
X113203390Y-129912952D02*
X113251009Y-129817714D01*
X113251009Y-129817714D02*
X113298628Y-129770095D01*
X113298628Y-129770095D02*
X113393866Y-129722476D01*
X113393866Y-129722476D02*
X113584342Y-129722476D01*
X113584342Y-129722476D02*
X113679580Y-129770095D01*
X113679580Y-129770095D02*
X113727200Y-129817714D01*
X113727200Y-129817714D02*
X113774819Y-129912952D01*
X113774819Y-129912952D02*
X113774819Y-130103428D01*
X113774819Y-130103428D02*
X113727200Y-130198666D01*
X113727200Y-130198666D02*
X113679580Y-130246285D01*
X113679580Y-130246285D02*
X113584342Y-130293904D01*
X113584342Y-130293904D02*
X113393866Y-130293904D01*
X113393866Y-130293904D02*
X113298628Y-130246285D01*
X113298628Y-130246285D02*
X113251009Y-130198666D01*
X113251009Y-130198666D02*
X113203390Y-130103428D01*
X140088857Y-102453580D02*
X140136476Y-102501200D01*
X140136476Y-102501200D02*
X140279333Y-102548819D01*
X140279333Y-102548819D02*
X140374571Y-102548819D01*
X140374571Y-102548819D02*
X140517428Y-102501200D01*
X140517428Y-102501200D02*
X140612666Y-102405961D01*
X140612666Y-102405961D02*
X140660285Y-102310723D01*
X140660285Y-102310723D02*
X140707904Y-102120247D01*
X140707904Y-102120247D02*
X140707904Y-101977390D01*
X140707904Y-101977390D02*
X140660285Y-101786914D01*
X140660285Y-101786914D02*
X140612666Y-101691676D01*
X140612666Y-101691676D02*
X140517428Y-101596438D01*
X140517428Y-101596438D02*
X140374571Y-101548819D01*
X140374571Y-101548819D02*
X140279333Y-101548819D01*
X140279333Y-101548819D02*
X140136476Y-101596438D01*
X140136476Y-101596438D02*
X140088857Y-101644057D01*
X139136476Y-102548819D02*
X139707904Y-102548819D01*
X139422190Y-102548819D02*
X139422190Y-101548819D01*
X139422190Y-101548819D02*
X139517428Y-101691676D01*
X139517428Y-101691676D02*
X139612666Y-101786914D01*
X139612666Y-101786914D02*
X139707904Y-101834533D01*
X138184095Y-102548819D02*
X138755523Y-102548819D01*
X138469809Y-102548819D02*
X138469809Y-101548819D01*
X138469809Y-101548819D02*
X138565047Y-101691676D01*
X138565047Y-101691676D02*
X138660285Y-101786914D01*
X138660285Y-101786914D02*
X138755523Y-101834533D01*
X158376857Y-84687580D02*
X158424476Y-84735200D01*
X158424476Y-84735200D02*
X158567333Y-84782819D01*
X158567333Y-84782819D02*
X158662571Y-84782819D01*
X158662571Y-84782819D02*
X158805428Y-84735200D01*
X158805428Y-84735200D02*
X158900666Y-84639961D01*
X158900666Y-84639961D02*
X158948285Y-84544723D01*
X158948285Y-84544723D02*
X158995904Y-84354247D01*
X158995904Y-84354247D02*
X158995904Y-84211390D01*
X158995904Y-84211390D02*
X158948285Y-84020914D01*
X158948285Y-84020914D02*
X158900666Y-83925676D01*
X158900666Y-83925676D02*
X158805428Y-83830438D01*
X158805428Y-83830438D02*
X158662571Y-83782819D01*
X158662571Y-83782819D02*
X158567333Y-83782819D01*
X158567333Y-83782819D02*
X158424476Y-83830438D01*
X158424476Y-83830438D02*
X158376857Y-83878057D01*
X157519714Y-84116152D02*
X157519714Y-84782819D01*
X157757809Y-83735200D02*
X157995904Y-84449485D01*
X157995904Y-84449485D02*
X157376857Y-84449485D01*
X157091142Y-83782819D02*
X156472095Y-83782819D01*
X156472095Y-83782819D02*
X156805428Y-84163771D01*
X156805428Y-84163771D02*
X156662571Y-84163771D01*
X156662571Y-84163771D02*
X156567333Y-84211390D01*
X156567333Y-84211390D02*
X156519714Y-84259009D01*
X156519714Y-84259009D02*
X156472095Y-84354247D01*
X156472095Y-84354247D02*
X156472095Y-84592342D01*
X156472095Y-84592342D02*
X156519714Y-84687580D01*
X156519714Y-84687580D02*
X156567333Y-84735200D01*
X156567333Y-84735200D02*
X156662571Y-84782819D01*
X156662571Y-84782819D02*
X156948285Y-84782819D01*
X156948285Y-84782819D02*
X157043523Y-84735200D01*
X157043523Y-84735200D02*
X157091142Y-84687580D01*
X206458580Y-122107142D02*
X206506200Y-122059523D01*
X206506200Y-122059523D02*
X206553819Y-121916666D01*
X206553819Y-121916666D02*
X206553819Y-121821428D01*
X206553819Y-121821428D02*
X206506200Y-121678571D01*
X206506200Y-121678571D02*
X206410961Y-121583333D01*
X206410961Y-121583333D02*
X206315723Y-121535714D01*
X206315723Y-121535714D02*
X206125247Y-121488095D01*
X206125247Y-121488095D02*
X205982390Y-121488095D01*
X205982390Y-121488095D02*
X205791914Y-121535714D01*
X205791914Y-121535714D02*
X205696676Y-121583333D01*
X205696676Y-121583333D02*
X205601438Y-121678571D01*
X205601438Y-121678571D02*
X205553819Y-121821428D01*
X205553819Y-121821428D02*
X205553819Y-121916666D01*
X205553819Y-121916666D02*
X205601438Y-122059523D01*
X205601438Y-122059523D02*
X205649057Y-122107142D01*
X205887152Y-122964285D02*
X206553819Y-122964285D01*
X205506200Y-122726190D02*
X206220485Y-122488095D01*
X206220485Y-122488095D02*
X206220485Y-123107142D01*
X205649057Y-123440476D02*
X205601438Y-123488095D01*
X205601438Y-123488095D02*
X205553819Y-123583333D01*
X205553819Y-123583333D02*
X205553819Y-123821428D01*
X205553819Y-123821428D02*
X205601438Y-123916666D01*
X205601438Y-123916666D02*
X205649057Y-123964285D01*
X205649057Y-123964285D02*
X205744295Y-124011904D01*
X205744295Y-124011904D02*
X205839533Y-124011904D01*
X205839533Y-124011904D02*
X205982390Y-123964285D01*
X205982390Y-123964285D02*
X206553819Y-123392857D01*
X206553819Y-123392857D02*
X206553819Y-124011904D01*
X151489580Y-136009142D02*
X151537200Y-135961523D01*
X151537200Y-135961523D02*
X151584819Y-135818666D01*
X151584819Y-135818666D02*
X151584819Y-135723428D01*
X151584819Y-135723428D02*
X151537200Y-135580571D01*
X151537200Y-135580571D02*
X151441961Y-135485333D01*
X151441961Y-135485333D02*
X151346723Y-135437714D01*
X151346723Y-135437714D02*
X151156247Y-135390095D01*
X151156247Y-135390095D02*
X151013390Y-135390095D01*
X151013390Y-135390095D02*
X150822914Y-135437714D01*
X150822914Y-135437714D02*
X150727676Y-135485333D01*
X150727676Y-135485333D02*
X150632438Y-135580571D01*
X150632438Y-135580571D02*
X150584819Y-135723428D01*
X150584819Y-135723428D02*
X150584819Y-135818666D01*
X150584819Y-135818666D02*
X150632438Y-135961523D01*
X150632438Y-135961523D02*
X150680057Y-136009142D01*
X150680057Y-136390095D02*
X150632438Y-136437714D01*
X150632438Y-136437714D02*
X150584819Y-136532952D01*
X150584819Y-136532952D02*
X150584819Y-136771047D01*
X150584819Y-136771047D02*
X150632438Y-136866285D01*
X150632438Y-136866285D02*
X150680057Y-136913904D01*
X150680057Y-136913904D02*
X150775295Y-136961523D01*
X150775295Y-136961523D02*
X150870533Y-136961523D01*
X150870533Y-136961523D02*
X151013390Y-136913904D01*
X151013390Y-136913904D02*
X151584819Y-136342476D01*
X151584819Y-136342476D02*
X151584819Y-136961523D01*
X150918152Y-137818666D02*
X151584819Y-137818666D01*
X150537200Y-137580571D02*
X151251485Y-137342476D01*
X151251485Y-137342476D02*
X151251485Y-137961523D01*
X220542857Y-88659580D02*
X220590476Y-88707200D01*
X220590476Y-88707200D02*
X220733333Y-88754819D01*
X220733333Y-88754819D02*
X220828571Y-88754819D01*
X220828571Y-88754819D02*
X220971428Y-88707200D01*
X220971428Y-88707200D02*
X221066666Y-88611961D01*
X221066666Y-88611961D02*
X221114285Y-88516723D01*
X221114285Y-88516723D02*
X221161904Y-88326247D01*
X221161904Y-88326247D02*
X221161904Y-88183390D01*
X221161904Y-88183390D02*
X221114285Y-87992914D01*
X221114285Y-87992914D02*
X221066666Y-87897676D01*
X221066666Y-87897676D02*
X220971428Y-87802438D01*
X220971428Y-87802438D02*
X220828571Y-87754819D01*
X220828571Y-87754819D02*
X220733333Y-87754819D01*
X220733333Y-87754819D02*
X220590476Y-87802438D01*
X220590476Y-87802438D02*
X220542857Y-87850057D01*
X219971428Y-88183390D02*
X220066666Y-88135771D01*
X220066666Y-88135771D02*
X220114285Y-88088152D01*
X220114285Y-88088152D02*
X220161904Y-87992914D01*
X220161904Y-87992914D02*
X220161904Y-87945295D01*
X220161904Y-87945295D02*
X220114285Y-87850057D01*
X220114285Y-87850057D02*
X220066666Y-87802438D01*
X220066666Y-87802438D02*
X219971428Y-87754819D01*
X219971428Y-87754819D02*
X219780952Y-87754819D01*
X219780952Y-87754819D02*
X219685714Y-87802438D01*
X219685714Y-87802438D02*
X219638095Y-87850057D01*
X219638095Y-87850057D02*
X219590476Y-87945295D01*
X219590476Y-87945295D02*
X219590476Y-87992914D01*
X219590476Y-87992914D02*
X219638095Y-88088152D01*
X219638095Y-88088152D02*
X219685714Y-88135771D01*
X219685714Y-88135771D02*
X219780952Y-88183390D01*
X219780952Y-88183390D02*
X219971428Y-88183390D01*
X219971428Y-88183390D02*
X220066666Y-88231009D01*
X220066666Y-88231009D02*
X220114285Y-88278628D01*
X220114285Y-88278628D02*
X220161904Y-88373866D01*
X220161904Y-88373866D02*
X220161904Y-88564342D01*
X220161904Y-88564342D02*
X220114285Y-88659580D01*
X220114285Y-88659580D02*
X220066666Y-88707200D01*
X220066666Y-88707200D02*
X219971428Y-88754819D01*
X219971428Y-88754819D02*
X219780952Y-88754819D01*
X219780952Y-88754819D02*
X219685714Y-88707200D01*
X219685714Y-88707200D02*
X219638095Y-88659580D01*
X219638095Y-88659580D02*
X219590476Y-88564342D01*
X219590476Y-88564342D02*
X219590476Y-88373866D01*
X219590476Y-88373866D02*
X219638095Y-88278628D01*
X219638095Y-88278628D02*
X219685714Y-88231009D01*
X219685714Y-88231009D02*
X219780952Y-88183390D01*
X218971428Y-87754819D02*
X218876190Y-87754819D01*
X218876190Y-87754819D02*
X218780952Y-87802438D01*
X218780952Y-87802438D02*
X218733333Y-87850057D01*
X218733333Y-87850057D02*
X218685714Y-87945295D01*
X218685714Y-87945295D02*
X218638095Y-88135771D01*
X218638095Y-88135771D02*
X218638095Y-88373866D01*
X218638095Y-88373866D02*
X218685714Y-88564342D01*
X218685714Y-88564342D02*
X218733333Y-88659580D01*
X218733333Y-88659580D02*
X218780952Y-88707200D01*
X218780952Y-88707200D02*
X218876190Y-88754819D01*
X218876190Y-88754819D02*
X218971428Y-88754819D01*
X218971428Y-88754819D02*
X219066666Y-88707200D01*
X219066666Y-88707200D02*
X219114285Y-88659580D01*
X219114285Y-88659580D02*
X219161904Y-88564342D01*
X219161904Y-88564342D02*
X219209523Y-88373866D01*
X219209523Y-88373866D02*
X219209523Y-88135771D01*
X219209523Y-88135771D02*
X219161904Y-87945295D01*
X219161904Y-87945295D02*
X219114285Y-87850057D01*
X219114285Y-87850057D02*
X219066666Y-87802438D01*
X219066666Y-87802438D02*
X218971428Y-87754819D01*
X209750819Y-57142142D02*
X209274628Y-56808809D01*
X209750819Y-56570714D02*
X208750819Y-56570714D01*
X208750819Y-56570714D02*
X208750819Y-56951666D01*
X208750819Y-56951666D02*
X208798438Y-57046904D01*
X208798438Y-57046904D02*
X208846057Y-57094523D01*
X208846057Y-57094523D02*
X208941295Y-57142142D01*
X208941295Y-57142142D02*
X209084152Y-57142142D01*
X209084152Y-57142142D02*
X209179390Y-57094523D01*
X209179390Y-57094523D02*
X209227009Y-57046904D01*
X209227009Y-57046904D02*
X209274628Y-56951666D01*
X209274628Y-56951666D02*
X209274628Y-56570714D01*
X209750819Y-57618333D02*
X209750819Y-57808809D01*
X209750819Y-57808809D02*
X209703200Y-57904047D01*
X209703200Y-57904047D02*
X209655580Y-57951666D01*
X209655580Y-57951666D02*
X209512723Y-58046904D01*
X209512723Y-58046904D02*
X209322247Y-58094523D01*
X209322247Y-58094523D02*
X208941295Y-58094523D01*
X208941295Y-58094523D02*
X208846057Y-58046904D01*
X208846057Y-58046904D02*
X208798438Y-57999285D01*
X208798438Y-57999285D02*
X208750819Y-57904047D01*
X208750819Y-57904047D02*
X208750819Y-57713571D01*
X208750819Y-57713571D02*
X208798438Y-57618333D01*
X208798438Y-57618333D02*
X208846057Y-57570714D01*
X208846057Y-57570714D02*
X208941295Y-57523095D01*
X208941295Y-57523095D02*
X209179390Y-57523095D01*
X209179390Y-57523095D02*
X209274628Y-57570714D01*
X209274628Y-57570714D02*
X209322247Y-57618333D01*
X209322247Y-57618333D02*
X209369866Y-57713571D01*
X209369866Y-57713571D02*
X209369866Y-57904047D01*
X209369866Y-57904047D02*
X209322247Y-57999285D01*
X209322247Y-57999285D02*
X209274628Y-58046904D01*
X209274628Y-58046904D02*
X209179390Y-58094523D01*
X208750819Y-58713571D02*
X208750819Y-58808809D01*
X208750819Y-58808809D02*
X208798438Y-58904047D01*
X208798438Y-58904047D02*
X208846057Y-58951666D01*
X208846057Y-58951666D02*
X208941295Y-58999285D01*
X208941295Y-58999285D02*
X209131771Y-59046904D01*
X209131771Y-59046904D02*
X209369866Y-59046904D01*
X209369866Y-59046904D02*
X209560342Y-58999285D01*
X209560342Y-58999285D02*
X209655580Y-58951666D01*
X209655580Y-58951666D02*
X209703200Y-58904047D01*
X209703200Y-58904047D02*
X209750819Y-58808809D01*
X209750819Y-58808809D02*
X209750819Y-58713571D01*
X209750819Y-58713571D02*
X209703200Y-58618333D01*
X209703200Y-58618333D02*
X209655580Y-58570714D01*
X209655580Y-58570714D02*
X209560342Y-58523095D01*
X209560342Y-58523095D02*
X209369866Y-58475476D01*
X209369866Y-58475476D02*
X209131771Y-58475476D01*
X209131771Y-58475476D02*
X208941295Y-58523095D01*
X208941295Y-58523095D02*
X208846057Y-58570714D01*
X208846057Y-58570714D02*
X208798438Y-58618333D01*
X208798438Y-58618333D02*
X208750819Y-58713571D01*
X167078819Y-57015142D02*
X166602628Y-56681809D01*
X167078819Y-56443714D02*
X166078819Y-56443714D01*
X166078819Y-56443714D02*
X166078819Y-56824666D01*
X166078819Y-56824666D02*
X166126438Y-56919904D01*
X166126438Y-56919904D02*
X166174057Y-56967523D01*
X166174057Y-56967523D02*
X166269295Y-57015142D01*
X166269295Y-57015142D02*
X166412152Y-57015142D01*
X166412152Y-57015142D02*
X166507390Y-56967523D01*
X166507390Y-56967523D02*
X166555009Y-56919904D01*
X166555009Y-56919904D02*
X166602628Y-56824666D01*
X166602628Y-56824666D02*
X166602628Y-56443714D01*
X166507390Y-57586571D02*
X166459771Y-57491333D01*
X166459771Y-57491333D02*
X166412152Y-57443714D01*
X166412152Y-57443714D02*
X166316914Y-57396095D01*
X166316914Y-57396095D02*
X166269295Y-57396095D01*
X166269295Y-57396095D02*
X166174057Y-57443714D01*
X166174057Y-57443714D02*
X166126438Y-57491333D01*
X166126438Y-57491333D02*
X166078819Y-57586571D01*
X166078819Y-57586571D02*
X166078819Y-57777047D01*
X166078819Y-57777047D02*
X166126438Y-57872285D01*
X166126438Y-57872285D02*
X166174057Y-57919904D01*
X166174057Y-57919904D02*
X166269295Y-57967523D01*
X166269295Y-57967523D02*
X166316914Y-57967523D01*
X166316914Y-57967523D02*
X166412152Y-57919904D01*
X166412152Y-57919904D02*
X166459771Y-57872285D01*
X166459771Y-57872285D02*
X166507390Y-57777047D01*
X166507390Y-57777047D02*
X166507390Y-57586571D01*
X166507390Y-57586571D02*
X166555009Y-57491333D01*
X166555009Y-57491333D02*
X166602628Y-57443714D01*
X166602628Y-57443714D02*
X166697866Y-57396095D01*
X166697866Y-57396095D02*
X166888342Y-57396095D01*
X166888342Y-57396095D02*
X166983580Y-57443714D01*
X166983580Y-57443714D02*
X167031200Y-57491333D01*
X167031200Y-57491333D02*
X167078819Y-57586571D01*
X167078819Y-57586571D02*
X167078819Y-57777047D01*
X167078819Y-57777047D02*
X167031200Y-57872285D01*
X167031200Y-57872285D02*
X166983580Y-57919904D01*
X166983580Y-57919904D02*
X166888342Y-57967523D01*
X166888342Y-57967523D02*
X166697866Y-57967523D01*
X166697866Y-57967523D02*
X166602628Y-57919904D01*
X166602628Y-57919904D02*
X166555009Y-57872285D01*
X166555009Y-57872285D02*
X166507390Y-57777047D01*
X166507390Y-58538952D02*
X166459771Y-58443714D01*
X166459771Y-58443714D02*
X166412152Y-58396095D01*
X166412152Y-58396095D02*
X166316914Y-58348476D01*
X166316914Y-58348476D02*
X166269295Y-58348476D01*
X166269295Y-58348476D02*
X166174057Y-58396095D01*
X166174057Y-58396095D02*
X166126438Y-58443714D01*
X166126438Y-58443714D02*
X166078819Y-58538952D01*
X166078819Y-58538952D02*
X166078819Y-58729428D01*
X166078819Y-58729428D02*
X166126438Y-58824666D01*
X166126438Y-58824666D02*
X166174057Y-58872285D01*
X166174057Y-58872285D02*
X166269295Y-58919904D01*
X166269295Y-58919904D02*
X166316914Y-58919904D01*
X166316914Y-58919904D02*
X166412152Y-58872285D01*
X166412152Y-58872285D02*
X166459771Y-58824666D01*
X166459771Y-58824666D02*
X166507390Y-58729428D01*
X166507390Y-58729428D02*
X166507390Y-58538952D01*
X166507390Y-58538952D02*
X166555009Y-58443714D01*
X166555009Y-58443714D02*
X166602628Y-58396095D01*
X166602628Y-58396095D02*
X166697866Y-58348476D01*
X166697866Y-58348476D02*
X166888342Y-58348476D01*
X166888342Y-58348476D02*
X166983580Y-58396095D01*
X166983580Y-58396095D02*
X167031200Y-58443714D01*
X167031200Y-58443714D02*
X167078819Y-58538952D01*
X167078819Y-58538952D02*
X167078819Y-58729428D01*
X167078819Y-58729428D02*
X167031200Y-58824666D01*
X167031200Y-58824666D02*
X166983580Y-58872285D01*
X166983580Y-58872285D02*
X166888342Y-58919904D01*
X166888342Y-58919904D02*
X166697866Y-58919904D01*
X166697866Y-58919904D02*
X166602628Y-58872285D01*
X166602628Y-58872285D02*
X166555009Y-58824666D01*
X166555009Y-58824666D02*
X166507390Y-58729428D01*
X204575580Y-136009142D02*
X204623200Y-135961523D01*
X204623200Y-135961523D02*
X204670819Y-135818666D01*
X204670819Y-135818666D02*
X204670819Y-135723428D01*
X204670819Y-135723428D02*
X204623200Y-135580571D01*
X204623200Y-135580571D02*
X204527961Y-135485333D01*
X204527961Y-135485333D02*
X204432723Y-135437714D01*
X204432723Y-135437714D02*
X204242247Y-135390095D01*
X204242247Y-135390095D02*
X204099390Y-135390095D01*
X204099390Y-135390095D02*
X203908914Y-135437714D01*
X203908914Y-135437714D02*
X203813676Y-135485333D01*
X203813676Y-135485333D02*
X203718438Y-135580571D01*
X203718438Y-135580571D02*
X203670819Y-135723428D01*
X203670819Y-135723428D02*
X203670819Y-135818666D01*
X203670819Y-135818666D02*
X203718438Y-135961523D01*
X203718438Y-135961523D02*
X203766057Y-136009142D01*
X203766057Y-136390095D02*
X203718438Y-136437714D01*
X203718438Y-136437714D02*
X203670819Y-136532952D01*
X203670819Y-136532952D02*
X203670819Y-136771047D01*
X203670819Y-136771047D02*
X203718438Y-136866285D01*
X203718438Y-136866285D02*
X203766057Y-136913904D01*
X203766057Y-136913904D02*
X203861295Y-136961523D01*
X203861295Y-136961523D02*
X203956533Y-136961523D01*
X203956533Y-136961523D02*
X204099390Y-136913904D01*
X204099390Y-136913904D02*
X204670819Y-136342476D01*
X204670819Y-136342476D02*
X204670819Y-136961523D01*
X203670819Y-137866285D02*
X203670819Y-137390095D01*
X203670819Y-137390095D02*
X204147009Y-137342476D01*
X204147009Y-137342476D02*
X204099390Y-137390095D01*
X204099390Y-137390095D02*
X204051771Y-137485333D01*
X204051771Y-137485333D02*
X204051771Y-137723428D01*
X204051771Y-137723428D02*
X204099390Y-137818666D01*
X204099390Y-137818666D02*
X204147009Y-137866285D01*
X204147009Y-137866285D02*
X204242247Y-137913904D01*
X204242247Y-137913904D02*
X204480342Y-137913904D01*
X204480342Y-137913904D02*
X204575580Y-137866285D01*
X204575580Y-137866285D02*
X204623200Y-137818666D01*
X204623200Y-137818666D02*
X204670819Y-137723428D01*
X204670819Y-137723428D02*
X204670819Y-137485333D01*
X204670819Y-137485333D02*
X204623200Y-137390095D01*
X204623200Y-137390095D02*
X204575580Y-137342476D01*
X106880819Y-136993333D02*
X106404628Y-136660000D01*
X106880819Y-136421905D02*
X105880819Y-136421905D01*
X105880819Y-136421905D02*
X105880819Y-136802857D01*
X105880819Y-136802857D02*
X105928438Y-136898095D01*
X105928438Y-136898095D02*
X105976057Y-136945714D01*
X105976057Y-136945714D02*
X106071295Y-136993333D01*
X106071295Y-136993333D02*
X106214152Y-136993333D01*
X106214152Y-136993333D02*
X106309390Y-136945714D01*
X106309390Y-136945714D02*
X106357009Y-136898095D01*
X106357009Y-136898095D02*
X106404628Y-136802857D01*
X106404628Y-136802857D02*
X106404628Y-136421905D01*
X105976057Y-137374286D02*
X105928438Y-137421905D01*
X105928438Y-137421905D02*
X105880819Y-137517143D01*
X105880819Y-137517143D02*
X105880819Y-137755238D01*
X105880819Y-137755238D02*
X105928438Y-137850476D01*
X105928438Y-137850476D02*
X105976057Y-137898095D01*
X105976057Y-137898095D02*
X106071295Y-137945714D01*
X106071295Y-137945714D02*
X106166533Y-137945714D01*
X106166533Y-137945714D02*
X106309390Y-137898095D01*
X106309390Y-137898095D02*
X106880819Y-137326667D01*
X106880819Y-137326667D02*
X106880819Y-137945714D01*
X140892857Y-68109580D02*
X140940476Y-68157200D01*
X140940476Y-68157200D02*
X141083333Y-68204819D01*
X141083333Y-68204819D02*
X141178571Y-68204819D01*
X141178571Y-68204819D02*
X141321428Y-68157200D01*
X141321428Y-68157200D02*
X141416666Y-68061961D01*
X141416666Y-68061961D02*
X141464285Y-67966723D01*
X141464285Y-67966723D02*
X141511904Y-67776247D01*
X141511904Y-67776247D02*
X141511904Y-67633390D01*
X141511904Y-67633390D02*
X141464285Y-67442914D01*
X141464285Y-67442914D02*
X141416666Y-67347676D01*
X141416666Y-67347676D02*
X141321428Y-67252438D01*
X141321428Y-67252438D02*
X141178571Y-67204819D01*
X141178571Y-67204819D02*
X141083333Y-67204819D01*
X141083333Y-67204819D02*
X140940476Y-67252438D01*
X140940476Y-67252438D02*
X140892857Y-67300057D01*
X140321428Y-67633390D02*
X140416666Y-67585771D01*
X140416666Y-67585771D02*
X140464285Y-67538152D01*
X140464285Y-67538152D02*
X140511904Y-67442914D01*
X140511904Y-67442914D02*
X140511904Y-67395295D01*
X140511904Y-67395295D02*
X140464285Y-67300057D01*
X140464285Y-67300057D02*
X140416666Y-67252438D01*
X140416666Y-67252438D02*
X140321428Y-67204819D01*
X140321428Y-67204819D02*
X140130952Y-67204819D01*
X140130952Y-67204819D02*
X140035714Y-67252438D01*
X140035714Y-67252438D02*
X139988095Y-67300057D01*
X139988095Y-67300057D02*
X139940476Y-67395295D01*
X139940476Y-67395295D02*
X139940476Y-67442914D01*
X139940476Y-67442914D02*
X139988095Y-67538152D01*
X139988095Y-67538152D02*
X140035714Y-67585771D01*
X140035714Y-67585771D02*
X140130952Y-67633390D01*
X140130952Y-67633390D02*
X140321428Y-67633390D01*
X140321428Y-67633390D02*
X140416666Y-67681009D01*
X140416666Y-67681009D02*
X140464285Y-67728628D01*
X140464285Y-67728628D02*
X140511904Y-67823866D01*
X140511904Y-67823866D02*
X140511904Y-68014342D01*
X140511904Y-68014342D02*
X140464285Y-68109580D01*
X140464285Y-68109580D02*
X140416666Y-68157200D01*
X140416666Y-68157200D02*
X140321428Y-68204819D01*
X140321428Y-68204819D02*
X140130952Y-68204819D01*
X140130952Y-68204819D02*
X140035714Y-68157200D01*
X140035714Y-68157200D02*
X139988095Y-68109580D01*
X139988095Y-68109580D02*
X139940476Y-68014342D01*
X139940476Y-68014342D02*
X139940476Y-67823866D01*
X139940476Y-67823866D02*
X139988095Y-67728628D01*
X139988095Y-67728628D02*
X140035714Y-67681009D01*
X140035714Y-67681009D02*
X140130952Y-67633390D01*
X139083333Y-67538152D02*
X139083333Y-68204819D01*
X139321428Y-67157200D02*
X139559523Y-67871485D01*
X139559523Y-67871485D02*
X138940476Y-67871485D01*
X198479580Y-136009142D02*
X198527200Y-135961523D01*
X198527200Y-135961523D02*
X198574819Y-135818666D01*
X198574819Y-135818666D02*
X198574819Y-135723428D01*
X198574819Y-135723428D02*
X198527200Y-135580571D01*
X198527200Y-135580571D02*
X198431961Y-135485333D01*
X198431961Y-135485333D02*
X198336723Y-135437714D01*
X198336723Y-135437714D02*
X198146247Y-135390095D01*
X198146247Y-135390095D02*
X198003390Y-135390095D01*
X198003390Y-135390095D02*
X197812914Y-135437714D01*
X197812914Y-135437714D02*
X197717676Y-135485333D01*
X197717676Y-135485333D02*
X197622438Y-135580571D01*
X197622438Y-135580571D02*
X197574819Y-135723428D01*
X197574819Y-135723428D02*
X197574819Y-135818666D01*
X197574819Y-135818666D02*
X197622438Y-135961523D01*
X197622438Y-135961523D02*
X197670057Y-136009142D01*
X197670057Y-136390095D02*
X197622438Y-136437714D01*
X197622438Y-136437714D02*
X197574819Y-136532952D01*
X197574819Y-136532952D02*
X197574819Y-136771047D01*
X197574819Y-136771047D02*
X197622438Y-136866285D01*
X197622438Y-136866285D02*
X197670057Y-136913904D01*
X197670057Y-136913904D02*
X197765295Y-136961523D01*
X197765295Y-136961523D02*
X197860533Y-136961523D01*
X197860533Y-136961523D02*
X198003390Y-136913904D01*
X198003390Y-136913904D02*
X198574819Y-136342476D01*
X198574819Y-136342476D02*
X198574819Y-136961523D01*
X197574819Y-137818666D02*
X197574819Y-137628190D01*
X197574819Y-137628190D02*
X197622438Y-137532952D01*
X197622438Y-137532952D02*
X197670057Y-137485333D01*
X197670057Y-137485333D02*
X197812914Y-137390095D01*
X197812914Y-137390095D02*
X198003390Y-137342476D01*
X198003390Y-137342476D02*
X198384342Y-137342476D01*
X198384342Y-137342476D02*
X198479580Y-137390095D01*
X198479580Y-137390095D02*
X198527200Y-137437714D01*
X198527200Y-137437714D02*
X198574819Y-137532952D01*
X198574819Y-137532952D02*
X198574819Y-137723428D01*
X198574819Y-137723428D02*
X198527200Y-137818666D01*
X198527200Y-137818666D02*
X198479580Y-137866285D01*
X198479580Y-137866285D02*
X198384342Y-137913904D01*
X198384342Y-137913904D02*
X198146247Y-137913904D01*
X198146247Y-137913904D02*
X198051009Y-137866285D01*
X198051009Y-137866285D02*
X198003390Y-137818666D01*
X198003390Y-137818666D02*
X197955771Y-137723428D01*
X197955771Y-137723428D02*
X197955771Y-137532952D01*
X197955771Y-137532952D02*
X198003390Y-137437714D01*
X198003390Y-137437714D02*
X198051009Y-137390095D01*
X198051009Y-137390095D02*
X198146247Y-137342476D01*
X103131580Y-125595142D02*
X103179200Y-125547523D01*
X103179200Y-125547523D02*
X103226819Y-125404666D01*
X103226819Y-125404666D02*
X103226819Y-125309428D01*
X103226819Y-125309428D02*
X103179200Y-125166571D01*
X103179200Y-125166571D02*
X103083961Y-125071333D01*
X103083961Y-125071333D02*
X102988723Y-125023714D01*
X102988723Y-125023714D02*
X102798247Y-124976095D01*
X102798247Y-124976095D02*
X102655390Y-124976095D01*
X102655390Y-124976095D02*
X102464914Y-125023714D01*
X102464914Y-125023714D02*
X102369676Y-125071333D01*
X102369676Y-125071333D02*
X102274438Y-125166571D01*
X102274438Y-125166571D02*
X102226819Y-125309428D01*
X102226819Y-125309428D02*
X102226819Y-125404666D01*
X102226819Y-125404666D02*
X102274438Y-125547523D01*
X102274438Y-125547523D02*
X102322057Y-125595142D01*
X102226819Y-125928476D02*
X102226819Y-126595142D01*
X102226819Y-126595142D02*
X103226819Y-126166571D01*
X102226819Y-127452285D02*
X102226819Y-126976095D01*
X102226819Y-126976095D02*
X102703009Y-126928476D01*
X102703009Y-126928476D02*
X102655390Y-126976095D01*
X102655390Y-126976095D02*
X102607771Y-127071333D01*
X102607771Y-127071333D02*
X102607771Y-127309428D01*
X102607771Y-127309428D02*
X102655390Y-127404666D01*
X102655390Y-127404666D02*
X102703009Y-127452285D01*
X102703009Y-127452285D02*
X102798247Y-127499904D01*
X102798247Y-127499904D02*
X103036342Y-127499904D01*
X103036342Y-127499904D02*
X103131580Y-127452285D01*
X103131580Y-127452285D02*
X103179200Y-127404666D01*
X103179200Y-127404666D02*
X103226819Y-127309428D01*
X103226819Y-127309428D02*
X103226819Y-127071333D01*
X103226819Y-127071333D02*
X103179200Y-126976095D01*
X103179200Y-126976095D02*
X103131580Y-126928476D01*
X164411819Y-57015142D02*
X163935628Y-56681809D01*
X164411819Y-56443714D02*
X163411819Y-56443714D01*
X163411819Y-56443714D02*
X163411819Y-56824666D01*
X163411819Y-56824666D02*
X163459438Y-56919904D01*
X163459438Y-56919904D02*
X163507057Y-56967523D01*
X163507057Y-56967523D02*
X163602295Y-57015142D01*
X163602295Y-57015142D02*
X163745152Y-57015142D01*
X163745152Y-57015142D02*
X163840390Y-56967523D01*
X163840390Y-56967523D02*
X163888009Y-56919904D01*
X163888009Y-56919904D02*
X163935628Y-56824666D01*
X163935628Y-56824666D02*
X163935628Y-56443714D01*
X163840390Y-57586571D02*
X163792771Y-57491333D01*
X163792771Y-57491333D02*
X163745152Y-57443714D01*
X163745152Y-57443714D02*
X163649914Y-57396095D01*
X163649914Y-57396095D02*
X163602295Y-57396095D01*
X163602295Y-57396095D02*
X163507057Y-57443714D01*
X163507057Y-57443714D02*
X163459438Y-57491333D01*
X163459438Y-57491333D02*
X163411819Y-57586571D01*
X163411819Y-57586571D02*
X163411819Y-57777047D01*
X163411819Y-57777047D02*
X163459438Y-57872285D01*
X163459438Y-57872285D02*
X163507057Y-57919904D01*
X163507057Y-57919904D02*
X163602295Y-57967523D01*
X163602295Y-57967523D02*
X163649914Y-57967523D01*
X163649914Y-57967523D02*
X163745152Y-57919904D01*
X163745152Y-57919904D02*
X163792771Y-57872285D01*
X163792771Y-57872285D02*
X163840390Y-57777047D01*
X163840390Y-57777047D02*
X163840390Y-57586571D01*
X163840390Y-57586571D02*
X163888009Y-57491333D01*
X163888009Y-57491333D02*
X163935628Y-57443714D01*
X163935628Y-57443714D02*
X164030866Y-57396095D01*
X164030866Y-57396095D02*
X164221342Y-57396095D01*
X164221342Y-57396095D02*
X164316580Y-57443714D01*
X164316580Y-57443714D02*
X164364200Y-57491333D01*
X164364200Y-57491333D02*
X164411819Y-57586571D01*
X164411819Y-57586571D02*
X164411819Y-57777047D01*
X164411819Y-57777047D02*
X164364200Y-57872285D01*
X164364200Y-57872285D02*
X164316580Y-57919904D01*
X164316580Y-57919904D02*
X164221342Y-57967523D01*
X164221342Y-57967523D02*
X164030866Y-57967523D01*
X164030866Y-57967523D02*
X163935628Y-57919904D01*
X163935628Y-57919904D02*
X163888009Y-57872285D01*
X163888009Y-57872285D02*
X163840390Y-57777047D01*
X163411819Y-58300857D02*
X163411819Y-58967523D01*
X163411819Y-58967523D02*
X164411819Y-58538952D01*
X221542857Y-79109580D02*
X221590476Y-79157200D01*
X221590476Y-79157200D02*
X221733333Y-79204819D01*
X221733333Y-79204819D02*
X221828571Y-79204819D01*
X221828571Y-79204819D02*
X221971428Y-79157200D01*
X221971428Y-79157200D02*
X222066666Y-79061961D01*
X222066666Y-79061961D02*
X222114285Y-78966723D01*
X222114285Y-78966723D02*
X222161904Y-78776247D01*
X222161904Y-78776247D02*
X222161904Y-78633390D01*
X222161904Y-78633390D02*
X222114285Y-78442914D01*
X222114285Y-78442914D02*
X222066666Y-78347676D01*
X222066666Y-78347676D02*
X221971428Y-78252438D01*
X221971428Y-78252438D02*
X221828571Y-78204819D01*
X221828571Y-78204819D02*
X221733333Y-78204819D01*
X221733333Y-78204819D02*
X221590476Y-78252438D01*
X221590476Y-78252438D02*
X221542857Y-78300057D01*
X220638095Y-78204819D02*
X221114285Y-78204819D01*
X221114285Y-78204819D02*
X221161904Y-78681009D01*
X221161904Y-78681009D02*
X221114285Y-78633390D01*
X221114285Y-78633390D02*
X221019047Y-78585771D01*
X221019047Y-78585771D02*
X220780952Y-78585771D01*
X220780952Y-78585771D02*
X220685714Y-78633390D01*
X220685714Y-78633390D02*
X220638095Y-78681009D01*
X220638095Y-78681009D02*
X220590476Y-78776247D01*
X220590476Y-78776247D02*
X220590476Y-79014342D01*
X220590476Y-79014342D02*
X220638095Y-79109580D01*
X220638095Y-79109580D02*
X220685714Y-79157200D01*
X220685714Y-79157200D02*
X220780952Y-79204819D01*
X220780952Y-79204819D02*
X221019047Y-79204819D01*
X221019047Y-79204819D02*
X221114285Y-79157200D01*
X221114285Y-79157200D02*
X221161904Y-79109580D01*
X219685714Y-78204819D02*
X220161904Y-78204819D01*
X220161904Y-78204819D02*
X220209523Y-78681009D01*
X220209523Y-78681009D02*
X220161904Y-78633390D01*
X220161904Y-78633390D02*
X220066666Y-78585771D01*
X220066666Y-78585771D02*
X219828571Y-78585771D01*
X219828571Y-78585771D02*
X219733333Y-78633390D01*
X219733333Y-78633390D02*
X219685714Y-78681009D01*
X219685714Y-78681009D02*
X219638095Y-78776247D01*
X219638095Y-78776247D02*
X219638095Y-79014342D01*
X219638095Y-79014342D02*
X219685714Y-79109580D01*
X219685714Y-79109580D02*
X219733333Y-79157200D01*
X219733333Y-79157200D02*
X219828571Y-79204819D01*
X219828571Y-79204819D02*
X220066666Y-79204819D01*
X220066666Y-79204819D02*
X220161904Y-79157200D01*
X220161904Y-79157200D02*
X220209523Y-79109580D01*
X215137580Y-90511333D02*
X215185200Y-90463714D01*
X215185200Y-90463714D02*
X215232819Y-90320857D01*
X215232819Y-90320857D02*
X215232819Y-90225619D01*
X215232819Y-90225619D02*
X215185200Y-90082762D01*
X215185200Y-90082762D02*
X215089961Y-89987524D01*
X215089961Y-89987524D02*
X214994723Y-89939905D01*
X214994723Y-89939905D02*
X214804247Y-89892286D01*
X214804247Y-89892286D02*
X214661390Y-89892286D01*
X214661390Y-89892286D02*
X214470914Y-89939905D01*
X214470914Y-89939905D02*
X214375676Y-89987524D01*
X214375676Y-89987524D02*
X214280438Y-90082762D01*
X214280438Y-90082762D02*
X214232819Y-90225619D01*
X214232819Y-90225619D02*
X214232819Y-90320857D01*
X214232819Y-90320857D02*
X214280438Y-90463714D01*
X214280438Y-90463714D02*
X214328057Y-90511333D01*
X214232819Y-90844667D02*
X214232819Y-91511333D01*
X214232819Y-91511333D02*
X215232819Y-91082762D01*
X93666666Y-68109580D02*
X93714285Y-68157200D01*
X93714285Y-68157200D02*
X93857142Y-68204819D01*
X93857142Y-68204819D02*
X93952380Y-68204819D01*
X93952380Y-68204819D02*
X94095237Y-68157200D01*
X94095237Y-68157200D02*
X94190475Y-68061961D01*
X94190475Y-68061961D02*
X94238094Y-67966723D01*
X94238094Y-67966723D02*
X94285713Y-67776247D01*
X94285713Y-67776247D02*
X94285713Y-67633390D01*
X94285713Y-67633390D02*
X94238094Y-67442914D01*
X94238094Y-67442914D02*
X94190475Y-67347676D01*
X94190475Y-67347676D02*
X94095237Y-67252438D01*
X94095237Y-67252438D02*
X93952380Y-67204819D01*
X93952380Y-67204819D02*
X93857142Y-67204819D01*
X93857142Y-67204819D02*
X93714285Y-67252438D01*
X93714285Y-67252438D02*
X93666666Y-67300057D01*
X93285713Y-67300057D02*
X93238094Y-67252438D01*
X93238094Y-67252438D02*
X93142856Y-67204819D01*
X93142856Y-67204819D02*
X92904761Y-67204819D01*
X92904761Y-67204819D02*
X92809523Y-67252438D01*
X92809523Y-67252438D02*
X92761904Y-67300057D01*
X92761904Y-67300057D02*
X92714285Y-67395295D01*
X92714285Y-67395295D02*
X92714285Y-67490533D01*
X92714285Y-67490533D02*
X92761904Y-67633390D01*
X92761904Y-67633390D02*
X93333332Y-68204819D01*
X93333332Y-68204819D02*
X92714285Y-68204819D01*
X169872819Y-57015142D02*
X169396628Y-56681809D01*
X169872819Y-56443714D02*
X168872819Y-56443714D01*
X168872819Y-56443714D02*
X168872819Y-56824666D01*
X168872819Y-56824666D02*
X168920438Y-56919904D01*
X168920438Y-56919904D02*
X168968057Y-56967523D01*
X168968057Y-56967523D02*
X169063295Y-57015142D01*
X169063295Y-57015142D02*
X169206152Y-57015142D01*
X169206152Y-57015142D02*
X169301390Y-56967523D01*
X169301390Y-56967523D02*
X169349009Y-56919904D01*
X169349009Y-56919904D02*
X169396628Y-56824666D01*
X169396628Y-56824666D02*
X169396628Y-56443714D01*
X169301390Y-57586571D02*
X169253771Y-57491333D01*
X169253771Y-57491333D02*
X169206152Y-57443714D01*
X169206152Y-57443714D02*
X169110914Y-57396095D01*
X169110914Y-57396095D02*
X169063295Y-57396095D01*
X169063295Y-57396095D02*
X168968057Y-57443714D01*
X168968057Y-57443714D02*
X168920438Y-57491333D01*
X168920438Y-57491333D02*
X168872819Y-57586571D01*
X168872819Y-57586571D02*
X168872819Y-57777047D01*
X168872819Y-57777047D02*
X168920438Y-57872285D01*
X168920438Y-57872285D02*
X168968057Y-57919904D01*
X168968057Y-57919904D02*
X169063295Y-57967523D01*
X169063295Y-57967523D02*
X169110914Y-57967523D01*
X169110914Y-57967523D02*
X169206152Y-57919904D01*
X169206152Y-57919904D02*
X169253771Y-57872285D01*
X169253771Y-57872285D02*
X169301390Y-57777047D01*
X169301390Y-57777047D02*
X169301390Y-57586571D01*
X169301390Y-57586571D02*
X169349009Y-57491333D01*
X169349009Y-57491333D02*
X169396628Y-57443714D01*
X169396628Y-57443714D02*
X169491866Y-57396095D01*
X169491866Y-57396095D02*
X169682342Y-57396095D01*
X169682342Y-57396095D02*
X169777580Y-57443714D01*
X169777580Y-57443714D02*
X169825200Y-57491333D01*
X169825200Y-57491333D02*
X169872819Y-57586571D01*
X169872819Y-57586571D02*
X169872819Y-57777047D01*
X169872819Y-57777047D02*
X169825200Y-57872285D01*
X169825200Y-57872285D02*
X169777580Y-57919904D01*
X169777580Y-57919904D02*
X169682342Y-57967523D01*
X169682342Y-57967523D02*
X169491866Y-57967523D01*
X169491866Y-57967523D02*
X169396628Y-57919904D01*
X169396628Y-57919904D02*
X169349009Y-57872285D01*
X169349009Y-57872285D02*
X169301390Y-57777047D01*
X169872819Y-58443714D02*
X169872819Y-58634190D01*
X169872819Y-58634190D02*
X169825200Y-58729428D01*
X169825200Y-58729428D02*
X169777580Y-58777047D01*
X169777580Y-58777047D02*
X169634723Y-58872285D01*
X169634723Y-58872285D02*
X169444247Y-58919904D01*
X169444247Y-58919904D02*
X169063295Y-58919904D01*
X169063295Y-58919904D02*
X168968057Y-58872285D01*
X168968057Y-58872285D02*
X168920438Y-58824666D01*
X168920438Y-58824666D02*
X168872819Y-58729428D01*
X168872819Y-58729428D02*
X168872819Y-58538952D01*
X168872819Y-58538952D02*
X168920438Y-58443714D01*
X168920438Y-58443714D02*
X168968057Y-58396095D01*
X168968057Y-58396095D02*
X169063295Y-58348476D01*
X169063295Y-58348476D02*
X169301390Y-58348476D01*
X169301390Y-58348476D02*
X169396628Y-58396095D01*
X169396628Y-58396095D02*
X169444247Y-58443714D01*
X169444247Y-58443714D02*
X169491866Y-58538952D01*
X169491866Y-58538952D02*
X169491866Y-58729428D01*
X169491866Y-58729428D02*
X169444247Y-58824666D01*
X169444247Y-58824666D02*
X169396628Y-58872285D01*
X169396628Y-58872285D02*
X169301390Y-58919904D01*
X181490857Y-102453580D02*
X181538476Y-102501200D01*
X181538476Y-102501200D02*
X181681333Y-102548819D01*
X181681333Y-102548819D02*
X181776571Y-102548819D01*
X181776571Y-102548819D02*
X181919428Y-102501200D01*
X181919428Y-102501200D02*
X182014666Y-102405961D01*
X182014666Y-102405961D02*
X182062285Y-102310723D01*
X182062285Y-102310723D02*
X182109904Y-102120247D01*
X182109904Y-102120247D02*
X182109904Y-101977390D01*
X182109904Y-101977390D02*
X182062285Y-101786914D01*
X182062285Y-101786914D02*
X182014666Y-101691676D01*
X182014666Y-101691676D02*
X181919428Y-101596438D01*
X181919428Y-101596438D02*
X181776571Y-101548819D01*
X181776571Y-101548819D02*
X181681333Y-101548819D01*
X181681333Y-101548819D02*
X181538476Y-101596438D01*
X181538476Y-101596438D02*
X181490857Y-101644057D01*
X181109904Y-101644057D02*
X181062285Y-101596438D01*
X181062285Y-101596438D02*
X180967047Y-101548819D01*
X180967047Y-101548819D02*
X180728952Y-101548819D01*
X180728952Y-101548819D02*
X180633714Y-101596438D01*
X180633714Y-101596438D02*
X180586095Y-101644057D01*
X180586095Y-101644057D02*
X180538476Y-101739295D01*
X180538476Y-101739295D02*
X180538476Y-101834533D01*
X180538476Y-101834533D02*
X180586095Y-101977390D01*
X180586095Y-101977390D02*
X181157523Y-102548819D01*
X181157523Y-102548819D02*
X180538476Y-102548819D01*
X179919428Y-101548819D02*
X179824190Y-101548819D01*
X179824190Y-101548819D02*
X179728952Y-101596438D01*
X179728952Y-101596438D02*
X179681333Y-101644057D01*
X179681333Y-101644057D02*
X179633714Y-101739295D01*
X179633714Y-101739295D02*
X179586095Y-101929771D01*
X179586095Y-101929771D02*
X179586095Y-102167866D01*
X179586095Y-102167866D02*
X179633714Y-102358342D01*
X179633714Y-102358342D02*
X179681333Y-102453580D01*
X179681333Y-102453580D02*
X179728952Y-102501200D01*
X179728952Y-102501200D02*
X179824190Y-102548819D01*
X179824190Y-102548819D02*
X179919428Y-102548819D01*
X179919428Y-102548819D02*
X180014666Y-102501200D01*
X180014666Y-102501200D02*
X180062285Y-102453580D01*
X180062285Y-102453580D02*
X180109904Y-102358342D01*
X180109904Y-102358342D02*
X180157523Y-102167866D01*
X180157523Y-102167866D02*
X180157523Y-101929771D01*
X180157523Y-101929771D02*
X180109904Y-101739295D01*
X180109904Y-101739295D02*
X180062285Y-101644057D01*
X180062285Y-101644057D02*
X180014666Y-101596438D01*
X180014666Y-101596438D02*
X179919428Y-101548819D01*
X118691819Y-57015142D02*
X118215628Y-56681809D01*
X118691819Y-56443714D02*
X117691819Y-56443714D01*
X117691819Y-56443714D02*
X117691819Y-56824666D01*
X117691819Y-56824666D02*
X117739438Y-56919904D01*
X117739438Y-56919904D02*
X117787057Y-56967523D01*
X117787057Y-56967523D02*
X117882295Y-57015142D01*
X117882295Y-57015142D02*
X118025152Y-57015142D01*
X118025152Y-57015142D02*
X118120390Y-56967523D01*
X118120390Y-56967523D02*
X118168009Y-56919904D01*
X118168009Y-56919904D02*
X118215628Y-56824666D01*
X118215628Y-56824666D02*
X118215628Y-56443714D01*
X117691819Y-57348476D02*
X117691819Y-57967523D01*
X117691819Y-57967523D02*
X118072771Y-57634190D01*
X118072771Y-57634190D02*
X118072771Y-57777047D01*
X118072771Y-57777047D02*
X118120390Y-57872285D01*
X118120390Y-57872285D02*
X118168009Y-57919904D01*
X118168009Y-57919904D02*
X118263247Y-57967523D01*
X118263247Y-57967523D02*
X118501342Y-57967523D01*
X118501342Y-57967523D02*
X118596580Y-57919904D01*
X118596580Y-57919904D02*
X118644200Y-57872285D01*
X118644200Y-57872285D02*
X118691819Y-57777047D01*
X118691819Y-57777047D02*
X118691819Y-57491333D01*
X118691819Y-57491333D02*
X118644200Y-57396095D01*
X118644200Y-57396095D02*
X118596580Y-57348476D01*
X118120390Y-58538952D02*
X118072771Y-58443714D01*
X118072771Y-58443714D02*
X118025152Y-58396095D01*
X118025152Y-58396095D02*
X117929914Y-58348476D01*
X117929914Y-58348476D02*
X117882295Y-58348476D01*
X117882295Y-58348476D02*
X117787057Y-58396095D01*
X117787057Y-58396095D02*
X117739438Y-58443714D01*
X117739438Y-58443714D02*
X117691819Y-58538952D01*
X117691819Y-58538952D02*
X117691819Y-58729428D01*
X117691819Y-58729428D02*
X117739438Y-58824666D01*
X117739438Y-58824666D02*
X117787057Y-58872285D01*
X117787057Y-58872285D02*
X117882295Y-58919904D01*
X117882295Y-58919904D02*
X117929914Y-58919904D01*
X117929914Y-58919904D02*
X118025152Y-58872285D01*
X118025152Y-58872285D02*
X118072771Y-58824666D01*
X118072771Y-58824666D02*
X118120390Y-58729428D01*
X118120390Y-58729428D02*
X118120390Y-58538952D01*
X118120390Y-58538952D02*
X118168009Y-58443714D01*
X118168009Y-58443714D02*
X118215628Y-58396095D01*
X118215628Y-58396095D02*
X118310866Y-58348476D01*
X118310866Y-58348476D02*
X118501342Y-58348476D01*
X118501342Y-58348476D02*
X118596580Y-58396095D01*
X118596580Y-58396095D02*
X118644200Y-58443714D01*
X118644200Y-58443714D02*
X118691819Y-58538952D01*
X118691819Y-58538952D02*
X118691819Y-58729428D01*
X118691819Y-58729428D02*
X118644200Y-58824666D01*
X118644200Y-58824666D02*
X118596580Y-58872285D01*
X118596580Y-58872285D02*
X118501342Y-58919904D01*
X118501342Y-58919904D02*
X118310866Y-58919904D01*
X118310866Y-58919904D02*
X118215628Y-58872285D01*
X118215628Y-58872285D02*
X118168009Y-58824666D01*
X118168009Y-58824666D02*
X118120390Y-58729428D01*
X220542857Y-84254819D02*
X221019047Y-84254819D01*
X221019047Y-84254819D02*
X221019047Y-83254819D01*
X220257142Y-83350057D02*
X220209523Y-83302438D01*
X220209523Y-83302438D02*
X220114285Y-83254819D01*
X220114285Y-83254819D02*
X219876190Y-83254819D01*
X219876190Y-83254819D02*
X219780952Y-83302438D01*
X219780952Y-83302438D02*
X219733333Y-83350057D01*
X219733333Y-83350057D02*
X219685714Y-83445295D01*
X219685714Y-83445295D02*
X219685714Y-83540533D01*
X219685714Y-83540533D02*
X219733333Y-83683390D01*
X219733333Y-83683390D02*
X220304761Y-84254819D01*
X220304761Y-84254819D02*
X219685714Y-84254819D01*
X218780952Y-83254819D02*
X219257142Y-83254819D01*
X219257142Y-83254819D02*
X219304761Y-83731009D01*
X219304761Y-83731009D02*
X219257142Y-83683390D01*
X219257142Y-83683390D02*
X219161904Y-83635771D01*
X219161904Y-83635771D02*
X218923809Y-83635771D01*
X218923809Y-83635771D02*
X218828571Y-83683390D01*
X218828571Y-83683390D02*
X218780952Y-83731009D01*
X218780952Y-83731009D02*
X218733333Y-83826247D01*
X218733333Y-83826247D02*
X218733333Y-84064342D01*
X218733333Y-84064342D02*
X218780952Y-84159580D01*
X218780952Y-84159580D02*
X218828571Y-84207200D01*
X218828571Y-84207200D02*
X218923809Y-84254819D01*
X218923809Y-84254819D02*
X219161904Y-84254819D01*
X219161904Y-84254819D02*
X219257142Y-84207200D01*
X219257142Y-84207200D02*
X219304761Y-84159580D01*
X187892857Y-68109580D02*
X187940476Y-68157200D01*
X187940476Y-68157200D02*
X188083333Y-68204819D01*
X188083333Y-68204819D02*
X188178571Y-68204819D01*
X188178571Y-68204819D02*
X188321428Y-68157200D01*
X188321428Y-68157200D02*
X188416666Y-68061961D01*
X188416666Y-68061961D02*
X188464285Y-67966723D01*
X188464285Y-67966723D02*
X188511904Y-67776247D01*
X188511904Y-67776247D02*
X188511904Y-67633390D01*
X188511904Y-67633390D02*
X188464285Y-67442914D01*
X188464285Y-67442914D02*
X188416666Y-67347676D01*
X188416666Y-67347676D02*
X188321428Y-67252438D01*
X188321428Y-67252438D02*
X188178571Y-67204819D01*
X188178571Y-67204819D02*
X188083333Y-67204819D01*
X188083333Y-67204819D02*
X187940476Y-67252438D01*
X187940476Y-67252438D02*
X187892857Y-67300057D01*
X187321428Y-67633390D02*
X187416666Y-67585771D01*
X187416666Y-67585771D02*
X187464285Y-67538152D01*
X187464285Y-67538152D02*
X187511904Y-67442914D01*
X187511904Y-67442914D02*
X187511904Y-67395295D01*
X187511904Y-67395295D02*
X187464285Y-67300057D01*
X187464285Y-67300057D02*
X187416666Y-67252438D01*
X187416666Y-67252438D02*
X187321428Y-67204819D01*
X187321428Y-67204819D02*
X187130952Y-67204819D01*
X187130952Y-67204819D02*
X187035714Y-67252438D01*
X187035714Y-67252438D02*
X186988095Y-67300057D01*
X186988095Y-67300057D02*
X186940476Y-67395295D01*
X186940476Y-67395295D02*
X186940476Y-67442914D01*
X186940476Y-67442914D02*
X186988095Y-67538152D01*
X186988095Y-67538152D02*
X187035714Y-67585771D01*
X187035714Y-67585771D02*
X187130952Y-67633390D01*
X187130952Y-67633390D02*
X187321428Y-67633390D01*
X187321428Y-67633390D02*
X187416666Y-67681009D01*
X187416666Y-67681009D02*
X187464285Y-67728628D01*
X187464285Y-67728628D02*
X187511904Y-67823866D01*
X187511904Y-67823866D02*
X187511904Y-68014342D01*
X187511904Y-68014342D02*
X187464285Y-68109580D01*
X187464285Y-68109580D02*
X187416666Y-68157200D01*
X187416666Y-68157200D02*
X187321428Y-68204819D01*
X187321428Y-68204819D02*
X187130952Y-68204819D01*
X187130952Y-68204819D02*
X187035714Y-68157200D01*
X187035714Y-68157200D02*
X186988095Y-68109580D01*
X186988095Y-68109580D02*
X186940476Y-68014342D01*
X186940476Y-68014342D02*
X186940476Y-67823866D01*
X186940476Y-67823866D02*
X186988095Y-67728628D01*
X186988095Y-67728628D02*
X187035714Y-67681009D01*
X187035714Y-67681009D02*
X187130952Y-67633390D01*
X186369047Y-67633390D02*
X186464285Y-67585771D01*
X186464285Y-67585771D02*
X186511904Y-67538152D01*
X186511904Y-67538152D02*
X186559523Y-67442914D01*
X186559523Y-67442914D02*
X186559523Y-67395295D01*
X186559523Y-67395295D02*
X186511904Y-67300057D01*
X186511904Y-67300057D02*
X186464285Y-67252438D01*
X186464285Y-67252438D02*
X186369047Y-67204819D01*
X186369047Y-67204819D02*
X186178571Y-67204819D01*
X186178571Y-67204819D02*
X186083333Y-67252438D01*
X186083333Y-67252438D02*
X186035714Y-67300057D01*
X186035714Y-67300057D02*
X185988095Y-67395295D01*
X185988095Y-67395295D02*
X185988095Y-67442914D01*
X185988095Y-67442914D02*
X186035714Y-67538152D01*
X186035714Y-67538152D02*
X186083333Y-67585771D01*
X186083333Y-67585771D02*
X186178571Y-67633390D01*
X186178571Y-67633390D02*
X186369047Y-67633390D01*
X186369047Y-67633390D02*
X186464285Y-67681009D01*
X186464285Y-67681009D02*
X186511904Y-67728628D01*
X186511904Y-67728628D02*
X186559523Y-67823866D01*
X186559523Y-67823866D02*
X186559523Y-68014342D01*
X186559523Y-68014342D02*
X186511904Y-68109580D01*
X186511904Y-68109580D02*
X186464285Y-68157200D01*
X186464285Y-68157200D02*
X186369047Y-68204819D01*
X186369047Y-68204819D02*
X186178571Y-68204819D01*
X186178571Y-68204819D02*
X186083333Y-68157200D01*
X186083333Y-68157200D02*
X186035714Y-68109580D01*
X186035714Y-68109580D02*
X185988095Y-68014342D01*
X185988095Y-68014342D02*
X185988095Y-67823866D01*
X185988095Y-67823866D02*
X186035714Y-67728628D01*
X186035714Y-67728628D02*
X186083333Y-67681009D01*
X186083333Y-67681009D02*
X186178571Y-67633390D01*
X88057357Y-102453580D02*
X88104976Y-102501200D01*
X88104976Y-102501200D02*
X88247833Y-102548819D01*
X88247833Y-102548819D02*
X88343071Y-102548819D01*
X88343071Y-102548819D02*
X88485928Y-102501200D01*
X88485928Y-102501200D02*
X88581166Y-102405961D01*
X88581166Y-102405961D02*
X88628785Y-102310723D01*
X88628785Y-102310723D02*
X88676404Y-102120247D01*
X88676404Y-102120247D02*
X88676404Y-101977390D01*
X88676404Y-101977390D02*
X88628785Y-101786914D01*
X88628785Y-101786914D02*
X88581166Y-101691676D01*
X88581166Y-101691676D02*
X88485928Y-101596438D01*
X88485928Y-101596438D02*
X88343071Y-101548819D01*
X88343071Y-101548819D02*
X88247833Y-101548819D01*
X88247833Y-101548819D02*
X88104976Y-101596438D01*
X88104976Y-101596438D02*
X88057357Y-101644057D01*
X87724023Y-101548819D02*
X87104976Y-101548819D01*
X87104976Y-101548819D02*
X87438309Y-101929771D01*
X87438309Y-101929771D02*
X87295452Y-101929771D01*
X87295452Y-101929771D02*
X87200214Y-101977390D01*
X87200214Y-101977390D02*
X87152595Y-102025009D01*
X87152595Y-102025009D02*
X87104976Y-102120247D01*
X87104976Y-102120247D02*
X87104976Y-102358342D01*
X87104976Y-102358342D02*
X87152595Y-102453580D01*
X87152595Y-102453580D02*
X87200214Y-102501200D01*
X87200214Y-102501200D02*
X87295452Y-102548819D01*
X87295452Y-102548819D02*
X87581166Y-102548819D01*
X87581166Y-102548819D02*
X87676404Y-102501200D01*
X87676404Y-102501200D02*
X87724023Y-102453580D01*
X86247833Y-101548819D02*
X86438309Y-101548819D01*
X86438309Y-101548819D02*
X86533547Y-101596438D01*
X86533547Y-101596438D02*
X86581166Y-101644057D01*
X86581166Y-101644057D02*
X86676404Y-101786914D01*
X86676404Y-101786914D02*
X86724023Y-101977390D01*
X86724023Y-101977390D02*
X86724023Y-102358342D01*
X86724023Y-102358342D02*
X86676404Y-102453580D01*
X86676404Y-102453580D02*
X86628785Y-102501200D01*
X86628785Y-102501200D02*
X86533547Y-102548819D01*
X86533547Y-102548819D02*
X86343071Y-102548819D01*
X86343071Y-102548819D02*
X86247833Y-102501200D01*
X86247833Y-102501200D02*
X86200214Y-102453580D01*
X86200214Y-102453580D02*
X86152595Y-102358342D01*
X86152595Y-102358342D02*
X86152595Y-102120247D01*
X86152595Y-102120247D02*
X86200214Y-102025009D01*
X86200214Y-102025009D02*
X86247833Y-101977390D01*
X86247833Y-101977390D02*
X86343071Y-101929771D01*
X86343071Y-101929771D02*
X86533547Y-101929771D01*
X86533547Y-101929771D02*
X86628785Y-101977390D01*
X86628785Y-101977390D02*
X86676404Y-102025009D01*
X86676404Y-102025009D02*
X86724023Y-102120247D01*
X159429580Y-121857142D02*
X159477200Y-121809523D01*
X159477200Y-121809523D02*
X159524819Y-121666666D01*
X159524819Y-121666666D02*
X159524819Y-121571428D01*
X159524819Y-121571428D02*
X159477200Y-121428571D01*
X159477200Y-121428571D02*
X159381961Y-121333333D01*
X159381961Y-121333333D02*
X159286723Y-121285714D01*
X159286723Y-121285714D02*
X159096247Y-121238095D01*
X159096247Y-121238095D02*
X158953390Y-121238095D01*
X158953390Y-121238095D02*
X158762914Y-121285714D01*
X158762914Y-121285714D02*
X158667676Y-121333333D01*
X158667676Y-121333333D02*
X158572438Y-121428571D01*
X158572438Y-121428571D02*
X158524819Y-121571428D01*
X158524819Y-121571428D02*
X158524819Y-121666666D01*
X158524819Y-121666666D02*
X158572438Y-121809523D01*
X158572438Y-121809523D02*
X158620057Y-121857142D01*
X158524819Y-122761904D02*
X158524819Y-122285714D01*
X158524819Y-122285714D02*
X159001009Y-122238095D01*
X159001009Y-122238095D02*
X158953390Y-122285714D01*
X158953390Y-122285714D02*
X158905771Y-122380952D01*
X158905771Y-122380952D02*
X158905771Y-122619047D01*
X158905771Y-122619047D02*
X158953390Y-122714285D01*
X158953390Y-122714285D02*
X159001009Y-122761904D01*
X159001009Y-122761904D02*
X159096247Y-122809523D01*
X159096247Y-122809523D02*
X159334342Y-122809523D01*
X159334342Y-122809523D02*
X159429580Y-122761904D01*
X159429580Y-122761904D02*
X159477200Y-122714285D01*
X159477200Y-122714285D02*
X159524819Y-122619047D01*
X159524819Y-122619047D02*
X159524819Y-122380952D01*
X159524819Y-122380952D02*
X159477200Y-122285714D01*
X159477200Y-122285714D02*
X159429580Y-122238095D01*
X159524819Y-123761904D02*
X159524819Y-123190476D01*
X159524819Y-123476190D02*
X158524819Y-123476190D01*
X158524819Y-123476190D02*
X158667676Y-123380952D01*
X158667676Y-123380952D02*
X158762914Y-123285714D01*
X158762914Y-123285714D02*
X158810533Y-123190476D01*
X157585580Y-136009142D02*
X157633200Y-135961523D01*
X157633200Y-135961523D02*
X157680819Y-135818666D01*
X157680819Y-135818666D02*
X157680819Y-135723428D01*
X157680819Y-135723428D02*
X157633200Y-135580571D01*
X157633200Y-135580571D02*
X157537961Y-135485333D01*
X157537961Y-135485333D02*
X157442723Y-135437714D01*
X157442723Y-135437714D02*
X157252247Y-135390095D01*
X157252247Y-135390095D02*
X157109390Y-135390095D01*
X157109390Y-135390095D02*
X156918914Y-135437714D01*
X156918914Y-135437714D02*
X156823676Y-135485333D01*
X156823676Y-135485333D02*
X156728438Y-135580571D01*
X156728438Y-135580571D02*
X156680819Y-135723428D01*
X156680819Y-135723428D02*
X156680819Y-135818666D01*
X156680819Y-135818666D02*
X156728438Y-135961523D01*
X156728438Y-135961523D02*
X156776057Y-136009142D01*
X156776057Y-136390095D02*
X156728438Y-136437714D01*
X156728438Y-136437714D02*
X156680819Y-136532952D01*
X156680819Y-136532952D02*
X156680819Y-136771047D01*
X156680819Y-136771047D02*
X156728438Y-136866285D01*
X156728438Y-136866285D02*
X156776057Y-136913904D01*
X156776057Y-136913904D02*
X156871295Y-136961523D01*
X156871295Y-136961523D02*
X156966533Y-136961523D01*
X156966533Y-136961523D02*
X157109390Y-136913904D01*
X157109390Y-136913904D02*
X157680819Y-136342476D01*
X157680819Y-136342476D02*
X157680819Y-136961523D01*
X156680819Y-137294857D02*
X156680819Y-137913904D01*
X156680819Y-137913904D02*
X157061771Y-137580571D01*
X157061771Y-137580571D02*
X157061771Y-137723428D01*
X157061771Y-137723428D02*
X157109390Y-137818666D01*
X157109390Y-137818666D02*
X157157009Y-137866285D01*
X157157009Y-137866285D02*
X157252247Y-137913904D01*
X157252247Y-137913904D02*
X157490342Y-137913904D01*
X157490342Y-137913904D02*
X157585580Y-137866285D01*
X157585580Y-137866285D02*
X157633200Y-137818666D01*
X157633200Y-137818666D02*
X157680819Y-137723428D01*
X157680819Y-137723428D02*
X157680819Y-137437714D01*
X157680819Y-137437714D02*
X157633200Y-137342476D01*
X157633200Y-137342476D02*
X157585580Y-137294857D01*
X106046166Y-84687580D02*
X106093785Y-84735200D01*
X106093785Y-84735200D02*
X106236642Y-84782819D01*
X106236642Y-84782819D02*
X106331880Y-84782819D01*
X106331880Y-84782819D02*
X106474737Y-84735200D01*
X106474737Y-84735200D02*
X106569975Y-84639961D01*
X106569975Y-84639961D02*
X106617594Y-84544723D01*
X106617594Y-84544723D02*
X106665213Y-84354247D01*
X106665213Y-84354247D02*
X106665213Y-84211390D01*
X106665213Y-84211390D02*
X106617594Y-84020914D01*
X106617594Y-84020914D02*
X106569975Y-83925676D01*
X106569975Y-83925676D02*
X106474737Y-83830438D01*
X106474737Y-83830438D02*
X106331880Y-83782819D01*
X106331880Y-83782819D02*
X106236642Y-83782819D01*
X106236642Y-83782819D02*
X106093785Y-83830438D01*
X106093785Y-83830438D02*
X106046166Y-83878057D01*
X105712832Y-83782819D02*
X105093785Y-83782819D01*
X105093785Y-83782819D02*
X105427118Y-84163771D01*
X105427118Y-84163771D02*
X105284261Y-84163771D01*
X105284261Y-84163771D02*
X105189023Y-84211390D01*
X105189023Y-84211390D02*
X105141404Y-84259009D01*
X105141404Y-84259009D02*
X105093785Y-84354247D01*
X105093785Y-84354247D02*
X105093785Y-84592342D01*
X105093785Y-84592342D02*
X105141404Y-84687580D01*
X105141404Y-84687580D02*
X105189023Y-84735200D01*
X105189023Y-84735200D02*
X105284261Y-84782819D01*
X105284261Y-84782819D02*
X105569975Y-84782819D01*
X105569975Y-84782819D02*
X105665213Y-84735200D01*
X105665213Y-84735200D02*
X105712832Y-84687580D01*
X186824857Y-102453580D02*
X186872476Y-102501200D01*
X186872476Y-102501200D02*
X187015333Y-102548819D01*
X187015333Y-102548819D02*
X187110571Y-102548819D01*
X187110571Y-102548819D02*
X187253428Y-102501200D01*
X187253428Y-102501200D02*
X187348666Y-102405961D01*
X187348666Y-102405961D02*
X187396285Y-102310723D01*
X187396285Y-102310723D02*
X187443904Y-102120247D01*
X187443904Y-102120247D02*
X187443904Y-101977390D01*
X187443904Y-101977390D02*
X187396285Y-101786914D01*
X187396285Y-101786914D02*
X187348666Y-101691676D01*
X187348666Y-101691676D02*
X187253428Y-101596438D01*
X187253428Y-101596438D02*
X187110571Y-101548819D01*
X187110571Y-101548819D02*
X187015333Y-101548819D01*
X187015333Y-101548819D02*
X186872476Y-101596438D01*
X186872476Y-101596438D02*
X186824857Y-101644057D01*
X185872476Y-102548819D02*
X186443904Y-102548819D01*
X186158190Y-102548819D02*
X186158190Y-101548819D01*
X186158190Y-101548819D02*
X186253428Y-101691676D01*
X186253428Y-101691676D02*
X186348666Y-101786914D01*
X186348666Y-101786914D02*
X186443904Y-101834533D01*
X185539142Y-101548819D02*
X184872476Y-101548819D01*
X184872476Y-101548819D02*
X185301047Y-102548819D01*
X121485819Y-57015142D02*
X121009628Y-56681809D01*
X121485819Y-56443714D02*
X120485819Y-56443714D01*
X120485819Y-56443714D02*
X120485819Y-56824666D01*
X120485819Y-56824666D02*
X120533438Y-56919904D01*
X120533438Y-56919904D02*
X120581057Y-56967523D01*
X120581057Y-56967523D02*
X120676295Y-57015142D01*
X120676295Y-57015142D02*
X120819152Y-57015142D01*
X120819152Y-57015142D02*
X120914390Y-56967523D01*
X120914390Y-56967523D02*
X120962009Y-56919904D01*
X120962009Y-56919904D02*
X121009628Y-56824666D01*
X121009628Y-56824666D02*
X121009628Y-56443714D01*
X120485819Y-57919904D02*
X120485819Y-57443714D01*
X120485819Y-57443714D02*
X120962009Y-57396095D01*
X120962009Y-57396095D02*
X120914390Y-57443714D01*
X120914390Y-57443714D02*
X120866771Y-57538952D01*
X120866771Y-57538952D02*
X120866771Y-57777047D01*
X120866771Y-57777047D02*
X120914390Y-57872285D01*
X120914390Y-57872285D02*
X120962009Y-57919904D01*
X120962009Y-57919904D02*
X121057247Y-57967523D01*
X121057247Y-57967523D02*
X121295342Y-57967523D01*
X121295342Y-57967523D02*
X121390580Y-57919904D01*
X121390580Y-57919904D02*
X121438200Y-57872285D01*
X121438200Y-57872285D02*
X121485819Y-57777047D01*
X121485819Y-57777047D02*
X121485819Y-57538952D01*
X121485819Y-57538952D02*
X121438200Y-57443714D01*
X121438200Y-57443714D02*
X121390580Y-57396095D01*
X120485819Y-58872285D02*
X120485819Y-58396095D01*
X120485819Y-58396095D02*
X120962009Y-58348476D01*
X120962009Y-58348476D02*
X120914390Y-58396095D01*
X120914390Y-58396095D02*
X120866771Y-58491333D01*
X120866771Y-58491333D02*
X120866771Y-58729428D01*
X120866771Y-58729428D02*
X120914390Y-58824666D01*
X120914390Y-58824666D02*
X120962009Y-58872285D01*
X120962009Y-58872285D02*
X121057247Y-58919904D01*
X121057247Y-58919904D02*
X121295342Y-58919904D01*
X121295342Y-58919904D02*
X121390580Y-58872285D01*
X121390580Y-58872285D02*
X121438200Y-58824666D01*
X121438200Y-58824666D02*
X121485819Y-58729428D01*
X121485819Y-58729428D02*
X121485819Y-58491333D01*
X121485819Y-58491333D02*
X121438200Y-58396095D01*
X121438200Y-58396095D02*
X121390580Y-58348476D01*
X111640857Y-84687580D02*
X111688476Y-84735200D01*
X111688476Y-84735200D02*
X111831333Y-84782819D01*
X111831333Y-84782819D02*
X111926571Y-84782819D01*
X111926571Y-84782819D02*
X112069428Y-84735200D01*
X112069428Y-84735200D02*
X112164666Y-84639961D01*
X112164666Y-84639961D02*
X112212285Y-84544723D01*
X112212285Y-84544723D02*
X112259904Y-84354247D01*
X112259904Y-84354247D02*
X112259904Y-84211390D01*
X112259904Y-84211390D02*
X112212285Y-84020914D01*
X112212285Y-84020914D02*
X112164666Y-83925676D01*
X112164666Y-83925676D02*
X112069428Y-83830438D01*
X112069428Y-83830438D02*
X111926571Y-83782819D01*
X111926571Y-83782819D02*
X111831333Y-83782819D01*
X111831333Y-83782819D02*
X111688476Y-83830438D01*
X111688476Y-83830438D02*
X111640857Y-83878057D01*
X110688476Y-84782819D02*
X111259904Y-84782819D01*
X110974190Y-84782819D02*
X110974190Y-83782819D01*
X110974190Y-83782819D02*
X111069428Y-83925676D01*
X111069428Y-83925676D02*
X111164666Y-84020914D01*
X111164666Y-84020914D02*
X111259904Y-84068533D01*
X110069428Y-83782819D02*
X109974190Y-83782819D01*
X109974190Y-83782819D02*
X109878952Y-83830438D01*
X109878952Y-83830438D02*
X109831333Y-83878057D01*
X109831333Y-83878057D02*
X109783714Y-83973295D01*
X109783714Y-83973295D02*
X109736095Y-84163771D01*
X109736095Y-84163771D02*
X109736095Y-84401866D01*
X109736095Y-84401866D02*
X109783714Y-84592342D01*
X109783714Y-84592342D02*
X109831333Y-84687580D01*
X109831333Y-84687580D02*
X109878952Y-84735200D01*
X109878952Y-84735200D02*
X109974190Y-84782819D01*
X109974190Y-84782819D02*
X110069428Y-84782819D01*
X110069428Y-84782819D02*
X110164666Y-84735200D01*
X110164666Y-84735200D02*
X110212285Y-84687580D01*
X110212285Y-84687580D02*
X110259904Y-84592342D01*
X110259904Y-84592342D02*
X110307523Y-84401866D01*
X110307523Y-84401866D02*
X110307523Y-84163771D01*
X110307523Y-84163771D02*
X110259904Y-83973295D01*
X110259904Y-83973295D02*
X110212285Y-83878057D01*
X110212285Y-83878057D02*
X110164666Y-83830438D01*
X110164666Y-83830438D02*
X110069428Y-83782819D01*
X185642857Y-72609580D02*
X185690476Y-72657200D01*
X185690476Y-72657200D02*
X185833333Y-72704819D01*
X185833333Y-72704819D02*
X185928571Y-72704819D01*
X185928571Y-72704819D02*
X186071428Y-72657200D01*
X186071428Y-72657200D02*
X186166666Y-72561961D01*
X186166666Y-72561961D02*
X186214285Y-72466723D01*
X186214285Y-72466723D02*
X186261904Y-72276247D01*
X186261904Y-72276247D02*
X186261904Y-72133390D01*
X186261904Y-72133390D02*
X186214285Y-71942914D01*
X186214285Y-71942914D02*
X186166666Y-71847676D01*
X186166666Y-71847676D02*
X186071428Y-71752438D01*
X186071428Y-71752438D02*
X185928571Y-71704819D01*
X185928571Y-71704819D02*
X185833333Y-71704819D01*
X185833333Y-71704819D02*
X185690476Y-71752438D01*
X185690476Y-71752438D02*
X185642857Y-71800057D01*
X185071428Y-72133390D02*
X185166666Y-72085771D01*
X185166666Y-72085771D02*
X185214285Y-72038152D01*
X185214285Y-72038152D02*
X185261904Y-71942914D01*
X185261904Y-71942914D02*
X185261904Y-71895295D01*
X185261904Y-71895295D02*
X185214285Y-71800057D01*
X185214285Y-71800057D02*
X185166666Y-71752438D01*
X185166666Y-71752438D02*
X185071428Y-71704819D01*
X185071428Y-71704819D02*
X184880952Y-71704819D01*
X184880952Y-71704819D02*
X184785714Y-71752438D01*
X184785714Y-71752438D02*
X184738095Y-71800057D01*
X184738095Y-71800057D02*
X184690476Y-71895295D01*
X184690476Y-71895295D02*
X184690476Y-71942914D01*
X184690476Y-71942914D02*
X184738095Y-72038152D01*
X184738095Y-72038152D02*
X184785714Y-72085771D01*
X184785714Y-72085771D02*
X184880952Y-72133390D01*
X184880952Y-72133390D02*
X185071428Y-72133390D01*
X185071428Y-72133390D02*
X185166666Y-72181009D01*
X185166666Y-72181009D02*
X185214285Y-72228628D01*
X185214285Y-72228628D02*
X185261904Y-72323866D01*
X185261904Y-72323866D02*
X185261904Y-72514342D01*
X185261904Y-72514342D02*
X185214285Y-72609580D01*
X185214285Y-72609580D02*
X185166666Y-72657200D01*
X185166666Y-72657200D02*
X185071428Y-72704819D01*
X185071428Y-72704819D02*
X184880952Y-72704819D01*
X184880952Y-72704819D02*
X184785714Y-72657200D01*
X184785714Y-72657200D02*
X184738095Y-72609580D01*
X184738095Y-72609580D02*
X184690476Y-72514342D01*
X184690476Y-72514342D02*
X184690476Y-72323866D01*
X184690476Y-72323866D02*
X184738095Y-72228628D01*
X184738095Y-72228628D02*
X184785714Y-72181009D01*
X184785714Y-72181009D02*
X184880952Y-72133390D01*
X184357142Y-71704819D02*
X183690476Y-71704819D01*
X183690476Y-71704819D02*
X184119047Y-72704819D01*
X135643857Y-65039580D02*
X135691476Y-65087200D01*
X135691476Y-65087200D02*
X135834333Y-65134819D01*
X135834333Y-65134819D02*
X135929571Y-65134819D01*
X135929571Y-65134819D02*
X136072428Y-65087200D01*
X136072428Y-65087200D02*
X136167666Y-64991961D01*
X136167666Y-64991961D02*
X136215285Y-64896723D01*
X136215285Y-64896723D02*
X136262904Y-64706247D01*
X136262904Y-64706247D02*
X136262904Y-64563390D01*
X136262904Y-64563390D02*
X136215285Y-64372914D01*
X136215285Y-64372914D02*
X136167666Y-64277676D01*
X136167666Y-64277676D02*
X136072428Y-64182438D01*
X136072428Y-64182438D02*
X135929571Y-64134819D01*
X135929571Y-64134819D02*
X135834333Y-64134819D01*
X135834333Y-64134819D02*
X135691476Y-64182438D01*
X135691476Y-64182438D02*
X135643857Y-64230057D01*
X135072428Y-64563390D02*
X135167666Y-64515771D01*
X135167666Y-64515771D02*
X135215285Y-64468152D01*
X135215285Y-64468152D02*
X135262904Y-64372914D01*
X135262904Y-64372914D02*
X135262904Y-64325295D01*
X135262904Y-64325295D02*
X135215285Y-64230057D01*
X135215285Y-64230057D02*
X135167666Y-64182438D01*
X135167666Y-64182438D02*
X135072428Y-64134819D01*
X135072428Y-64134819D02*
X134881952Y-64134819D01*
X134881952Y-64134819D02*
X134786714Y-64182438D01*
X134786714Y-64182438D02*
X134739095Y-64230057D01*
X134739095Y-64230057D02*
X134691476Y-64325295D01*
X134691476Y-64325295D02*
X134691476Y-64372914D01*
X134691476Y-64372914D02*
X134739095Y-64468152D01*
X134739095Y-64468152D02*
X134786714Y-64515771D01*
X134786714Y-64515771D02*
X134881952Y-64563390D01*
X134881952Y-64563390D02*
X135072428Y-64563390D01*
X135072428Y-64563390D02*
X135167666Y-64611009D01*
X135167666Y-64611009D02*
X135215285Y-64658628D01*
X135215285Y-64658628D02*
X135262904Y-64753866D01*
X135262904Y-64753866D02*
X135262904Y-64944342D01*
X135262904Y-64944342D02*
X135215285Y-65039580D01*
X135215285Y-65039580D02*
X135167666Y-65087200D01*
X135167666Y-65087200D02*
X135072428Y-65134819D01*
X135072428Y-65134819D02*
X134881952Y-65134819D01*
X134881952Y-65134819D02*
X134786714Y-65087200D01*
X134786714Y-65087200D02*
X134739095Y-65039580D01*
X134739095Y-65039580D02*
X134691476Y-64944342D01*
X134691476Y-64944342D02*
X134691476Y-64753866D01*
X134691476Y-64753866D02*
X134739095Y-64658628D01*
X134739095Y-64658628D02*
X134786714Y-64611009D01*
X134786714Y-64611009D02*
X134881952Y-64563390D01*
X133786714Y-64134819D02*
X134262904Y-64134819D01*
X134262904Y-64134819D02*
X134310523Y-64611009D01*
X134310523Y-64611009D02*
X134262904Y-64563390D01*
X134262904Y-64563390D02*
X134167666Y-64515771D01*
X134167666Y-64515771D02*
X133929571Y-64515771D01*
X133929571Y-64515771D02*
X133834333Y-64563390D01*
X133834333Y-64563390D02*
X133786714Y-64611009D01*
X133786714Y-64611009D02*
X133739095Y-64706247D01*
X133739095Y-64706247D02*
X133739095Y-64944342D01*
X133739095Y-64944342D02*
X133786714Y-65039580D01*
X133786714Y-65039580D02*
X133834333Y-65087200D01*
X133834333Y-65087200D02*
X133929571Y-65134819D01*
X133929571Y-65134819D02*
X134167666Y-65134819D01*
X134167666Y-65134819D02*
X134262904Y-65087200D01*
X134262904Y-65087200D02*
X134310523Y-65039580D01*
X207179580Y-128389142D02*
X207227200Y-128341523D01*
X207227200Y-128341523D02*
X207274819Y-128198666D01*
X207274819Y-128198666D02*
X207274819Y-128103428D01*
X207274819Y-128103428D02*
X207227200Y-127960571D01*
X207227200Y-127960571D02*
X207131961Y-127865333D01*
X207131961Y-127865333D02*
X207036723Y-127817714D01*
X207036723Y-127817714D02*
X206846247Y-127770095D01*
X206846247Y-127770095D02*
X206703390Y-127770095D01*
X206703390Y-127770095D02*
X206512914Y-127817714D01*
X206512914Y-127817714D02*
X206417676Y-127865333D01*
X206417676Y-127865333D02*
X206322438Y-127960571D01*
X206322438Y-127960571D02*
X206274819Y-128103428D01*
X206274819Y-128103428D02*
X206274819Y-128198666D01*
X206274819Y-128198666D02*
X206322438Y-128341523D01*
X206322438Y-128341523D02*
X206370057Y-128389142D01*
X206608152Y-129246285D02*
X207274819Y-129246285D01*
X206227200Y-129008190D02*
X206941485Y-128770095D01*
X206941485Y-128770095D02*
X206941485Y-129389142D01*
X207274819Y-130293904D02*
X207274819Y-129722476D01*
X207274819Y-130008190D02*
X206274819Y-130008190D01*
X206274819Y-130008190D02*
X206417676Y-129912952D01*
X206417676Y-129912952D02*
X206512914Y-129817714D01*
X206512914Y-129817714D02*
X206560533Y-129722476D01*
X160429580Y-128357142D02*
X160477200Y-128309523D01*
X160477200Y-128309523D02*
X160524819Y-128166666D01*
X160524819Y-128166666D02*
X160524819Y-128071428D01*
X160524819Y-128071428D02*
X160477200Y-127928571D01*
X160477200Y-127928571D02*
X160381961Y-127833333D01*
X160381961Y-127833333D02*
X160286723Y-127785714D01*
X160286723Y-127785714D02*
X160096247Y-127738095D01*
X160096247Y-127738095D02*
X159953390Y-127738095D01*
X159953390Y-127738095D02*
X159762914Y-127785714D01*
X159762914Y-127785714D02*
X159667676Y-127833333D01*
X159667676Y-127833333D02*
X159572438Y-127928571D01*
X159572438Y-127928571D02*
X159524819Y-128071428D01*
X159524819Y-128071428D02*
X159524819Y-128166666D01*
X159524819Y-128166666D02*
X159572438Y-128309523D01*
X159572438Y-128309523D02*
X159620057Y-128357142D01*
X159524819Y-129261904D02*
X159524819Y-128785714D01*
X159524819Y-128785714D02*
X160001009Y-128738095D01*
X160001009Y-128738095D02*
X159953390Y-128785714D01*
X159953390Y-128785714D02*
X159905771Y-128880952D01*
X159905771Y-128880952D02*
X159905771Y-129119047D01*
X159905771Y-129119047D02*
X159953390Y-129214285D01*
X159953390Y-129214285D02*
X160001009Y-129261904D01*
X160001009Y-129261904D02*
X160096247Y-129309523D01*
X160096247Y-129309523D02*
X160334342Y-129309523D01*
X160334342Y-129309523D02*
X160429580Y-129261904D01*
X160429580Y-129261904D02*
X160477200Y-129214285D01*
X160477200Y-129214285D02*
X160524819Y-129119047D01*
X160524819Y-129119047D02*
X160524819Y-128880952D01*
X160524819Y-128880952D02*
X160477200Y-128785714D01*
X160477200Y-128785714D02*
X160429580Y-128738095D01*
X159524819Y-129642857D02*
X159524819Y-130261904D01*
X159524819Y-130261904D02*
X159905771Y-129928571D01*
X159905771Y-129928571D02*
X159905771Y-130071428D01*
X159905771Y-130071428D02*
X159953390Y-130166666D01*
X159953390Y-130166666D02*
X160001009Y-130214285D01*
X160001009Y-130214285D02*
X160096247Y-130261904D01*
X160096247Y-130261904D02*
X160334342Y-130261904D01*
X160334342Y-130261904D02*
X160429580Y-130214285D01*
X160429580Y-130214285D02*
X160477200Y-130166666D01*
X160477200Y-130166666D02*
X160524819Y-130071428D01*
X160524819Y-130071428D02*
X160524819Y-129785714D01*
X160524819Y-129785714D02*
X160477200Y-129690476D01*
X160477200Y-129690476D02*
X160429580Y-129642857D01*
X149867580Y-125595142D02*
X149915200Y-125547523D01*
X149915200Y-125547523D02*
X149962819Y-125404666D01*
X149962819Y-125404666D02*
X149962819Y-125309428D01*
X149962819Y-125309428D02*
X149915200Y-125166571D01*
X149915200Y-125166571D02*
X149819961Y-125071333D01*
X149819961Y-125071333D02*
X149724723Y-125023714D01*
X149724723Y-125023714D02*
X149534247Y-124976095D01*
X149534247Y-124976095D02*
X149391390Y-124976095D01*
X149391390Y-124976095D02*
X149200914Y-125023714D01*
X149200914Y-125023714D02*
X149105676Y-125071333D01*
X149105676Y-125071333D02*
X149010438Y-125166571D01*
X149010438Y-125166571D02*
X148962819Y-125309428D01*
X148962819Y-125309428D02*
X148962819Y-125404666D01*
X148962819Y-125404666D02*
X149010438Y-125547523D01*
X149010438Y-125547523D02*
X149058057Y-125595142D01*
X148962819Y-126499904D02*
X148962819Y-126023714D01*
X148962819Y-126023714D02*
X149439009Y-125976095D01*
X149439009Y-125976095D02*
X149391390Y-126023714D01*
X149391390Y-126023714D02*
X149343771Y-126118952D01*
X149343771Y-126118952D02*
X149343771Y-126357047D01*
X149343771Y-126357047D02*
X149391390Y-126452285D01*
X149391390Y-126452285D02*
X149439009Y-126499904D01*
X149439009Y-126499904D02*
X149534247Y-126547523D01*
X149534247Y-126547523D02*
X149772342Y-126547523D01*
X149772342Y-126547523D02*
X149867580Y-126499904D01*
X149867580Y-126499904D02*
X149915200Y-126452285D01*
X149915200Y-126452285D02*
X149962819Y-126357047D01*
X149962819Y-126357047D02*
X149962819Y-126118952D01*
X149962819Y-126118952D02*
X149915200Y-126023714D01*
X149915200Y-126023714D02*
X149867580Y-125976095D01*
X148962819Y-127166571D02*
X148962819Y-127261809D01*
X148962819Y-127261809D02*
X149010438Y-127357047D01*
X149010438Y-127357047D02*
X149058057Y-127404666D01*
X149058057Y-127404666D02*
X149153295Y-127452285D01*
X149153295Y-127452285D02*
X149343771Y-127499904D01*
X149343771Y-127499904D02*
X149581866Y-127499904D01*
X149581866Y-127499904D02*
X149772342Y-127452285D01*
X149772342Y-127452285D02*
X149867580Y-127404666D01*
X149867580Y-127404666D02*
X149915200Y-127357047D01*
X149915200Y-127357047D02*
X149962819Y-127261809D01*
X149962819Y-127261809D02*
X149962819Y-127166571D01*
X149962819Y-127166571D02*
X149915200Y-127071333D01*
X149915200Y-127071333D02*
X149867580Y-127023714D01*
X149867580Y-127023714D02*
X149772342Y-126976095D01*
X149772342Y-126976095D02*
X149581866Y-126928476D01*
X149581866Y-126928476D02*
X149343771Y-126928476D01*
X149343771Y-126928476D02*
X149153295Y-126976095D01*
X149153295Y-126976095D02*
X149058057Y-127023714D01*
X149058057Y-127023714D02*
X149010438Y-127071333D01*
X149010438Y-127071333D02*
X148962819Y-127166571D01*
X138967857Y-70336580D02*
X139015476Y-70384200D01*
X139015476Y-70384200D02*
X139158333Y-70431819D01*
X139158333Y-70431819D02*
X139253571Y-70431819D01*
X139253571Y-70431819D02*
X139396428Y-70384200D01*
X139396428Y-70384200D02*
X139491666Y-70288961D01*
X139491666Y-70288961D02*
X139539285Y-70193723D01*
X139539285Y-70193723D02*
X139586904Y-70003247D01*
X139586904Y-70003247D02*
X139586904Y-69860390D01*
X139586904Y-69860390D02*
X139539285Y-69669914D01*
X139539285Y-69669914D02*
X139491666Y-69574676D01*
X139491666Y-69574676D02*
X139396428Y-69479438D01*
X139396428Y-69479438D02*
X139253571Y-69431819D01*
X139253571Y-69431819D02*
X139158333Y-69431819D01*
X139158333Y-69431819D02*
X139015476Y-69479438D01*
X139015476Y-69479438D02*
X138967857Y-69527057D01*
X138396428Y-69860390D02*
X138491666Y-69812771D01*
X138491666Y-69812771D02*
X138539285Y-69765152D01*
X138539285Y-69765152D02*
X138586904Y-69669914D01*
X138586904Y-69669914D02*
X138586904Y-69622295D01*
X138586904Y-69622295D02*
X138539285Y-69527057D01*
X138539285Y-69527057D02*
X138491666Y-69479438D01*
X138491666Y-69479438D02*
X138396428Y-69431819D01*
X138396428Y-69431819D02*
X138205952Y-69431819D01*
X138205952Y-69431819D02*
X138110714Y-69479438D01*
X138110714Y-69479438D02*
X138063095Y-69527057D01*
X138063095Y-69527057D02*
X138015476Y-69622295D01*
X138015476Y-69622295D02*
X138015476Y-69669914D01*
X138015476Y-69669914D02*
X138063095Y-69765152D01*
X138063095Y-69765152D02*
X138110714Y-69812771D01*
X138110714Y-69812771D02*
X138205952Y-69860390D01*
X138205952Y-69860390D02*
X138396428Y-69860390D01*
X138396428Y-69860390D02*
X138491666Y-69908009D01*
X138491666Y-69908009D02*
X138539285Y-69955628D01*
X138539285Y-69955628D02*
X138586904Y-70050866D01*
X138586904Y-70050866D02*
X138586904Y-70241342D01*
X138586904Y-70241342D02*
X138539285Y-70336580D01*
X138539285Y-70336580D02*
X138491666Y-70384200D01*
X138491666Y-70384200D02*
X138396428Y-70431819D01*
X138396428Y-70431819D02*
X138205952Y-70431819D01*
X138205952Y-70431819D02*
X138110714Y-70384200D01*
X138110714Y-70384200D02*
X138063095Y-70336580D01*
X138063095Y-70336580D02*
X138015476Y-70241342D01*
X138015476Y-70241342D02*
X138015476Y-70050866D01*
X138015476Y-70050866D02*
X138063095Y-69955628D01*
X138063095Y-69955628D02*
X138110714Y-69908009D01*
X138110714Y-69908009D02*
X138205952Y-69860390D01*
X137634523Y-69527057D02*
X137586904Y-69479438D01*
X137586904Y-69479438D02*
X137491666Y-69431819D01*
X137491666Y-69431819D02*
X137253571Y-69431819D01*
X137253571Y-69431819D02*
X137158333Y-69479438D01*
X137158333Y-69479438D02*
X137110714Y-69527057D01*
X137110714Y-69527057D02*
X137063095Y-69622295D01*
X137063095Y-69622295D02*
X137063095Y-69717533D01*
X137063095Y-69717533D02*
X137110714Y-69860390D01*
X137110714Y-69860390D02*
X137682142Y-70431819D01*
X137682142Y-70431819D02*
X137063095Y-70431819D01*
X91642857Y-72359580D02*
X91690476Y-72407200D01*
X91690476Y-72407200D02*
X91833333Y-72454819D01*
X91833333Y-72454819D02*
X91928571Y-72454819D01*
X91928571Y-72454819D02*
X92071428Y-72407200D01*
X92071428Y-72407200D02*
X92166666Y-72311961D01*
X92166666Y-72311961D02*
X92214285Y-72216723D01*
X92214285Y-72216723D02*
X92261904Y-72026247D01*
X92261904Y-72026247D02*
X92261904Y-71883390D01*
X92261904Y-71883390D02*
X92214285Y-71692914D01*
X92214285Y-71692914D02*
X92166666Y-71597676D01*
X92166666Y-71597676D02*
X92071428Y-71502438D01*
X92071428Y-71502438D02*
X91928571Y-71454819D01*
X91928571Y-71454819D02*
X91833333Y-71454819D01*
X91833333Y-71454819D02*
X91690476Y-71502438D01*
X91690476Y-71502438D02*
X91642857Y-71550057D01*
X90785714Y-71788152D02*
X90785714Y-72454819D01*
X91023809Y-71407200D02*
X91261904Y-72121485D01*
X91261904Y-72121485D02*
X90642857Y-72121485D01*
X89785714Y-71454819D02*
X90261904Y-71454819D01*
X90261904Y-71454819D02*
X90309523Y-71931009D01*
X90309523Y-71931009D02*
X90261904Y-71883390D01*
X90261904Y-71883390D02*
X90166666Y-71835771D01*
X90166666Y-71835771D02*
X89928571Y-71835771D01*
X89928571Y-71835771D02*
X89833333Y-71883390D01*
X89833333Y-71883390D02*
X89785714Y-71931009D01*
X89785714Y-71931009D02*
X89738095Y-72026247D01*
X89738095Y-72026247D02*
X89738095Y-72264342D01*
X89738095Y-72264342D02*
X89785714Y-72359580D01*
X89785714Y-72359580D02*
X89833333Y-72407200D01*
X89833333Y-72407200D02*
X89928571Y-72454819D01*
X89928571Y-72454819D02*
X90166666Y-72454819D01*
X90166666Y-72454819D02*
X90261904Y-72407200D01*
X90261904Y-72407200D02*
X90309523Y-72359580D01*
D14*
%TO.C,C83*%
X141254748Y-71401000D02*
X141777252Y-71401000D01*
X141254748Y-72871000D02*
X141777252Y-72871000D01*
%TO.C,C49*%
X205308252Y-85254000D02*
X203885748Y-85254000D01*
X205308252Y-87974000D02*
X203885748Y-87974000D01*
%TO.C,R3*%
X152681000Y-139980936D02*
X152681000Y-140435064D01*
X154151000Y-139980936D02*
X154151000Y-140435064D01*
%TO.C,C14*%
X133400748Y-103034000D02*
X134823252Y-103034000D01*
X133400748Y-105754000D02*
X134823252Y-105754000D01*
%TO.C,C1*%
X87510252Y-62448750D02*
X86987748Y-62448750D01*
X87510252Y-63918750D02*
X86987748Y-63918750D01*
%TO.C,R37*%
X114708000Y-61822064D02*
X114708000Y-61367936D01*
X116178000Y-61822064D02*
X116178000Y-61367936D01*
%TO.C,C89*%
X180728252Y-62265000D02*
X180205748Y-62265000D01*
X180728252Y-63735000D02*
X180205748Y-63735000D01*
%TO.C,C22*%
X103405000Y-140469252D02*
X103405000Y-139946748D01*
X104875000Y-140469252D02*
X104875000Y-139946748D01*
%TO.C,R94*%
X211355000Y-61695064D02*
X211355000Y-61240936D01*
X212825000Y-61695064D02*
X212825000Y-61240936D01*
%TO.C,C44*%
X200228252Y-85254000D02*
X198805748Y-85254000D01*
X200228252Y-87974000D02*
X198805748Y-87974000D01*
%TO.C,C15*%
X153365252Y-85254000D02*
X151942748Y-85254000D01*
X153365252Y-87974000D02*
X151942748Y-87974000D01*
%TO.C,C31*%
X91998748Y-103034000D02*
X93421252Y-103034000D01*
X91998748Y-105754000D02*
X93421252Y-105754000D01*
%TO.C,C76*%
X113265000Y-122761252D02*
X113265000Y-122238748D01*
X114735000Y-122761252D02*
X114735000Y-122238748D01*
%TO.C,C86*%
X188238748Y-69265000D02*
X188761252Y-69265000D01*
X188238748Y-70735000D02*
X188761252Y-70735000D01*
%TO.C,R4*%
X199671000Y-139980936D02*
X199671000Y-140435064D01*
X201141000Y-139980936D02*
X201141000Y-140435064D01*
%TO.C,C5*%
X164265000Y-90416748D02*
X164265000Y-90939252D01*
X165735000Y-90416748D02*
X165735000Y-90939252D01*
%TO.C,C21*%
X109501000Y-140469252D02*
X109501000Y-139946748D01*
X110971000Y-140469252D02*
X110971000Y-139946748D01*
%TO.C,C46*%
X94238748Y-69242000D02*
X94761252Y-69242000D01*
X94238748Y-70712000D02*
X94761252Y-70712000D01*
%TO.C,C28*%
X194083000Y-125976748D02*
X194083000Y-126499252D01*
X195553000Y-125976748D02*
X195553000Y-126499252D01*
%TO.C,R96*%
X214149000Y-61695064D02*
X214149000Y-61240936D01*
X215619000Y-61695064D02*
X215619000Y-61240936D01*
%TO.C,C35*%
X117515000Y-90416748D02*
X117515000Y-90939252D01*
X118985000Y-90416748D02*
X118985000Y-90939252D01*
%TO.C,C78*%
X114265000Y-128770748D02*
X114265000Y-129293252D01*
X115735000Y-128770748D02*
X115735000Y-129293252D01*
%TO.C,C11*%
X138734748Y-103034000D02*
X140157252Y-103034000D01*
X138734748Y-105754000D02*
X140157252Y-105754000D01*
%TO.C,C43*%
X158445252Y-85254000D02*
X157022748Y-85254000D01*
X158445252Y-87974000D02*
X157022748Y-87974000D01*
%TO.C,C42*%
X207015000Y-123011252D02*
X207015000Y-122488748D01*
X208485000Y-123011252D02*
X208485000Y-122488748D01*
%TO.C,C24*%
X150395000Y-140469252D02*
X150395000Y-139946748D01*
X151865000Y-140469252D02*
X151865000Y-139946748D01*
%TO.C,C80*%
X221490000Y-87588748D02*
X221490000Y-89011252D01*
X223310000Y-87588748D02*
X223310000Y-89011252D01*
%TO.C,R90*%
X208561000Y-61695064D02*
X208561000Y-61240936D01*
X210031000Y-61695064D02*
X210031000Y-61240936D01*
%TO.C,R88*%
X165889000Y-61695064D02*
X165889000Y-61240936D01*
X167359000Y-61695064D02*
X167359000Y-61240936D01*
%TO.C,C25*%
X203481000Y-140469252D02*
X203481000Y-139946748D01*
X204951000Y-140469252D02*
X204951000Y-139946748D01*
%TO.C,R2*%
X105691000Y-139996936D02*
X105691000Y-140451064D01*
X107161000Y-139996936D02*
X107161000Y-140451064D01*
%TO.C,C84*%
X143488748Y-67015000D02*
X144011252Y-67015000D01*
X143488748Y-68485000D02*
X144011252Y-68485000D01*
%TO.C,C26*%
X197385000Y-140469252D02*
X197385000Y-139946748D01*
X198855000Y-140469252D02*
X198855000Y-139946748D01*
%TO.C,C75*%
X100357000Y-125976748D02*
X100357000Y-126499252D01*
X101827000Y-125976748D02*
X101827000Y-126499252D01*
%TO.C,R87*%
X163095000Y-61695064D02*
X163095000Y-61240936D01*
X164565000Y-61695064D02*
X164565000Y-61240936D01*
%TO.C,C55*%
X221611252Y-79690000D02*
X220188748Y-79690000D01*
X221611252Y-81510000D02*
X220188748Y-81510000D01*
%TO.C,C7*%
X212265000Y-90416748D02*
X212265000Y-90939252D01*
X213735000Y-90416748D02*
X213735000Y-90939252D01*
%TO.C,C2*%
X96488748Y-67015000D02*
X97011252Y-67015000D01*
X96488748Y-68485000D02*
X97011252Y-68485000D01*
%TO.C,R89*%
X168683000Y-61695064D02*
X168683000Y-61240936D01*
X170153000Y-61695064D02*
X170153000Y-61240936D01*
%TO.C,C20*%
X180136748Y-103034000D02*
X181559252Y-103034000D01*
X180136748Y-105754000D02*
X181559252Y-105754000D01*
%TO.C,R38*%
X117502000Y-61806064D02*
X117502000Y-61351936D01*
X118972000Y-61806064D02*
X118972000Y-61351936D01*
%TO.C,L25*%
X221690000Y-83538748D02*
X221690000Y-84061252D01*
X223110000Y-83538748D02*
X223110000Y-84061252D01*
%TO.C,C88*%
X190488748Y-67015000D02*
X191011252Y-67015000D01*
X190488748Y-68485000D02*
X191011252Y-68485000D01*
%TO.C,C36*%
X86703248Y-103034000D02*
X88125752Y-103034000D01*
X86703248Y-105754000D02*
X88125752Y-105754000D01*
%TO.C,C51*%
X160015000Y-122761252D02*
X160015000Y-122238748D01*
X161485000Y-122761252D02*
X161485000Y-122238748D01*
%TO.C,C23*%
X156491000Y-140469252D02*
X156491000Y-139946748D01*
X157961000Y-140469252D02*
X157961000Y-139946748D01*
%TO.C,C3*%
X106590752Y-85254000D02*
X105168248Y-85254000D01*
X106590752Y-87974000D02*
X105168248Y-87974000D01*
%TO.C,C17*%
X185470748Y-103034000D02*
X186893252Y-103034000D01*
X185470748Y-105754000D02*
X186893252Y-105754000D01*
%TO.C,R55*%
X120296000Y-61806064D02*
X120296000Y-61351936D01*
X121766000Y-61806064D02*
X121766000Y-61351936D01*
%TO.C,C10*%
X111670752Y-85254000D02*
X110248248Y-85254000D01*
X111670752Y-87974000D02*
X110248248Y-87974000D01*
%TO.C,C87*%
X188238748Y-71424000D02*
X188761252Y-71424000D01*
X188238748Y-72894000D02*
X188761252Y-72894000D01*
%TO.C,C85*%
X135262252Y-62265000D02*
X134739748Y-62265000D01*
X135262252Y-63735000D02*
X134739748Y-63735000D01*
%TO.C,C41*%
X207765000Y-128770748D02*
X207765000Y-129293252D01*
X209235000Y-128770748D02*
X209235000Y-129293252D01*
%TO.C,C53*%
X161015000Y-128738748D02*
X161015000Y-129261252D01*
X162485000Y-128738748D02*
X162485000Y-129261252D01*
%TO.C,C50*%
X147093000Y-125976748D02*
X147093000Y-126499252D01*
X148563000Y-125976748D02*
X148563000Y-126499252D01*
%TO.C,C82*%
X141238748Y-69242000D02*
X141761252Y-69242000D01*
X141238748Y-70712000D02*
X141761252Y-70712000D01*
%TO.C,C45*%
X94238748Y-71401000D02*
X94761252Y-71401000D01*
X94238748Y-72871000D02*
X94761252Y-72871000D01*
%TD*%
D15*
X225103311Y-57421323D02*
X221794079Y-57421320D01*
X79979911Y-129643144D02*
X76676600Y-129643144D01*
X82676600Y-164977852D02*
G75*
G02*
X79698962Y-161964325I0J2977852D01*
G01*
X122544120Y-52620531D02*
X122544997Y-47600003D01*
X169844120Y-52620531D02*
X169844997Y-47600003D01*
X132144114Y-52629904D02*
G75*
G02*
X127344120Y-57421321I-4799854J8444D01*
G01*
X228103311Y-126600000D02*
G75*
G02*
X225103311Y-129600011I-3000211J200D01*
G01*
D16*
X179446010Y-134578900D02*
G75*
G02*
X169845590Y-134578900I-4800210J0D01*
G01*
X169845590Y-134578900D02*
G75*
G02*
X179446010Y-134578900I4800210J0D01*
G01*
D15*
X85000000Y-47600000D02*
X85000000Y-52464469D01*
X73676600Y-60464469D02*
X73676600Y-126643144D01*
X225103311Y-57421323D02*
G75*
G02*
X228103377Y-60421325I-11J-3000077D01*
G01*
X216994127Y-52615748D02*
X217000000Y-47600000D01*
X221794079Y-57421320D02*
G75*
G02*
X216994183Y-52615748I21J4799920D01*
G01*
X222103311Y-162000000D02*
G75*
G02*
X219103309Y-164999911I-3000011J100D01*
G01*
X179444114Y-52629904D02*
G75*
G02*
X174644120Y-57421321I-4799814J8404D01*
G01*
D16*
X132145838Y-134578660D02*
G75*
G02*
X122545882Y-134578660I-4799978J0D01*
G01*
X122545882Y-134578660D02*
G75*
G02*
X132145838Y-134578660I4799978J0D01*
G01*
D15*
X76676600Y-129643144D02*
G75*
G02*
X73676556Y-126643144I0J3000044D01*
G01*
X222103311Y-139199528D02*
X222103311Y-162000000D01*
X82676600Y-164977852D02*
X219103309Y-165000000D01*
X217000000Y-47600000D02*
X179445000Y-47600000D01*
X73676600Y-60464469D02*
G75*
G02*
X76676600Y-57464500I3000000J-31D01*
G01*
X174644120Y-57421320D02*
G75*
G02*
X169844180Y-52620531I-20J4799920D01*
G01*
X179445000Y-47600000D02*
X179444114Y-52629904D01*
X225103311Y-129600000D02*
X221800000Y-129600000D01*
X222103311Y-139199528D02*
G75*
G02*
X221799948Y-129592542I-269651J4799768D01*
G01*
X79979911Y-129643145D02*
G75*
G02*
X79698961Y-139163854I-13721J-4764095D01*
G01*
X85000000Y-52464469D02*
G75*
G02*
X79985832Y-57464470I-5000020J-1D01*
G01*
X122544128Y-52620531D02*
X122544120Y-52620531D01*
X79985832Y-57464470D02*
X76676600Y-57464467D01*
X169844997Y-47600003D02*
X132145000Y-47600000D01*
X169844128Y-52620531D02*
X169844120Y-52620531D01*
X132145000Y-47600000D02*
X132144114Y-52629904D01*
X79698961Y-139163853D02*
X79698961Y-161964325D01*
X122544997Y-47600003D02*
X85000000Y-47600000D01*
X216994131Y-52615748D02*
X216994127Y-52615748D01*
X228103311Y-60421325D02*
X228103311Y-126600000D01*
X127344120Y-57421320D02*
G75*
G02*
X122544180Y-52620531I-20J4799920D01*
G01*
M02*
